<?xml version="1.0" encoding="utf-8"?>
<!-- Generator: Adobe Illustrator 23.0.3, SVG Export Plug-In . SVG Version: 6.00 Build 0)  -->
<svg version="1.1" id="Layer_1" xmlns="http://www.w3.org/2000/svg" xmlns:xlink="http://www.w3.org/1999/xlink" x="0px" y="0px"
	 width="20px" height="20px" viewBox="0 0 20 20" style="enable-background:new 0 0 20 20;" xml:space="preserve">
<style type="text/css">
	.st0{fill:#FFFFFF;}
	.st1{fill:#768591;}
	.st2{fill:#196A24;}
</style>
<g>
	<path class="st0" d="M18.1,15.7v-0.5h0.4V5.1h-4.2V0.9H6.7v2H6.3v1h4.2h0.6l4.4,4.4v0.6v0.6h-0.8V8.9h-4.2V4.7H2.9V19h11.8v-4.4
		l0.8-0.9l0,2h0.9v-3.9l-5.5,5.5c-0.1,0.1-0.2,0.1-0.3,0.1c-0.1,0-0.2,0-0.3-0.1c-0.1-0.1-0.1-0.2-0.1-0.3s0-0.2,0.1-0.3l5.5-5.5
		h-4.4c-0.3,0-0.5-0.2-0.5-0.5s0.2-0.5,0.5-0.5h5.5c0.3,0,0.5,0.2,0.5,0.5v5H18.1z"/>
	<polygon class="st0" points="11.3,8.1 14.1,8.1 11.3,5.3 	"/>
	<polygon class="st0" points="15.1,1.5 15.1,4.3 17.9,4.3 	"/>
</g>
<g>
	<g>
		<g>
			<path class="st1" d="M14.7,14.6V19H2.9V4.7h7.6v4.2h4.2v0.6h0.8V8.9V8.3l-4.4-4.4h-0.6H2.1v16h13.5l-0.1-6.2L14.7,14.6z
				 M11.3,5.3L11.3,5.3l2.8,2.8h-2.8V5.3z"/>
		</g>
		<g>
			<path class="st1" d="M14.3,5.1h4.2v10.1h-0.4v0.9h1.3l-0.1-11V4.5l-4.4-4.4h-0.6H5.9v2.8h0.8v-2h7.6V5.1z M15.1,1.5L15.1,1.5
				l2.8,2.8h-2.8C15.1,4.3,15.1,1.5,15.1,1.5z"/>
		</g>
		<path class="st2" d="M16.9,16.7c0.3,0,0.5-0.2,0.5-0.5v-5.5c0-0.3-0.2-0.5-0.5-0.5h-5.5c-0.3,0-0.5,0.2-0.5,0.5s0.2,0.5,0.5,0.5
			h4.4l-5.5,5.5c-0.1,0.1-0.1,0.2-0.1,0.3c0,0.1,0,0.2,0.1,0.3c0.1,0.1,0.2,0.1,0.3,0.1s0.2,0,0.3-0.1l5.5-5.5v4.4
			C16.5,16.5,16.7,16.7,16.9,16.7z"/>
	</g>
</g>
</svg>
