<?xml version="1.0" encoding="utf-8"?>
<!-- Generator: Adobe Illustrator 23.0.4, SVG Export Plug-In . SVG Version: 6.00 Build 0)  -->
<svg version="1.1" id="Layer_1" xmlns="http://www.w3.org/2000/svg" xmlns:xlink="http://www.w3.org/1999/xlink" x="0px" y="0px"
	 width="20px" height="20px" viewBox="0 0 20 20" style="enable-background:new 0 0 20 20;" xml:space="preserve">
<style type="text/css">
	.st0{fill:#768591;}
	.st1{fill:#FFFFFF;}
	.st2{fill:#196A24;}
</style>
<path class="st0" d="M10,1l9,9l-9,9l-9-9L10,1 M10,0.1c-0.2,0-0.5,0.1-0.6,0.3l-9,9C0,9.7,0,10.3,0.4,10.6l9,9
	c0.2,0.2,0.4,0.3,0.6,0.3s0.5-0.1,0.6-0.3l9-9c0.4-0.4,0.4-0.9,0-1.3l-9-9C10.5,0.2,10.2,0.1,10,0.1L10,0.1z"/>
<path class="st1" d="M9.9,1l-9,9l9,9l9-9L9.9,1z M15.9,10.3l-2,2c-0.2,0.2-0.5,0.2-0.7,0c-0.2-0.2-0.2-0.5,0-0.7l1.1-1.1H5.7
	l1.2,1.1c0.1,0.2,0.1,0.6,0,0.8c-0.2,0.1-0.6,0.1-0.8,0l-2-2c0-0.1-0.1-0.1-0.1-0.2c0-0.1,0-0.3,0-0.4c0-0.1,0.1-0.2,0.1-0.2l2-2
	c0.2-0.1,0.6-0.1,0.8,0C7,7.8,7,8.2,6.8,8.4L5.7,9.5h8.6l-1.1-1.2c-0.2-0.2-0.2-0.5,0-0.7s0.5-0.2,0.7,0l2,2c0,0.1,0.1,0.1,0.1,0.2
	c0,0.1,0,0.3,0,0.4C15.9,10.3,15.9,10.3,15.9,10.3z"/>
<path class="st2" d="M16,10.2c0-0.1,0-0.3,0-0.4c0-0.1-0.1-0.1-0.1-0.2l-2-2c-0.2-0.2-0.5-0.2-0.7,0c-0.2,0.2-0.2,0.5,0,0.7l1.1,1.2
	H5.7l1.1-1.1C7,8.2,7,7.8,6.9,7.6c-0.2-0.1-0.6-0.1-0.8,0l-2,2l0,0c0,0-0.1,0.1-0.1,0.2c0,0.1,0,0.3,0,0.4c0,0.1,0.1,0.1,0.1,0.2
	l0,0l2,2c0.2,0.1,0.6,0.1,0.8,0c0.1-0.2,0.1-0.6,0-0.8l-1.2-1.1h8.6l-1.1,1.1c-0.2,0.2-0.2,0.5,0,0.7s0.5,0.2,0.7,0l2-2l0,0
	C15.9,10.3,15.9,10.3,16,10.2z"/>
</svg>
