<?xml version="1.0" encoding="utf-8"?>
<!-- Generator: Adobe Illustrator 22.1.0, SVG Export Plug-In . SVG Version: 6.00 Build 0)  -->
<svg version="1.1" id="Layer_1" xmlns="http://www.w3.org/2000/svg" xmlns:xlink="http://www.w3.org/1999/xlink" x="0px" y="0px"
	 viewBox="0 0 200 200" style="enable-background:new 0 0 200 200;" xml:space="preserve">
<style type="text/css">
	.st0{fill:#2574db;}
</style>
<path class="st0" d="M173.3,37.8l-0.7-1.1c-0.9-0.8-1.9-1-3.7-1c-1.9,0-5,0.2-11.3,0.7c-5.3,0.4-14.3,1.1-24.5,1.6
	c-11.4,0.6-22.4,0.9-32.7,0.9c-0.1,0-0.2,0-0.3,0c-10.4,0-21.5-0.3-32.9-0.9c-9.8-0.5-18.3-1.1-24.6-1.6c-6.3-0.5-9.4-0.7-11.3-0.7
	c-0.1,0-0.1,0-0.2,0c-1.7,0-2.7,0.2-3.6,1L27,37.4l-0.5,1.2l0,1l0.3,1l0.6,0.7c1.5,1.5,11.3,4.5,22.5,6.9
	c11.2,2.3,28.8,5.1,49.4,5.1h1.4c20.6,0,38.3-2.8,49.4-5.1c11-2.3,20.9-5.3,22.4-6.9l0.6-0.9l0.2-1.7L173.3,37.8z"/>
<g>
	<polygon class="st0" points="37.4,162 50.7,162 50.7,125.5 83.8,125.5 83.8,113.7 50.7,113.7 50.7,89 92.2,89 92.2,77.2 37.4,77.2 
			"/>
	<path class="st0" d="M147.8,116.8c5.1-2.8,10.4-8.7,10.4-18.2c0-13.7-10.8-21.5-29.7-21.5H98.5V162H134c18.1,0,28.5-8.5,28.5-23.4
		C162.6,126.4,155.4,119.6,147.8,116.8z M149.6,137.1c0,8.7-6,13.6-16.6,13.6h-21.2V123h16.9C142.6,123,149.6,127.7,149.6,137.1z
		 M111.8,112.1V88.5h16.7c10.8,0,16.7,4.1,16.7,11.6c0,10.8-12.1,12-17.3,12H111.8z"/>
</g>
</svg>
