<?xml version="1.0" encoding="utf-8"?>
<!-- Generator: Adobe Illustrator 22.1.0, SVG Export Plug-In . SVG Version: 6.00 Build 0)  -->
<svg version="1.1" id="Layer_1" xmlns="http://www.w3.org/2000/svg" xmlns:xlink="http://www.w3.org/1999/xlink" x="0px" y="0px"
	 viewBox="0 0 200 200" style="enable-background:new 0 0 200 200;" xml:space="preserve">
<style type="text/css">
	.st0{fill:none;stroke:#000000;stroke-width:6.4287;stroke-linecap:round;stroke-linejoin:round;stroke-miterlimit:10;}
	.st1{fill:#FFFFFF;}
	.st2{fill:#FFFFFF;stroke:#000000;stroke-width:6.4287;stroke-linecap:round;stroke-linejoin:round;stroke-miterlimit:10;}
</style>
<g>
	<polygon class="st0" points="163,66.1 104.4,66.1 104.4,66.1 163,66.1 	"/>
	<rect x="8.7" y="41.5" class="st1" width="182.1" height="117.5"/>
	<path class="st0" d="M95.7,159h88.1c4.8,0,7.2-0.5,9-16c2.9-23.8,2.9-62,0-85.8c-1.9-15.5-4.2-16.3-9-16.3H95.7"/>
	<path class="st0" d="M19.8,40.8h-3.6c-4.8,0-7.2,0.8-9.1,16.3c-2.9,23.7-2.9,62,0,85.8c1.9,15.5,4.2,16,9.1,16h3.6"/>
	<path class="st2" d="M69.3,24.4h-23c-5.3,0-9.6,4.4-9.6,9.8v132.1c0,5.4,4.3,9.8,9.6,9.8h23c5.3,0,9.6-4.4,9.6-9.8V34.2
		C78.9,28.8,74.6,24.4,69.3,24.4z"/>
	<line class="st0" x1="104.4" y1="91.4" x2="112.5" y2="91.4"/>
	<line class="st0" x1="104.4" y1="108.2" x2="112.5" y2="108.2"/>
	<line class="st0" x1="104.4" y1="125.1" x2="112.5" y2="125.1"/>
	<line class="st0" x1="129.7" y1="91.4" x2="137.8" y2="91.4"/>
	<line class="st0" x1="129.7" y1="108.2" x2="137.8" y2="108.2"/>
	<line class="st0" x1="129.7" y1="125.1" x2="137.8" y2="125.1"/>
	<line class="st0" x1="154.9" y1="91.4" x2="163" y2="91.4"/>
	<line class="st0" x1="154.9" y1="108.2" x2="163" y2="108.2"/>
	<line class="st0" x1="154.9" y1="125.1" x2="163" y2="125.1"/>
</g>
</svg>
