<?xml version="1.0" encoding="utf-8"?>
<!-- Generator: Adobe Illustrator 24.1.2, SVG Export Plug-In . SVG Version: 6.00 Build 0)  -->
<svg version="1.1" id="Layer_1" xmlns="http://www.w3.org/2000/svg" xmlns:xlink="http://www.w3.org/1999/xlink" x="0px" y="0px"
	 viewBox="0 0 104 72" style="enable-background:new 0 0 104 72;" xml:space="preserve">
<style type="text/css">
	.st0{fill:#276DE7;}
</style>
<g>
	<g>
		<path class="st0" d="M47.6,71.8H33.8V45.2c0-5.6-0.3-9.3-0.9-10.9c-0.6-1.7-1.5-2.9-2.9-3.9c-1.3-0.9-2.9-1.4-4.8-1.4
			c-2.4,0-4.5,0.7-6.4,2c-1.9,1.3-3.2,3-3.9,5.2c-0.7,2.2-1.1,6.2-1.1,12v23.7H0V19.6h12.8v7.7c4.6-5.9,10.3-8.9,17.2-8.9
			c3,0,5.8,0.5,8.4,1.6c2.5,1.1,4.4,2.5,5.7,4.2c1.3,1.7,2.2,3.6,2.7,5.8c0.5,2.2,0.8,5.3,0.8,9.3V71.8z"/>
	</g>
	<g>
		<path class="st0" d="M103.8,71.8H91v-7.7c-2.1,3-4.6,5.2-7.6,6.7c-2.9,1.5-5.8,2.2-8.8,2.2c-6,0-11.1-2.4-15.4-7.3
			c-4.3-4.8-6.4-11.6-6.4-20.2c0-8.9,2.1-15.6,6.2-20.2c4.2-4.6,9.4-6.9,15.8-6.9c5.8,0,10.9,2.4,15.2,7.3v-26h13.8V71.8z
			 M66.9,44.6c0,5.6,0.8,9.6,2.3,12.1c2.2,3.6,5.3,5.4,9.3,5.4c3.2,0,5.9-1.4,8.1-4.1c2.2-2.7,3.3-6.7,3.3-12.1c0-6-1.1-10.3-3.2-13
			c-2.2-2.6-4.9-4-8.3-4c-3.3,0-6,1.3-8.2,3.9S66.9,39.4,66.9,44.6z"/>
	</g>
</g>
</svg>
