<?xml version="1.0" encoding="UTF-8"?>
<!DOCTYPE svg PUBLIC "-//W3C//DTD SVG 1.1//EN" "http://www.w3.org/Graphics/SVG/1.1/DTD/svg11.dtd">
<svg xmlns="http://www.w3.org/2000/svg" version="1.1" width="64px" height="64px" style="shape-rendering:geometricPrecision; text-rendering:geometricPrecision; image-rendering:optimizeQuality; fill-rule:evenodd; clip-rule:evenodd" xmlns:xlink="http://www.w3.org/1999/xlink">
<g><path style="opacity:0.976" fill="#454c55" d="M 17.5,12.5 C 19.0527,16.2479 19.7194,20.2479 19.5,24.5C 19.483,27.9134 18.8164,30.9134 17.5,33.5C 16.6739,28.6835 16.1739,23.6835 16,18.5C 15.5814,17.3279 14.9147,16.3279 14,15.5C 13.6667,28.1667 13.3333,40.8333 13,53.5C 11.7599,56.9779 10.2599,60.3113 8.5,63.5C 7.5,63.5 6.5,63.5 5.5,63.5C 3.7401,60.3113 2.2401,56.9779 1,53.5C 0.333333,38.1667 0.333333,22.8333 1,7.5C 7.30925,2.7285 11.8092,4.06183 14.5,11.5C 15.4168,12.1272 16.4168,12.4606 17.5,12.5 Z"/></g>
<g><path style="opacity:0.905" fill="#7cc6ff" d="M 60.5,18.5 C 52.486,19.8114 48.486,16.478 48.5,8.5C 39.8269,8.66642 31.1603,8.49975 22.5,8C 21.944,7.61742 21.6107,7.11742 21.5,6.5C 26.4558,5.17176 31.7891,4.50509 37.5,4.5C 42.8333,4.66667 48.1667,4.83333 53.5,5C 60.3005,7.43684 62.6338,11.9368 60.5,18.5 Z"/></g>
<g><path style="opacity:0.992" fill="#fefefe" d="M 21.5,6.5 C 21.6107,7.11742 21.944,7.61742 22.5,8C 31.1603,8.49975 39.8269,8.66642 48.5,8.5C 48.486,16.478 52.486,19.8114 60.5,18.5C 60.5,19.5 60.5,20.5 60.5,21.5C 59.1745,25.4451 58.5079,29.7784 58.5,34.5C 58.6667,38.8333 58.8333,43.1667 59,47.5C 59.3826,48.056 59.8826,48.3893 60.5,48.5C 60.5,51.8333 60.5,55.1667 60.5,58.5C 59.2618,59.4124 57.9285,59.5791 56.5,59C 52.8942,52.8667 49.7276,53.0333 47,59.5C 43.4215,56.6019 40.5882,57.2686 38.5,61.5C 37.5,61.5 36.5,61.5 35.5,61.5C 34.0387,60.3143 32.7054,60.3143 31.5,61.5C 30.5,61.5 29.5,61.5 28.5,61.5C 25.4287,61.077 22.5954,60.077 20,58.5C 19.6667,52.5 19.3333,46.5 19,40.5C 18.6174,39.944 18.1174,39.6107 17.5,39.5C 17.5,37.5 17.5,35.5 17.5,33.5C 18.8164,30.9134 19.483,27.9134 19.5,24.5C 19.7194,20.2479 19.0527,16.2479 17.5,12.5C 16.8911,9.12155 18.2244,7.12155 21.5,6.5 Z"/></g>
<g><path style="opacity:1" fill="#fafbfb" d="M 10.5,12.5 C 9.5,12.5 8.5,12.5 7.5,12.5C 7.33352,22.5056 7.50019,32.5056 8,42.5C 8.76971,43.5981 9.60305,43.5981 10.5,42.5C 10.9369,47.4116 10.1036,52.0783 8,56.5C 7.33333,57.8333 6.66667,57.8333 6,56.5C 5.52907,54.7536 4.86241,53.087 4,51.5C 3.33333,37.5 3.33333,23.5 4,9.5C 7.75787,7.52651 9.92454,8.52651 10.5,12.5 Z"/></g>
<g><path style="opacity:1" fill="#eef7ff" d="M 51.5,8.5 C 55.046,9.04345 57.3793,11.0435 58.5,14.5C 53.2008,16.2098 50.8675,14.2098 51.5,8.5 Z"/></g>
<g><path style="opacity:1" fill="#73c2ff" d="M 10.5,12.5 C 10.5,22.5 10.5,32.5 10.5,42.5C 9.60305,43.5981 8.76971,43.5981 8,42.5C 7.50019,32.5056 7.33352,22.5056 7.5,12.5C 8.5,12.5 9.5,12.5 10.5,12.5 Z"/></g>
<g><path style="opacity:0.972" fill="#72c2ff" d="M 60.5,21.5 C 61.8333,30.5 61.8333,39.5 60.5,48.5C 59.8826,48.3893 59.3826,48.056 59,47.5C 58.8333,43.1667 58.6667,38.8333 58.5,34.5C 58.5079,29.7784 59.1745,25.4451 60.5,21.5 Z"/></g>
<g><path style="opacity:0.971" fill="#72c3ff" d="M 17.5,39.5 C 18.1174,39.6107 18.6174,39.944 19,40.5C 19.3333,46.5 19.6667,52.5 20,58.5C 22.5954,60.077 25.4287,61.077 28.5,61.5C 28.5,62.1667 28.5,62.8333 28.5,63.5C 25.8333,63.5 23.1667,63.5 20.5,63.5C 19.3117,62.6364 18.1451,61.6364 17,60.5C 16.1787,53.3209 16.3454,46.3209 17.5,39.5 Z"/></g>
<g><path style="opacity:0.935" fill="#4c525b" d="M 60.5,58.5 C 61.4778,58.811 62.1445,59.4777 62.5,60.5C 61.6602,61.735 60.6602,62.735 59.5,63.5C 58.1667,63.5 56.8333,63.5 55.5,63.5C 55.1667,62.8333 54.8333,62.1667 54.5,61.5C 52.4679,56.402 50.8013,56.402 49.5,61.5C 49.1667,62.1667 48.8333,62.8333 48.5,63.5C 47.1667,63.5 45.8333,63.5 44.5,63.5C 43.5,60.8333 42.5,60.8333 41.5,63.5C 40.5,63.5 39.5,63.5 38.5,63.5C 38.5,62.8333 38.5,62.1667 38.5,61.5C 40.5882,57.2686 43.4215,56.6019 47,59.5C 49.7276,53.0333 52.8942,52.8667 56.5,59C 57.9285,59.5791 59.2618,59.4124 60.5,58.5 Z"/></g>
<g><path style="opacity:1" fill="#e9eaeb" d="M 54.5,61.5 C 52.8333,61.5 51.1667,61.5 49.5,61.5C 50.8013,56.402 52.4679,56.402 54.5,61.5 Z"/></g>
<g><path style="opacity:0.825" fill="#474e57" d="M 35.5,61.5 C 35.1667,62.1667 34.8333,62.8333 34.5,63.5C 33.5,63.5 32.5,63.5 31.5,63.5C 31.5,62.8333 31.5,62.1667 31.5,61.5C 32.7054,60.3143 34.0387,60.3143 35.5,61.5 Z"/></g>
</svg>
