<?xml version="1.0" encoding="utf-8"?>
<!-- Generator: Adobe Illustrator 23.0.3, SVG Export Plug-In . SVG Version: 6.00 Build 0)  -->
<svg version="1.1" id="Layer_1" xmlns="http://www.w3.org/2000/svg" xmlns:xlink="http://www.w3.org/1999/xlink" x="0px" y="0px"
	 width="20px" height="20px" viewBox="0 0 20 20" style="enable-background:new 0 0 20 20;" xml:space="preserve">
<style type="text/css">
	.st0{fill:#FFFFFF;}
	.st1{fill:#768591;}
	.st2{fill:#147278;}
</style>
<g>
	<polygon class="st0" points="13,6 16.3,6 13,2.7 	"/>
</g>
<g>
	<path class="st0" d="M17,18.5v-0.8l-4.4-4.4v0.9c0,0.3-0.2,0.5-0.5,0.5h-0.9l4.3,4.3h1C16.8,19,17,18.8,17,18.5z"/>
	<path class="st0" d="M9.5,14c0-0.1,0.1-0.2,0.1-0.2c0.1,0,0.3-0.1,0.4-0.1h1.7v-1.6c0-0.2,0.1-0.4,0.3-0.5c0.1-0.1,0.4,0,0.5,0.1
		l4.5,4.5V7h-5V2H3v17h11.2l-4.7-4.7C9.5,14.2,9.4,14.1,9.5,14z"/>
</g>
<path class="st1" d="M18,7V6.3L12.7,1H12l0,0l0,0l0,0H2v19h13.2l-1-1H3V2h9v5h5v9.2l1,1V7L18,7L18,7z M13,6V2.7L16.3,6H13z"/>
<path class="st2" d="M17,16.2L17,16.2l-4.5-4.5c-0.1-0.1-0.4-0.2-0.5-0.1c-0.2,0.1-0.3,0.3-0.3,0.5v1.6H10c-0.1,0-0.3,0.1-0.4,0.1
	c0,0-0.1,0.1-0.1,0.2c-0.1,0.1,0,0.2,0,0.3l5.7,5.7h1.3c0.8,0,1.5-0.7,1.5-1.5v-1.3L17,16.2z M17,18.5c0,0.3-0.2,0.5-0.5,0.5h-1
	l-4.3-4.3h0.9c0.3,0,0.5-0.2,0.5-0.5v-0.9l4.4,4.4V18.5z"/>
</svg>
