<?xml version="1.0" encoding="utf-8"?>
<!-- Generator: Adobe Illustrator 24.3.0, SVG Export Plug-In . SVG Version: 6.00 Build 0)  -->
<svg version="1.1" id="Layer_1" xmlns="http://www.w3.org/2000/svg" xmlns:xlink="http://www.w3.org/1999/xlink" x="0px" y="0px"
	 viewBox="0 0 20 20" style="enable-background:new 0 0 20 20;" xml:space="preserve">
<style type="text/css">
	.st0{fill:#FFFFFF;}
	.st1{fill:#768591;}
	.st2{fill:none;stroke:#196A24;stroke-width:1.0592;stroke-linecap:round;stroke-linejoin:round;}
	.st3{fill:none;stroke:#196A24;stroke-linecap:round;stroke-linejoin:round;}
	.st4{fill:none;stroke:#196A24;stroke-width:0.9311;stroke-linecap:round;stroke-linejoin:round;}
</style>
<polygon class="st0" points="12.9,6 16.2,6 13,2.7 "/>
<path class="st1" d="M17.9,6.9V6.2L12.7,1H2v19h16L17.9,6.9z M13,2.7L16.2,6h-3.3L13,2.7z M17,19H3V2h9v5h5V19z"/>
<polygon class="st0" points="16.2,6 12.9,6 13,2.7 "/>
<polygon class="st0" points="17,7 17,19 3,19 3,2 12,2 12,7 "/>
<g>
	<line class="st2" x1="10" y1="4.6" x2="10" y2="15"/>
	<polyline class="st3" points="14.1,12.5 14.1,11.2 10,8.8 	"/>
	<polyline class="st3" points="5.9,11.6 5.9,10.1 10,7.3 	"/>
	<circle class="st4" cx="5.9" cy="13" r="1.2"/>
	<circle class="st4" cx="10" cy="16.5" r="1.2"/>
</g>
<circle class="st4" cx="14.1" cy="13.8" r="1.2"/>
</svg>
