<?xml version="1.0" encoding="utf-8"?>
<!-- Generator: Adobe Illustrator 23.0.3, SVG Export Plug-In . SVG Version: 6.00 Build 0)  -->
<svg version="1.1" id="Layer_1" xmlns="http://www.w3.org/2000/svg" xmlns:xlink="http://www.w3.org/1999/xlink" x="0px" y="0px"
	 width="20px" height="20px" viewBox="0 0 20 20" style="enable-background:new 0 0 20 20;" xml:space="preserve">
<style type="text/css">
	.st0{fill:#FFFFFF;}
	.st1{fill:#768591;}
	.st2{fill:#196A24;}
</style>
<polygon class="st0" points="14.1,3.1 14,3.1 14,5.9 16.8,5.9 "/>
<polygon class="st1" points="3.8,18.6 3.8,18.5 2.3,4.3 3.8,4.2 3.8,3.3 1.4,3.6 3.1,19.5 14.5,18.3 6.5,18.3 "/>
<g>
	<path class="st1" d="M18.2,6.7V6.1l-4.4-4.4h-0.6H4.8V5c0.1,0,0.3,0,0.4,0.1h0.1l0.2,0.2l0.1,0.1V2.5h7.6v4.2h4.2v10.1H5.6v-0.1v-8
		c-0.1,0-0.1-0.1-0.2-0.1L5.1,8.2L4.8,8v9.7h13.5L18.2,6.7z M14,5.9V3.1h0.1l2.7,2.8C16.8,5.9,14,5.9,14,5.9z"/>
</g>
<g>
	<path class="st0" d="M12.9,11.7c0.2,0,0.4-0.2,0.4-0.4s-0.2-0.4-0.4-0.4c-0.3,0-0.4,0.2-0.4,0.4S12.7,11.7,12.9,11.7z"/>
	<path class="st0" d="M9.7,11.8c0-0.1-0.1-0.1-0.2-0.1s-0.1,0-0.2,0.1l-1.1,1.3v1.2h3.7L9.7,11.8z"/>
	<path class="st0" d="M9.5,10.9c0.3,0,0.7,0.1,0.9,0.4l2.7,3H15V9.2H8.2v2.6l0.4-0.5C8.9,11.1,9.2,10.9,9.5,10.9z M12.9,10
		c0.7,0,1.3,0.6,1.3,1.3s-0.6,1.3-1.3,1.3c-0.7,0-1.3-0.6-1.3-1.3S12.2,10,12.9,10z"/>
</g>
<path class="st0" d="M5.6,16.8h11.8V6.7h-4.2V2.5H5.6v2.9L5.5,5.3L5.3,5.1H5.2C5.1,5,4.9,5,4.8,5V3.7l-1,0.1v0.4L2.3,4.3l1.5,14.2
	v0.1l2.7-0.3h4.8l4.7-0.5l0-0.1H4.8V8l0.3,0.2l0.3,0.4c0.1,0,0.1,0.1,0.2,0.1V16.8L5.6,16.8z M15.4,8.4c0.2,0,0.4,0.2,0.4,0.4v5.9
	c0,0.2-0.2,0.4-0.4,0.4H7.8c-0.2,0-0.4-0.2-0.4-0.4V8.8c0-0.3,0.1-0.5,0.4-0.4H15.4z M4.8,6.9L4.4,6.5c-0.2-0.2-0.2-0.4,0-0.6
	c0.1-0.1,0.2-0.1,0.3-0.1h0.1c0.1,0,0.1,0.1,0.2,0.1l0.7,0.7l0.7,0.7l3.9-3.9c0.1-0.1,0.2-0.1,0.3-0.1c0.1,0,0.2,0,0.3,0.1
	c0.2,0.2,0.2,0.4,0,0.6L6.6,8.1C6.5,8.2,6.4,8.2,6.3,8.2c-0.1,0-0.2,0-0.3-0.1L5.6,7.7L4.8,6.9z"/>
<g>
	<path class="st1" d="M12.9,12.6c0.7,0,1.3-0.6,1.3-1.3S13.6,10,12.9,10c-0.7,0-1.3,0.6-1.3,1.3S12.2,12.6,12.9,12.6z M12.9,10.9
		c0.2,0,0.4,0.2,0.4,0.4s-0.2,0.4-0.4,0.4c-0.2,0-0.4-0.2-0.4-0.4S12.6,10.9,12.9,10.9z"/>
	<path class="st1" d="M15.4,8.4H7.8C7.5,8.3,7.4,8.5,7.4,8.8v5.9c0,0.2,0.2,0.4,0.4,0.4h7.6c0.2,0,0.4-0.2,0.4-0.4V8.8
		C15.8,8.6,15.6,8.4,15.4,8.4z M8.2,14.3v-1.2l1.1-1.3c0.1-0.1,0.1-0.1,0.2-0.1s0.2,0,0.2,0.1l2.2,2.5H8.2z M15,14.3h-1.9l-2.7-3
		c-0.2-0.3-0.6-0.4-0.9-0.4s-0.6,0.2-0.9,0.4l-0.4,0.5V9.2H15V14.3z"/>
</g>
<path class="st2" d="M10.3,3.4L6.4,7.3L5.7,6.6L5,5.9c-0.1,0-0.1-0.1-0.2-0.1H4.7c-0.1,0-0.2,0-0.3,0.1c-0.2,0.2-0.2,0.4,0,0.6
	l0.4,0.4l0.8,0.8L6,8.1c0.1,0.1,0.2,0.1,0.3,0.1c0.1,0,0.2,0,0.3-0.1L10.9,4c0.2-0.2,0.2-0.4,0-0.6c-0.1-0.1-0.2-0.1-0.3-0.1
	C10.5,3.3,10.4,3.3,10.3,3.4z"/>
</svg>
