<?xml version="1.0" encoding="utf-8"?>
<!-- Generator: Adobe Illustrator 23.0.3, SVG Export Plug-In . SVG Version: 6.00 Build 0)  -->
<svg version="1.1" id="Layer_1" xmlns="http://www.w3.org/2000/svg" xmlns:xlink="http://www.w3.org/1999/xlink" x="0px" y="0px"
	 width="20px" height="20px" viewBox="0 0 20 20" style="enable-background:new 0 0 20 20;" xml:space="preserve">
<style type="text/css">
	.st0{fill:#FFFFFF;}
	.st1{fill:#2574db;}
</style>
<g>
	<path class="st0" d="M17.5,15.1c-0.1-0.3-0.7-0.8-1.9-1.2c-0.7-0.3-3.3-1.3-3.5-1.3c-0.3-0.1-0.5-0.4-0.5-0.7V9.4
		c0-0.3,0.1-0.4,0.3-0.5c0,0,0.1-0.1,0.3-0.3c0.3-0.5,0.4-1.1,0.4-2c0-0.4,0.3-0.7,0.7-0.7V5.4c-0.4,0-0.7-0.3-0.7-0.7
		c0-0.3,0.5-1.3,0.4-1.1c0.3-0.5,0.3-0.9,0.3-1.3c0-0.1,0-0.1,0-0.3C13,1,9,1,8.7,2.1C8.6,2.5,8.2,2.6,7.9,2.6c-0.3,0-0.4,0-0.4,0
		c0,0.1-0.1,0.3,0,0.7c0,0.3,0,0.4,0.1,0.7c0-0.3,0.1,0.7,0.1,0.8v1.9C7.7,7.5,8,8,8.4,8.4C8.6,8.6,8.9,8.8,9,8.8
		c0.3,0.1,0.4,0.4,0.4,0.7v2.4c0,0.3-0.1,0.5-0.4,0.7c-0.3,0-0.7,0.1-1.2,0.4c-0.3,0.1-0.5,0.1-0.7,0.3c-2.3,0.8-3.3,1.5-3.5,1.9
		c-0.1,0.4-0.3,1.1-0.3,1.7c-0.1,0.5-0.1,1.2-0.1,1.7v0.1h14.7c0-0.7,0-1.3-0.1-1.9C17.7,16,17.7,15.3,17.5,15.1z"/>
</g>
<path id="Stroke-526" class="st1" d="M16.2,12.5c1.6,0.7,2.4,1.2,2.7,2.1c0.1,0.5,0.3,1.2,0.4,2.1c0,0.5,0.1,1.2,0.1,1.7
	c0,0.4,0,0.7,0,0.8c0,0.4-0.3,0.7-0.7,0.7h-16c-0.5,0-0.8-0.3-0.8-0.7c0-0.1,0-0.4,0-0.8c0-0.7,0-1.2,0.1-1.7
	c0.1-0.9,0.1-1.6,0.4-2.1c0.3-1.1,1.5-1.6,4.3-2.7c0.1-0.1,0.4-0.1,0.7-0.3c0.3-0.1,0.5-0.3,0.8-0.3V9.8C7.9,9.7,7.7,9.6,7.5,9.3
	C6.7,8.8,6.3,7.8,6.3,6.6V4.8c0,0-0.1-0.4-0.1-0.5C6.2,4,6,3.7,6,3.4c0-0.6,0-1,0.3-1.4c0.3-0.5,0.8-0.7,1.3-0.7
	c1.3-1.9,6.4-1.7,6.9,0.5c0,0.1,0,0.3,0.1,0.4c0,0.7-0.1,1.2-0.4,2c0,0.1-0.1,0.1-0.1,0.3c0.7,0.7,0.5,2.1-0.3,2.7
	c0,0.8-0.3,1.5-0.5,2c-0.1,0.3-0.3,0.4-0.4,0.5v1.6C13.9,11.7,15.7,12.4,16.2,12.5z M17.9,18.7C17.9,18.7,17.9,18.5,17.9,18.7
	c0-0.7,0-1.3-0.1-1.9c-0.1-0.8-0.1-1.5-0.3-1.7c-0.1-0.3-0.7-0.8-1.9-1.2c-0.7-0.3-3.3-1.3-3.5-1.3c-0.3-0.1-0.5-0.4-0.5-0.7V9.4
	c0-0.3,0.1-0.4,0.3-0.5c0,0,0.1-0.1,0.3-0.3c0.3-0.5,0.4-1.1,0.4-2c0-0.4,0.3-0.7,0.7-0.7V5.4c-0.4,0-0.7-0.3-0.7-0.7
	c0-0.3,0.5-1.3,0.4-1.1c0.3-0.5,0.3-0.9,0.3-1.3c0-0.1,0-0.1,0-0.3C13,1,9,1,8.7,2.1C8.6,2.5,8.2,2.6,7.9,2.6s-0.4,0-0.4,0
	c0,0.1-0.1,0.3,0,0.7c0,0.3,0,0.4,0.1,0.7c0-0.3,0.1,0.7,0.1,0.8v1.9C7.7,7.5,8,8,8.4,8.4C8.6,8.6,8.9,8.8,9,8.8
	c0.3,0.1,0.4,0.4,0.4,0.7v2.4c0,0.3-0.1,0.5-0.4,0.7c-0.3,0-0.7,0.1-1.2,0.4c-0.3,0.1-0.5,0.1-0.7,0.3c-2.3,0.8-3.3,1.5-3.5,1.9
	c-0.1,0.4-0.3,1.1-0.3,1.7c-0.1,0.5-0.1,1.2-0.1,1.7v0.1H17.9z"/>
</svg>
