<?xml version="1.0" encoding="UTF-8" standalone="no"?>
<!DOCTYPE svg PUBLIC "-//W3C//DTD SVG 1.1//EN" "http://www.w3.org/Graphics/SVG/1.1/DTD/svg11.dtd">
<svg xmlns="http://www.w3.org/2000/svg" version="1.1" viewBox="0.00 0.00 64.00 64.00">
<g stroke-width="2.00" fill="none" stroke-linecap="butt">
<path stroke="#777777" vector-effect="non-scaling-stroke" d="
  M 45.93 26.28
  C 45.45 25.83 45.01 25.09 45.00 24.39
  Q 44.99 18.46 44.97 12.70
  Q 44.97 11.97 44.24 12.00
  C 41.82 12.11 37.37 12.77 37.10 9.24
  Q 36.92 6.86 36.98 4.73
  A 0.68 0.68 0.0 0 0 36.31 4.03
  Q 23.56 3.84 10.54 4.02
  Q 9.15 4.03 8.01 4.74
  A 1.30 1.26 81.3 0 0 7.43 5.56
  Q 7.03 7.40 7.02 9.30
  Q 6.96 29.62 7.06 50.52
  Q 7.08 53.92 10.48 53.94
  Q 16.49 53.99 21.74 54.02
  Q 22.66 54.03 23.36 54.95"
/>
<path stroke="#777777" vector-effect="non-scaling-stroke" d="
  M 45.99 28.07
  Q 35.95 31.06 37.19 41.47
  A 1.79 1.78 64.3 0 1 36.68 42.94
  L 24.70 54.92"
/>
<path stroke="#777777" vector-effect="non-scaling-stroke" d="
  M 45.60 49.44
  Q 42.79 52.05 39.64 53.28
  Q 39.16 53.47 39.01 53.96
  Q 38.74 54.84 39.46 55.09"
/>
<path stroke="#5f5d5a" vector-effect="non-scaling-stroke" d="
  M 42.34 10.07
  A 0.54 0.54 0.0 0 0 42.75 9.15
  L 39.87 6.26
  A 0.54 0.54 0.0 0 0 38.95 6.67
  L 39.09 9.42
  A 0.54 0.54 0.0 0 0 39.60 9.93
  L 42.34 10.07"
/>
<path stroke="#777777" vector-effect="non-scaling-stroke" d="
  M 33.0197 10.9225
  A 0.87 0.87 0.0 0 0 32.1451 10.0570
  L 11.9054 10.1630
  A 0.87 0.87 0.0 0 0 11.0400 11.0375
  L 11.0403 11.0975
  A 0.87 0.87 0.0 0 0 11.9149 11.9630
  L 32.1546 11.8570
  A 0.87 0.87 0.0 0 0 33.0200 10.9825
  L 33.0197 10.9225"
/>
<path stroke="#777777" vector-effect="non-scaling-stroke" d="
  M 19.53 16.60
  Q 15.97 15.75 11.82 16.20
  Q 11.29 16.26 11.22 16.79
  Q 11.20 16.99 11.25 17.20
  Q 11.38 17.71 11.90 17.76
  Q 15.73 18.14 19.51 17.42
  C 20.63 17.21 21.81 17.87 23.02 17.86
  Q 31.24 17.77 39.77 18.01
  Q 40.73 18.04 40.89 17.10
  L 40.96 16.73
  A 0.49 0.49 0.0 0 0 40.49 16.16
  Q 31.88 15.92 22.66 16.06
  C 21.47 16.07 20.67 16.87 19.53 16.60"
/>
<path stroke="#777777" vector-effect="non-scaling-stroke" d="
  M 40.9200 22.9960
  A 0.92 0.92 0.0 0 0 40.0016 22.0744
  L 12.0617 22.0256
  A 0.92 0.92 0.0 0 0 11.1401 22.9440
  L 11.1400 23.0040
  A 0.92 0.92 0.0 0 0 12.0584 23.9256
  L 39.9983 23.9744
  A 0.92 0.92 0.0 0 0 40.9199 23.0560
  L 40.9200 22.9960"
/>
<path stroke="#777777" vector-effect="non-scaling-stroke" d="
  M 29.95 28.51
  C 28.27 28.96 26.71 27.98 24.93 28.03
  Q 18.16 28.24 11.82 28.05
  A 0.64 0.64 0.0 0 0 11.16 28.72
  L 11.18 29.01
  Q 11.23 29.88 12.10 29.86
  Q 19.37 29.74 26.09 29.83
  C 27.42 29.85 28.46 29.02 29.73 29.50
  C 31.85 30.31 34.53 29.97 36.79 29.93
  Q 37.73 29.92 37.99 29.07
  A 0.64 0.64 0.0 0 0 37.50 28.26
  Q 33.59 27.53 29.95 28.51"
/>
<path stroke="#777777" vector-effect="non-scaling-stroke" d="
  M 34.9899 34.9792
  A 0.92 0.92 0.0 0 0 34.0683 34.0608
  L 12.0284 34.0992
  A 0.92 0.92 0.0 0 0 11.1100 35.0208
  L 11.1101 35.0608
  A 0.92 0.92 0.0 0 0 12.0317 35.9792
  L 34.0716 35.9408
  A 0.92 0.92 0.0 0 0 34.9900 35.0192
  L 34.9899 34.9792"
/>
<path stroke="#777777" vector-effect="non-scaling-stroke" d="
  M 19.81 40.72
  Q 16.22 39.68 11.65 40.19
  Q 11.18 40.24 11.16 40.72
  L 11.14 41.13
  A 0.67 0.67 0.0 0 0 11.76 41.82
  Q 16.10 42.16 19.77 41.25
  Q 20.27 41.13 20.72 41.38
  Q 21.47 41.80 22.33 41.83
  Q 27.38 42.02 33.03 41.93
  Q 33.93 41.91 33.94 41.01
  L 33.94 40.68
  Q 33.94 40.15 33.41 40.13
  Q 28.02 39.95 22.53 40.06
  Q 21.56 40.08 20.68 40.61
  A 1.12 1.11 37.5 0 1 19.81 40.72"
/>
<path stroke="#777777" vector-effect="non-scaling-stroke" d="
  M 28.9001 46.9910
  A 0.93 0.93 0.0 0 0 27.9733 46.0578
  L 12.0734 46.0023
  A 0.93 0.93 0.0 0 0 11.1402 46.9290
  L 11.1399 46.9890
  A 0.93 0.93 0.0 0 0 12.0667 47.9222
  L 27.9666 47.9777
  A 0.93 0.93 0.0 0 0 28.8998 47.0510
  L 28.9001 46.9910"
/>
<path stroke="#805414" vector-effect="non-scaling-stroke" d="
  M 38.24 51.12
  C 41.37 51.08 42.07 49.24 44.05 47.72
  Q 44.43 47.42 44.91 47.51
  Q 53.63 49.22 56.48 42.02
  Q 58.45 37.04 54.39 32.72"
/>
<path stroke="#805b25" vector-effect="non-scaling-stroke" d="
  M 54.39 32.72
  C 51.67 29.95 47.50 29.13 44.05 30.93
  Q 37.87 34.16 39.44 41.83
  A 1.79 1.79 0.0 0 1 38.95 43.45
  Q 33.49 48.88 28.40 53.96
  Q 26.37 55.99 27.02 59.03
  Q 27.15 59.65 27.75 59.83
  Q 28.99 60.19 30.14 59.87
  Q 30.90 59.66 30.99 58.88
  Q 31.20 57.15 32.95 56.94
  A 1.25 1.24 86.4 0 0 34.05 55.69
  Q 34.04 53.84 36.05 53.87
  A 0.61 0.60 -79.1 0 0 36.63 53.47
  Q 37.47 51.12 38.24 51.12"
/>
<path stroke="#ffaf39" vector-effect="non-scaling-stroke" d="
  M 54.39 32.72
  Q 53.55 33.65 52.73 34.06"
/>
<path stroke="#805b25" vector-effect="non-scaling-stroke" d="
  M 52.73 34.06
  C 48.38 30.84 43.81 36.06 47.21 39.96"
/>
<path stroke="#ffaf39" vector-effect="non-scaling-stroke" d="
  M 47.21 39.96
  Q 44.44 42.65 41.44 45.18
  C 39.89 46.49 37.62 48.88 38.24 51.12"
/>
<path stroke="#805414" vector-effect="non-scaling-stroke" d="
  M 47.21 39.96
  C 51.67 43.06 56.27 37.96 52.73 34.06"
/>
<path stroke="#777777" vector-effect="non-scaling-stroke" d="
  M 51.97 36.99
  A 1.96 1.96 0.0 0 0 50.01 35.03
  A 1.96 1.96 0.0 0 0 48.05 36.99
  A 1.96 1.96 0.0 0 0 50.01 38.95
  A 1.96 1.96 0.0 0 0 51.97 36.99"
/>
</g>
<path fill="#000000" d="
  M 45.93 26.28
  C 45.45 25.83 45.01 25.09 45.00 24.39
  Q 44.99 18.46 44.97 12.70
  Q 44.97 11.97 44.24 12.00
  C 41.82 12.11 37.37 12.77 37.10 9.24
  Q 36.92 6.86 36.98 4.73
  A 0.68 0.68 0.0 0 0 36.31 4.03
  Q 23.56 3.84 10.54 4.02
  Q 9.15 4.03 8.01 4.74
  A 1.30 1.26 81.3 0 0 7.43 5.56
  Q 7.03 7.40 7.02 9.30
  Q 6.96 29.62 7.06 50.52
  Q 7.08 53.92 10.48 53.94
  Q 16.49 53.99 21.74 54.02
  Q 22.66 54.03 23.36 54.95
  L 22.70 55.61
  Q 22.30 56.02 21.74 56.01
  Q 16.25 55.95 10.76 56.02
  C 7.58 56.07 5.08 54.30 5.07 50.94
  Q 4.96 25.55 5.09 7.36
  Q 5.13 2.23 10.25 2.15
  Q 22.77 1.93 36.00 2.02
  Q 37.99 2.04 39.33 3.13
  Q 42.81 5.97 45.84 9.61
  Q 46.99 10.99 47.00 13.00
  Q 47.04 18.69 46.94 24.75
  Q 46.93 25.66 45.93 26.28
  Z
  M 42.34 10.07
  A 0.54 0.54 0.0 0 0 42.75 9.15
  L 39.87 6.26
  A 0.54 0.54 0.0 0 0 38.95 6.67
  L 39.09 9.42
  A 0.54 0.54 0.0 0 0 39.60 9.93
  L 42.34 10.07
  Z"
/>
<path fill="#eeeeee" d="
  M 45.93 26.28
  L 45.99 28.07
  Q 35.95 31.06 37.19 41.47
  A 1.79 1.78 64.3 0 1 36.68 42.94
  L 24.70 54.92
  L 23.36 54.95
  Q 22.66 54.03 21.74 54.02
  Q 16.49 53.99 10.48 53.94
  Q 7.08 53.92 7.06 50.52
  Q 6.96 29.62 7.02 9.30
  Q 7.03 7.40 7.43 5.56
  A 1.30 1.26 81.3 0 1 8.01 4.74
  Q 9.15 4.03 10.54 4.02
  Q 23.56 3.84 36.31 4.03
  A 0.68 0.68 0.0 0 1 36.98 4.73
  Q 36.92 6.86 37.10 9.24
  C 37.37 12.77 41.82 12.11 44.24 12.00
  Q 44.97 11.97 44.97 12.70
  Q 44.99 18.46 45.00 24.39
  C 45.01 25.09 45.45 25.83 45.93 26.28
  Z
  M 33.0197 10.9225
  A 0.87 0.87 0.0 0 0 32.1451 10.0570
  L 11.9054 10.1630
  A 0.87 0.87 0.0 0 0 11.0400 11.0375
  L 11.0403 11.0975
  A 0.87 0.87 0.0 0 0 11.9149 11.9630
  L 32.1546 11.8570
  A 0.87 0.87 0.0 0 0 33.0200 10.9825
  L 33.0197 10.9225
  Z
  M 19.53 16.60
  Q 15.97 15.75 11.82 16.20
  Q 11.29 16.26 11.22 16.79
  Q 11.20 16.99 11.25 17.20
  Q 11.38 17.71 11.90 17.76
  Q 15.73 18.14 19.51 17.42
  C 20.63 17.21 21.81 17.87 23.02 17.86
  Q 31.24 17.77 39.77 18.01
  Q 40.73 18.04 40.89 17.10
  L 40.96 16.73
  A 0.49 0.49 0.0 0 0 40.49 16.16
  Q 31.88 15.92 22.66 16.06
  C 21.47 16.07 20.67 16.87 19.53 16.60
  Z
  M 40.9200 22.9960
  A 0.92 0.92 0.0 0 0 40.0016 22.0744
  L 12.0617 22.0256
  A 0.92 0.92 0.0 0 0 11.1401 22.9440
  L 11.1400 23.0040
  A 0.92 0.92 0.0 0 0 12.0584 23.9256
  L 39.9983 23.9744
  A 0.92 0.92 0.0 0 0 40.9199 23.0560
  L 40.9200 22.9960
  Z
  M 29.95 28.51
  C 28.27 28.96 26.71 27.98 24.93 28.03
  Q 18.16 28.24 11.82 28.05
  A 0.64 0.64 0.0 0 0 11.16 28.72
  L 11.18 29.01
  Q 11.23 29.88 12.10 29.86
  Q 19.37 29.74 26.09 29.83
  C 27.42 29.85 28.46 29.02 29.73 29.50
  C 31.85 30.31 34.53 29.97 36.79 29.93
  Q 37.73 29.92 37.99 29.07
  A 0.64 0.64 0.0 0 0 37.50 28.26
  Q 33.59 27.53 29.95 28.51
  Z
  M 34.9899 34.9792
  A 0.92 0.92 0.0 0 0 34.0683 34.0608
  L 12.0284 34.0992
  A 0.92 0.92 0.0 0 0 11.1100 35.0208
  L 11.1101 35.0608
  A 0.92 0.92 0.0 0 0 12.0317 35.9792
  L 34.0716 35.9408
  A 0.92 0.92 0.0 0 0 34.9900 35.0192
  L 34.9899 34.9792
  Z
  M 19.81 40.72
  Q 16.22 39.68 11.65 40.19
  Q 11.18 40.24 11.16 40.72
  L 11.14 41.13
  A 0.67 0.67 0.0 0 0 11.76 41.82
  Q 16.10 42.16 19.77 41.25
  Q 20.27 41.13 20.72 41.38
  Q 21.47 41.80 22.33 41.83
  Q 27.38 42.02 33.03 41.93
  Q 33.93 41.91 33.94 41.01
  L 33.94 40.68
  Q 33.94 40.15 33.41 40.13
  Q 28.02 39.95 22.53 40.06
  Q 21.56 40.08 20.68 40.61
  A 1.12 1.11 37.5 0 1 19.81 40.72
  Z
  M 28.9001 46.9910
  A 0.93 0.93 0.0 0 0 27.9733 46.0578
  L 12.0734 46.0023
  A 0.93 0.93 0.0 0 0 11.1402 46.9290
  L 11.1399 46.9890
  A 0.93 0.93 0.0 0 0 12.0667 47.9222
  L 27.9666 47.9777
  A 0.93 0.93 0.0 0 0 28.8998 47.0510
  L 28.9001 46.9910
  Z"
/>
<path fill="#bdbab4" d="
  M 42.34 10.07
  L 39.60 9.93
  A 0.54 0.54 0.0 0 1 39.09 9.42
  L 38.95 6.67
  A 0.54 0.54 0.0 0 1 39.87 6.26
  L 42.75 9.15
  A 0.54 0.54 0.0 0 1 42.34 10.07
  Z"
/>
<rect fill="#000000" x="-10.99" y="-0.90" transform="translate(22.03,11.01) rotate(-0.3)" width="21.98" height="1.80" rx="0.87"/>
<path fill="#000000" d="
  M 19.53 16.60
  C 20.67 16.87 21.47 16.07 22.66 16.06
  Q 31.88 15.92 40.49 16.16
  A 0.49 0.49 0.0 0 1 40.96 16.73
  L 40.89 17.10
  Q 40.73 18.04 39.77 18.01
  Q 31.24 17.77 23.02 17.86
  C 21.81 17.87 20.63 17.21 19.51 17.42
  Q 15.73 18.14 11.90 17.76
  Q 11.38 17.71 11.25 17.20
  Q 11.20 16.99 11.22 16.79
  Q 11.29 16.26 11.82 16.20
  Q 15.97 15.75 19.53 16.60
  Z"
/>
<rect fill="#000000" x="-14.89" y="-0.95" transform="translate(26.03,23.00) rotate(0.1)" width="29.78" height="1.90" rx="0.92"/>
<path fill="#000000" d="
  M 29.95 28.51
  Q 33.59 27.53 37.50 28.26
  A 0.64 0.64 0.0 0 1 37.99 29.07
  Q 37.73 29.92 36.79 29.93
  C 34.53 29.97 31.85 30.31 29.73 29.50
  C 28.46 29.02 27.42 29.85 26.09 29.83
  Q 19.37 29.74 12.10 29.86
  Q 11.23 29.88 11.18 29.01
  L 11.16 28.72
  A 0.64 0.64 0.0 0 1 11.82 28.05
  Q 18.16 28.24 24.93 28.03
  C 26.71 27.98 28.27 28.96 29.95 28.51
  Z"
/>
<path fill="#000000" d="
  M 45.99 28.07
  Q 54.58 27.58 57.76 34.11
  C 60.20 39.15 58.81 44.51 54.39 47.87
  Q 50.48 50.85 45.60 49.44
  Q 42.79 52.05 39.64 53.28
  Q 39.16 53.47 39.01 53.96
  Q 38.74 54.84 39.46 55.09
  L 36.65 56.23
  Q 36.17 56.42 36.02 56.91
  L 35.65 58.14
  Q 35.46 58.73 34.84 58.81
  Q 34.28 58.88 33.78 59.14
  A 1.28 1.27 86.4 0 0 33.16 59.85
  L 32.60 61.45
  Q 32.40 62.01 31.80 62.01
  L 26.40 61.98
  A 1.43 1.43 0.0 0 1 24.98 60.62
  L 24.70 54.92
  L 36.68 42.94
  A 1.79 1.78 64.3 0 0 37.19 41.47
  Q 35.95 31.06 45.99 28.07
  Z
  M 38.24 51.12
  C 41.37 51.08 42.07 49.24 44.05 47.72
  Q 44.43 47.42 44.91 47.51
  Q 53.63 49.22 56.48 42.02
  Q 58.45 37.04 54.39 32.72
  C 51.67 29.95 47.50 29.13 44.05 30.93
  Q 37.87 34.16 39.44 41.83
  A 1.79 1.79 0.0 0 1 38.95 43.45
  Q 33.49 48.88 28.40 53.96
  Q 26.37 55.99 27.02 59.03
  Q 27.15 59.65 27.75 59.83
  Q 28.99 60.19 30.14 59.87
  Q 30.90 59.66 30.99 58.88
  Q 31.20 57.15 32.95 56.94
  A 1.25 1.24 86.4 0 0 34.05 55.69
  Q 34.04 53.84 36.05 53.87
  A 0.61 0.60 -79.1 0 0 36.63 53.47
  Q 37.47 51.12 38.24 51.12
  Z"
/>
<path fill="#ffb64a" d="
  M 54.39 32.72
  Q 53.55 33.65 52.73 34.06
  C 48.38 30.84 43.81 36.06 47.21 39.96
  Q 44.44 42.65 41.44 45.18
  C 39.89 46.49 37.62 48.88 38.24 51.12
  Q 37.47 51.12 36.63 53.47
  A 0.61 0.60 -79.1 0 1 36.05 53.87
  Q 34.04 53.84 34.05 55.69
  A 1.25 1.24 86.4 0 1 32.95 56.94
  Q 31.20 57.15 30.99 58.88
  Q 30.90 59.66 30.14 59.87
  Q 28.99 60.19 27.75 59.83
  Q 27.15 59.65 27.02 59.03
  Q 26.37 55.99 28.40 53.96
  Q 33.49 48.88 38.95 43.45
  A 1.79 1.79 0.0 0 0 39.44 41.83
  Q 37.87 34.16 44.05 30.93
  C 47.50 29.13 51.67 29.95 54.39 32.72
  Z"
/>
<path fill="#ffa727" d="
  M 54.39 32.72
  Q 58.45 37.04 56.48 42.02
  Q 53.63 49.22 44.91 47.51
  Q 44.43 47.42 44.05 47.72
  C 42.07 49.24 41.37 51.08 38.24 51.12
  C 37.62 48.88 39.89 46.49 41.44 45.18
  Q 44.44 42.65 47.21 39.96
  C 51.67 43.06 56.27 37.96 52.73 34.06
  Q 53.55 33.65 54.39 32.72
  Z"
/>
<path fill="#000000" d="
  M 52.73 34.06
  C 56.27 37.96 51.67 43.06 47.21 39.96
  C 43.81 36.06 48.38 30.84 52.73 34.06
  Z
  M 51.97 36.99
  A 1.96 1.96 0.0 0 0 50.01 35.03
  A 1.96 1.96 0.0 0 0 48.05 36.99
  A 1.96 1.96 0.0 0 0 50.01 38.95
  A 1.96 1.96 0.0 0 0 51.97 36.99
  Z"
/>
<rect fill="#000000" x="-11.94" y="-0.94" transform="translate(23.05,35.02) rotate(-0.1)" width="23.88" height="1.88" rx="0.92"/>
<circle fill="#eeeeee" cx="50.01" cy="36.99" r="1.96"/>
<path fill="#000000" d="
  M 20.68 40.61
  Q 21.56 40.08 22.53 40.06
  Q 28.02 39.95 33.41 40.13
  Q 33.94 40.15 33.94 40.68
  L 33.94 41.01
  Q 33.93 41.91 33.03 41.93
  Q 27.38 42.02 22.33 41.83
  Q 21.47 41.80 20.72 41.38
  Q 20.27 41.13 19.77 41.25
  Q 16.10 42.16 11.76 41.82
  A 0.67 0.67 0.0 0 1 11.14 41.13
  L 11.16 40.72
  Q 11.18 40.24 11.65 40.19
  Q 16.22 39.68 19.81 40.72
  A 1.12 1.11 37.5 0 0 20.68 40.61
  Z"
/>
<rect fill="#000000" x="-8.88" y="-0.96" transform="translate(20.02,46.99) rotate(0.2)" width="17.76" height="1.92" rx="0.93"/>
<path fill="#eeeeee" d="
  M 45.60 49.44
  Q 46.84 52.89 44.07 54.48
  C 42.69 55.27 41.07 54.96 39.46 55.09
  Q 38.74 54.84 39.01 53.96
  Q 39.16 53.47 39.64 53.28
  Q 42.79 52.05 45.60 49.44
  Z"
/>
</svg>
