<?xml version="1.0" encoding="utf-8"?>
<!-- Generator: Adobe Illustrator 23.0.4, SVG Export Plug-In . SVG Version: 6.00 Build 0)  -->
<svg version="1.1" id="Layer_1" xmlns="http://www.w3.org/2000/svg" xmlns:xlink="http://www.w3.org/1999/xlink" x="0px" y="0px"
	 width="20px" height="20px" viewBox="0 0 20 20" style="enable-background:new 0 0 20 20;" xml:space="preserve">
<style type="text/css">
	.st0{fill:#FFFFFF;}
	.st1{fill:#768591;}
	.st2{fill:#196A24;}
</style>
<rect x="2.9" y="11.9" transform="matrix(0.7072 -0.707 0.707 0.7072 -8.7243 8.3253)" class="st0" width="5.6" height="5.6"/>
<path class="st1" d="M5.7,19.9c-0.1,0-0.3-0.1-0.4-0.1L0.6,15c-0.2-0.2-0.2-0.5,0-0.7l4.7-4.7c0.2-0.2,0.5-0.2,0.7,0l4.7,4.7
	c0.1,0.1,0.1,0.2,0.1,0.4S10.8,15,10.7,15L6,19.7C5.9,19.8,5.8,19.9,5.7,19.9z M1.7,14.7l4,4l4-4l-4-4L1.7,14.7z"/>
<rect x="2.9" y="1.2" class="st0" width="5.6" height="5.6"/>
<path class="st2" d="M18.6,3.5h-6.1C12.3,3.5,12,3.7,12,4s0.2,0.5,0.5,0.5h5.6v9.7h-0.7v0h-3.6l1.1-1.1c0.2-0.2,0.2-0.6,0.1-0.8
	c-0.2-0.1-0.6-0.1-0.8,0l-2,2c0,0-0.1,0.1-0.1,0.2c0,0.1,0,0.3,0,0.4c0,0.1,0.1,0.1,0.1,0.2l2,2c0.2,0.1,0.6,0.1,0.8,0
	c0.1-0.2,0.1-0.6,0-0.8l-1.2-1.1h4.8c0.3,0,0.5-0.2,0.5-0.5V4C19.1,3.7,18.9,3.5,18.6,3.5z"/>
<path class="st1" d="M9,7.8H2.4c-0.3,0-0.5-0.2-0.5-0.5V0.7c0-0.3,0.2-0.5,0.5-0.5H9c0.3,0,0.5,0.2,0.5,0.5v6.6
	C9.5,7.6,9.3,7.8,9,7.8z M2.9,6.8h5.6V1.2H2.9V6.8z"/>
</svg>
