<?xml version="1.0" encoding="utf-8"?>
<!-- Generator: Adobe Illustrator 23.0.3, SVG Export Plug-In . SVG Version: 6.00 Build 0)  -->
<svg version="1.1" id="Layer_1" xmlns="http://www.w3.org/2000/svg" xmlns:xlink="http://www.w3.org/1999/xlink" x="0px" y="0px"
	 width="20px" height="20px" viewBox="0 0 20 20" style="enable-background:new 0 0 20 20;" xml:space="preserve">
<style type="text/css">
	.st0{fill:#FFFFFF;}
	.st1{fill:#768591;}
	.st2{fill:#5E548B;}
</style>
<polygon class="st0" points="12.9,6 16.2,6 13,2.7 "/>
<g>
	<path class="st0" d="M9.7,6.7c-0.1,0-0.1,0.1-0.2,0.2C9.4,7.1,8,10.8,7.9,11.2h3.3C11,10.8,9.9,7.1,9.8,6.9
		C9.8,6.8,9.7,6.7,9.7,6.7z"/>
	<path class="st0" d="M12,7V2H3v16.9V19h14V7H12z M15.5,15.8c0,0.1,0,0.1-0.1,0.1c-0.3,0-0.6,0-1.8,0c-1.2,0-1.7,0-2.1,0
		c-0.1,0-0.1,0-0.1-0.1v-0.3c0-0.1,0-0.1,0.1-0.1h0.4c0.4,0,0.5-0.1,0.4-0.6c-0.1-0.5-0.7-2.4-0.9-3l-3.7-0.1
		c-0.1,0.4-0.9,2.6-1,2.9c0,0.1,0,0.2,0,0.3c0,0.2,0.2,0.3,0.5,0.3h0.7c0.1,0,0.1,0,0.1,0.1v0.3c0,0.1,0,0.1-0.1,0.1
		c-0.2,0-0.8,0-1.7,0c-1.1,0-1.4,0-1.6,0c-0.1,0-0.1,0-0.1-0.1v-0.3c0-0.1,0.1-0.1,0.1-0.1h0.5c0.4,0,0.6-0.2,0.8-0.7
		c0.1-0.2,1.2-2.9,1.6-4.1C7.7,10.2,8.9,7,9,6.6c0-0.1,0.1-0.3,0-0.5c0,0-0.1-0.1-0.1-0.2c0,0,0-0.1,0.1-0.1
		c0.4-0.1,1.1-0.5,1.2-0.7C10.3,5,10.4,5,10.5,5s0.1,0.1,0.2,0.2c0.3,0.9,1.4,4.2,1.7,5.1c0.3,1.1,1.3,3.9,1.5,4.3
		c0.2,0.5,0.6,0.7,1,0.7h0.5c0.1,0,0.1,0,0.1,0.1V15.8z"/>
</g>
<path class="st1" d="M17.9,6.9V6.2L12.7,1H12l0,0l0,0l0,0H2v19h16L17.9,6.9L17.9,6.9L17.9,6.9z M13,2.7L16.2,6h-3.3L13,2.7L13,2.7z
	 M3,18.9V2h9v5h5v12H3V18.9z"/>
<g>
	<path class="st2" d="M7.7,11.7c-0.1,0.4-0.9,2.6-1,2.9c0,0.1,0,0.2,0,0.3c0,0.2,0.2,0.3,0.5,0.3h0.7c0.1,0,0.1,0,0.1,0.1v0.3
		c0,0.1,0,0.1-0.1,0.1c-0.2,0-0.8,0-1.7,0c-1.1,0-1.4,0-1.6,0c-0.1,0-0.1,0-0.1-0.1v-0.3c0-0.1,0.1-0.1,0.1-0.1h0.5
		c0.4,0,0.6-0.2,0.8-0.7c0.1-0.2,1.2-2.9,1.6-4.1C7.7,10.2,8.9,7,9,6.6c0-0.1,0.1-0.3,0-0.5c0,0-0.1-0.1-0.1-0.2c0,0,0-0.1,0.1-0.1
		c0.4-0.1,1.1-0.5,1.2-0.7C10.3,5,10.4,5,10.5,5s0.1,0.1,0.2,0.2c0.3,0.9,1.4,4.2,1.7,5.1c0.3,1.1,1.3,3.9,1.5,4.3
		c0.2,0.5,0.6,0.7,1,0.7h0.5c0.1,0,0.1,0,0.1,0.1v0.4c0,0.1,0,0.1-0.1,0.1c-0.3,0-0.6,0-1.8,0s-1.7,0-2.1,0c-0.1,0-0.1,0-0.1-0.1
		v-0.3c0-0.1,0-0.1,0.1-0.1h0.4c0.4,0,0.5-0.1,0.4-0.6s-0.7-2.4-0.9-3L7.7,11.7L7.7,11.7z M11.2,11.2C11,10.8,9.9,7.1,9.8,6.9
		c0-0.1-0.1-0.2-0.1-0.2c-0.1,0-0.1,0.1-0.2,0.2C9.4,7.1,8,10.8,7.9,11.2H11.2z"/>
</g>
</svg>
