<?xml version="1.0" encoding="UTF-8"?>
<!DOCTYPE svg PUBLIC "-//W3C//DTD SVG 1.1//EN" "http://www.w3.org/Graphics/SVG/1.1/DTD/svg11.dtd">
<svg xmlns="http://www.w3.org/2000/svg" version="1.1" width="96px" height="96px" style="shape-rendering:geometricPrecision; text-rendering:geometricPrecision; image-rendering:optimizeQuality; fill-rule:evenodd; clip-rule:evenodd" xmlns:xlink="http://www.w3.org/1999/xlink">
<g><path style="opacity:1" fill="#1796dc" d="M 19.5,11.5 C 24.8333,11.5 30.1667,11.5 35.5,11.5C 35.5,14.1667 35.5,16.8333 35.5,19.5C 30.1667,19.5 24.8333,19.5 19.5,19.5C 19.5,16.8333 19.5,14.1667 19.5,11.5 Z"/></g>
<g><path style="opacity:1" fill="#1692d8" d="M 75.5,11.5 C 75.5,14.1667 75.5,16.8333 75.5,19.5C 70.1667,19.5 64.8333,19.5 59.5,19.5C 59.5,16.8333 59.5,14.1667 59.5,11.5C 64.8333,11.5 70.1667,11.5 75.5,11.5 Z"/></g>
<g><path style="opacity:1" fill="#29b0ea" d="M 19.5,11.5 C 19.5,14.1667 19.5,16.8333 19.5,19.5C 19.5,24.8333 19.5,30.1667 19.5,35.5C 16.8333,35.5 14.1667,35.5 11.5,35.5C 11.3339,29.8236 11.5006,24.1569 12,18.5C 14.3697,15.9614 16.8697,13.6281 19.5,11.5 Z"/></g>
<g><path style="opacity:1" fill="#29b1ea" d="M 75.5,11.5 C 78.1303,13.6281 80.6303,15.9614 83,18.5C 83.4994,24.1569 83.6661,29.8236 83.5,35.5C 80.8333,35.5 78.1667,35.5 75.5,35.5C 75.5,30.1667 75.5,24.8333 75.5,19.5C 75.5,16.8333 75.5,14.1667 75.5,11.5 Z"/></g>
<g><path style="opacity:0.924" fill="#0177d3" d="M 42.5,29.5 C 46.1667,29.5 49.8333,29.5 53.5,29.5C 57.1667,40.8333 60.8333,52.1667 64.5,63.5C 61.4816,63.6646 58.4816,63.498 55.5,63C 54.3313,60.9935 53.6646,58.8268 53.5,56.5C 49.5,56.5 45.5,56.5 41.5,56.5C 40.9,63.4128 37.2334,65.4128 30.5,62.5C 34.5086,51.4716 38.5086,40.4716 42.5,29.5 Z M 46.5,39.5 C 48.7851,42.335 50.1184,45.6684 50.5,49.5C 48.5,49.5 46.5,49.5 44.5,49.5C 44.9595,46.1226 45.6261,42.7893 46.5,39.5 Z"/></g>
<g><path style="opacity:1" fill="#29b0e9" d="M 19.5,75.5 C 19.5,78.1667 19.5,80.8333 19.5,83.5C 16.8697,81.3719 14.3697,79.0386 12,76.5C 11.5006,70.8431 11.3339,65.1764 11.5,59.5C 14.1667,59.5 16.8333,59.5 19.5,59.5C 19.5,64.8333 19.5,70.1667 19.5,75.5 Z"/></g>
<g><path style="opacity:1" fill="#29b1ea" d="M 75.5,83.5 C 75.5,80.8333 75.5,78.1667 75.5,75.5C 75.5,70.1667 75.5,64.8333 75.5,59.5C 78.1667,59.5 80.8333,59.5 83.5,59.5C 83.6661,65.1764 83.4994,70.8431 83,76.5C 80.6303,79.0386 78.1303,81.3719 75.5,83.5 Z"/></g>
<g><path style="opacity:1" fill="#1796dc" d="M 19.5,75.5 C 24.8333,75.5 30.1667,75.5 35.5,75.5C 35.5,78.1667 35.5,80.8333 35.5,83.5C 30.1667,83.5 24.8333,83.5 19.5,83.5C 19.5,80.8333 19.5,78.1667 19.5,75.5 Z"/></g>
<g><path style="opacity:1" fill="#1692d8" d="M 75.5,75.5 C 75.5,78.1667 75.5,80.8333 75.5,83.5C 70.1667,83.5 64.8333,83.5 59.5,83.5C 59.5,80.8333 59.5,78.1667 59.5,75.5C 64.8333,75.5 70.1667,75.5 75.5,75.5 Z"/></g>
</svg>
