<?xml version="1.0" encoding="utf-8"?>
<!-- Generator: Adobe Illustrator 23.0.3, SVG Export Plug-In . SVG Version: 6.00 Build 0)  -->
<svg version="1.1" id="Layer_1" xmlns="http://www.w3.org/2000/svg" xmlns:xlink="http://www.w3.org/1999/xlink" x="0px" y="0px"
	 width="20px" height="20px" viewBox="0 0 20 20" style="enable-background:new 0 0 20 20;" xml:space="preserve">
<style type="text/css">
	.st0{fill:#196A24;}
</style>
<path class="st0" d="M19.4,10.1l-6-6c-0.2-0.2-0.5-0.2-0.7,0c-0.2,0.2-0.2,0.5,0,0.7l5.1,5.1H1.5C1.2,10,1,10.2,1,10.5
	S1.2,11,1.5,11h16.3l-5.1,5.1c-0.2,0.2-0.2,0.5,0,0.7c0,0.2,0.2,0.2,0.3,0.2s0.3,0,0.4-0.1l6-6C19.5,10.7,19.5,10.3,19.4,10.1
	L19.4,10.1z"/>
</svg>
