<?xml version="1.0" encoding="UTF-8" standalone="no"?>
<!DOCTYPE svg PUBLIC "-//W3C//DTD SVG 1.1//EN" "http://www.w3.org/Graphics/SVG/1.1/DTD/svg11.dtd">
<svg xmlns="http://www.w3.org/2000/svg" version="1.1" viewBox="0.00 0.00 58.00 58.00">
<g stroke-width="2.00" fill="none" stroke-linecap="butt">
<path stroke="#5a85b6" vector-effect="non-scaling-stroke" d="
  M 21.55 4.05
  L 21.63 8.06"
/>
<path stroke="#bbdeff" vector-effect="non-scaling-stroke" d="
  M 21.63 8.06
  L 21.54 11.19
  A 1.10 1.10 0.0 0 1 20.44 12.26
  L 18.56 12.27
  Q 17.55 12.27 17.55 11.26
  L 17.57 8.02"
/>
<path stroke="#5a85b6" vector-effect="non-scaling-stroke" d="
  M 17.57 8.02
  L 17.58 4.07"
/>
<path stroke="#5a85b6" vector-effect="non-scaling-stroke" d="
  M 31.05 4.06
  L 31.10 7.99"
/>
<path stroke="#bbdeff" vector-effect="non-scaling-stroke" d="
  M 31.10 7.99
  L 30.92 11.53
  Q 30.89 12.25 30.16 12.25
  L 27.78 12.26
  Q 27.01 12.26 26.99 11.49
  L 26.91 8.01"
/>
<path stroke="#5a85b6" vector-effect="non-scaling-stroke" d="
  M 26.91 8.01
  L 26.95 4.04"
/>
<path stroke="#5a85b6" vector-effect="non-scaling-stroke" d="
  M 40.44 4.05
  L 40.56 8.12"
/>
<path stroke="#bbdeff" vector-effect="non-scaling-stroke" d="
  M 40.56 8.12
  Q 40.26 9.24 40.45 10.94
  A 1.18 1.18 0.0 0 1 39.29 12.25
  L 37.54 12.26
  Q 36.50 12.27 36.46 11.23
  L 36.36 8.06"
/>
<path stroke="#5a85b6" vector-effect="non-scaling-stroke" d="
  M 36.36 8.06
  L 36.39 4.00"
/>
<path stroke="#9fa6b6" vector-effect="non-scaling-stroke" d="
  M 17.57 8.02
  L 12.29 8.09
  A 0.41 0.41 0.0 0 0 11.89 8.50
  L 11.91 53.73
  A 0.32 0.32 0.0 0 0 12.23 54.05
  L 45.53 54.08
  A 0.60 0.60 0.0 0 0 46.13 53.47
  L 46.08 8.70
  Q 46.08 8.15 45.53 8.15
  L 40.56 8.12"
/>
<path stroke="#9fa6b6" vector-effect="non-scaling-stroke" d="
  M 26.91 8.01
  L 21.63 8.06"
/>
<path stroke="#9fa6b6" vector-effect="non-scaling-stroke" d="
  M 36.36 8.06
  L 31.10 7.99"
/>
<path stroke="#9fa6b6" vector-effect="non-scaling-stroke" d="
  M 42.49 16.52
  A 0.49 0.49 0.0 0 0 42.00 16.03
  L 16.20 16.03
  A 0.49 0.49 0.0 0 0 15.71 16.52
  L 15.71 19.50
  A 0.49 0.49 0.0 0 0 16.20 19.99
  L 42.00 19.99
  A 0.49 0.49 0.0 0 0 42.49 19.50
  L 42.49 16.52"
/>
<path stroke="#9fa6b6" vector-effect="non-scaling-stroke" d="
  M 42.48 24.12
  A 0.47 0.47 0.0 0 0 42.01 23.65
  L 16.19 23.65
  A 0.47 0.47 0.0 0 0 15.72 24.12
  L 15.72 27.16
  A 0.47 0.47 0.0 0 0 16.19 27.63
  L 42.01 27.63
  A 0.47 0.47 0.0 0 0 42.48 27.16
  L 42.48 24.12"
/>
<path stroke="#9fa6b6" vector-effect="non-scaling-stroke" d="
  M 42.49 31.78
  A 0.52 0.52 0.0 0 0 41.97 31.26
  L 16.09 31.26
  A 0.52 0.52 0.0 0 0 15.57 31.78
  L 15.57 34.72
  A 0.52 0.52 0.0 0 0 16.09 35.24
  L 41.97 35.24
  A 0.52 0.52 0.0 0 0 42.49 34.72
  L 42.49 31.78"
/>
<path stroke="#9fa6b6" vector-effect="non-scaling-stroke" d="
  M 42.50 39.44
  A 0.49 0.49 0.0 0 0 42.01 38.95
  L 16.07 38.95
  A 0.49 0.49 0.0 0 0 15.58 39.44
  L 15.58 42.36
  A 0.49 0.49 0.0 0 0 16.07 42.85
  L 42.01 42.85
  A 0.49 0.49 0.0 0 0 42.50 42.36
  L 42.50 39.44"
/>
<path stroke="#eef7ff" vector-effect="non-scaling-stroke" d="
  M 42.46 47.86
  A 1.30 1.30 0.0 0 0 41.16 46.56
  L 16.78 46.56
  A 1.30 1.30 0.0 0 0 15.48 47.86
  L 15.48 49.20
  A 1.30 1.30 0.0 0 0 16.78 50.50
  L 41.16 50.50
  A 1.30 1.30 0.0 0 0 42.46 49.20
  L 42.46 47.86"
/>
</g>
<path fill="#76bdff" d="
  M 17.70 0.00
  L 21.55 0.00
  L 21.55 4.05
  L 21.63 8.06
  L 21.54 11.19
  A 1.10 1.10 0.0 0 1 20.44 12.26
  L 18.56 12.27
  Q 17.55 12.27 17.55 11.26
  L 17.57 8.02
  L 17.58 4.07
  L 17.70 0.00
  Z"
/>
<path fill="#76bdff" d="
  M 27.23 0.00
  L 30.99 0.00
  L 31.05 4.06
  L 31.10 7.99
  L 30.92 11.53
  Q 30.89 12.25 30.16 12.25
  L 27.78 12.26
  Q 27.01 12.26 26.99 11.49
  L 26.91 8.01
  L 26.95 4.04
  L 27.23 0.00
  Z"
/>
<path fill="#76bdff" d="
  M 36.52 0.00
  L 40.38 0.00
  L 40.44 4.05
  L 40.56 8.12
  Q 40.26 9.24 40.45 10.94
  A 1.18 1.18 0.0 0 1 39.29 12.25
  L 37.54 12.26
  Q 36.50 12.27 36.46 11.23
  L 36.36 8.06
  L 36.39 4.00
  L 36.52 0.00
  Z"
/>
<path fill="#3e4d6d" d="
  M 17.58 4.07
  L 17.57 8.02
  L 12.29 8.09
  A 0.41 0.41 0.0 0 0 11.89 8.50
  L 11.91 53.73
  A 0.32 0.32 0.0 0 0 12.23 54.05
  L 45.53 54.08
  A 0.60 0.60 0.0 0 0 46.13 53.47
  L 46.08 8.70
  Q 46.08 8.15 45.53 8.15
  L 40.56 8.12
  L 40.44 4.05
  C 44.57 4.10 50.03 2.65 50.03 8.87
  Q 50.05 31.94 50.03 55.00
  Q 50.03 56.86 47.13 58.00
  L 10.78 58.00
  Q 7.96 56.78 7.96 54.25
  Q 7.97 30.71 7.96 7.67
  A 3.53 3.53 0.0 0 1 11.46 4.14
  L 17.58 4.07
  Z"
/>
<path fill="#3e4d6d" d="
  M 21.55 4.05
  L 26.95 4.04
  L 26.91 8.01
  L 21.63 8.06
  L 21.55 4.05
  Z"
/>
<path fill="#3e4d6d" d="
  M 31.05 4.06
  L 36.39 4.00
  L 36.36 8.06
  L 31.10 7.99
  L 31.05 4.06
  Z"
/>
<path fill="#ffffff" d="
  M 17.57 8.02
  L 17.55 11.26
  Q 17.55 12.27 18.56 12.27
  L 20.44 12.26
  A 1.10 1.10 0.0 0 0 21.54 11.19
  L 21.63 8.06
  L 26.91 8.01
  L 26.99 11.49
  Q 27.01 12.26 27.78 12.26
  L 30.16 12.25
  Q 30.89 12.25 30.92 11.53
  L 31.10 7.99
  L 36.36 8.06
  L 36.46 11.23
  Q 36.50 12.27 37.54 12.26
  L 39.29 12.25
  A 1.18 1.18 0.0 0 0 40.45 10.94
  Q 40.26 9.24 40.56 8.12
  L 45.53 8.15
  Q 46.08 8.15 46.08 8.70
  L 46.13 53.47
  A 0.60 0.60 0.0 0 1 45.53 54.08
  L 12.23 54.05
  A 0.32 0.32 0.0 0 1 11.91 53.73
  L 11.89 8.50
  A 0.41 0.41 0.0 0 1 12.29 8.09
  L 17.57 8.02
  Z
  M 42.49 16.52
  A 0.49 0.49 0.0 0 0 42.00 16.03
  L 16.20 16.03
  A 0.49 0.49 0.0 0 0 15.71 16.52
  L 15.71 19.50
  A 0.49 0.49 0.0 0 0 16.20 19.99
  L 42.00 19.99
  A 0.49 0.49 0.0 0 0 42.49 19.50
  L 42.49 16.52
  Z
  M 42.48 24.12
  A 0.47 0.47 0.0 0 0 42.01 23.65
  L 16.19 23.65
  A 0.47 0.47 0.0 0 0 15.72 24.12
  L 15.72 27.16
  A 0.47 0.47 0.0 0 0 16.19 27.63
  L 42.01 27.63
  A 0.47 0.47 0.0 0 0 42.48 27.16
  L 42.48 24.12
  Z
  M 42.49 31.78
  A 0.52 0.52 0.0 0 0 41.97 31.26
  L 16.09 31.26
  A 0.52 0.52 0.0 0 0 15.57 31.78
  L 15.57 34.72
  A 0.52 0.52 0.0 0 0 16.09 35.24
  L 41.97 35.24
  A 0.52 0.52 0.0 0 0 42.49 34.72
  L 42.49 31.78
  Z
  M 42.50 39.44
  A 0.49 0.49 0.0 0 0 42.01 38.95
  L 16.07 38.95
  A 0.49 0.49 0.0 0 0 15.58 39.44
  L 15.58 42.36
  A 0.49 0.49 0.0 0 0 16.07 42.85
  L 42.01 42.85
  A 0.49 0.49 0.0 0 0 42.50 42.36
  L 42.50 39.44
  Z
  M 42.46 47.86
  A 1.30 1.30 0.0 0 0 41.16 46.56
  L 16.78 46.56
  A 1.30 1.30 0.0 0 0 15.48 47.86
  L 15.48 49.20
  A 1.30 1.30 0.0 0 0 16.78 50.50
  L 41.16 50.50
  A 1.30 1.30 0.0 0 0 42.46 49.20
  L 42.46 47.86
  Z"
/>
<rect fill="#3e4d6d" x="15.71" y="16.03" width="26.78" height="3.96" rx="0.49"/>
<rect fill="#3e4d6d" x="15.72" y="23.65" width="26.76" height="3.98" rx="0.47"/>
<rect fill="#3e4d6d" x="15.57" y="31.26" width="26.92" height="3.98" rx="0.52"/>
<rect fill="#3e4d6d" x="15.58" y="38.95" width="26.92" height="3.90" rx="0.49"/>
<rect fill="#ddeeff" x="15.48" y="46.56" width="26.98" height="3.94" rx="1.30"/>
</svg>
