<?xml version="1.0" encoding="UTF-8"?>
<svg version="1.1" viewBox="0 0 1600 1424" width="1280" height="1280" xmlns="http://www.w3.org/2000/svg">
<path transform="translate(297,693)" d="m0 0c0.21 0.84 0.42 1.68 0.636 2.55 5.16 20.6 10.7 41 16.6 61.4 0.378 1.31 0.378 1.31 0.764 2.65 0.251 0.87 0.502 1.74 0.761 2.64 3.03 10.5 5.95 21.1 8.85 31.7 0.377 1.37 0.754 2.73 1.13 4.1 0.181 0.657 0.361 1.31 0.547 1.99 0.991 3.58 2.02 7.14 3.1 10.7 0.348 1.15 0.348 1.15 0.702 2.32 0.446 1.47 0.898 2.94 1.36 4.4 1.11 3.65 1.81 6.83 1.55 10.6-6.67 2.82-13.4 5.15-20.3 7.35-54.4 17.4-100 49.7-131 98.7-0.404 0.651-0.807 1.3-1.22 1.97-24.8 40.3-39 88.5-33.8 136 0.092 0.87 0.184 1.74 0.279 2.64 3.06 27.5 10.6 53 23.7 77.4 0.614 1.16 1.23 2.31 1.86 3.5 9.27 16.9 21.1 32 34 46.2 1.86 2.05 3.64 4.15 5.42 6.27 30.8 35.2 77.8 56.9 123 67.1 0.892 0.213 1.78 0.426 2.7 0.646 31.8 7.35 67.7 5.48 99.3-1.65 1.93-0.401 3.85-0.801 5.78-1.2 41.3-8.87 78.5-30 109-58.8 0.526-0.492 1.05-0.984 1.59-1.49 13.7-12.9 24.7-27.5 34.4-43.5 0.597-0.966 0.597-0.966 1.21-1.95 33-53.6 36.8-109 26.1-170-0.248-1.42-0.248-1.42-0.501-2.88-0.223-1.25-0.223-1.25-0.45-2.53-0.361-2.87-0.34-5.65-0.32-8.54 15.6 0.255 31.1 0.513 46.7 0.774 3.38 0.0565 6.75 0.113 10.1 0.169 58.2 0.968 58.2 0.968 85 1.57 1.87 0.0413 3.74 0.0825 5.6 0.124 0.923 0.0203 1.85 0.0407 2.8 0.0617 37.3 0.822 74.6 1.42 112 1.84 0.982 0.0111 1.96 0.0222 2.97 0.0336 20.9 0.236 41.9 0.461 62.8 0.675 3.82 0.039 7.63 0.0785 11.4 0.119 0.931 0.00976 1.86 0.0195 2.82 0.0296 1.86 0.0195 3.72 0.0391 5.59 0.0587 5.45 0.0568 10.9 0.11 16.3 0.16 15.8 0.147 31.5 0.318 47.2 0.881 1.69 0.0562 1.69 0.0562 3.41 0.114 4.94 0.166 9.88 0.358 14.8 0.614 1.63 0.0614 3.27 0.122 4.9 0.181 0.713 0.0499 1.43 0.0997 2.16 0.151 2.2 0.127 2.2 0.127 5.28-0.551 2.48-2.79 2.48-2.79 4-6 0.362-0.669 0.724-1.34 1.1-2.03 0.318-0.63 0.637-1.26 0.965-1.91 15-27.3 39.7-47.9 66.9-62.1 0.922-0.481 0.922-0.481 1.86-0.973 38.1-19.6 84.2-22.2 125-9.76 6.3 2.08 12.3 4.8 18.2 7.73 0.763 0.373 1.53 0.746 2.31 1.13 16.9 8.34 30.6 18.2 44.1 31.3 1.29 1.25 2.6 2.48 3.91 3.71 27.2 25.9 41.7 63.4 43 100 0.363 15.1-0.219 29.7-4.32 44.3-0.182 0.689-0.364 1.38-0.551 2.09-6.11 22.9-17.6 46-34.9 62.4-1.75 1.64-1.75 1.64-3.78 4.38-19.7 24-54.4 38.4-83.8 45.1-1.22 0.299-2.43 0.598-3.69 0.906-41.6 9.34-88.7-2.16-124-24.2-8.75-5.68-16.4-12.5-23.9-19.7-0.767-0.704-1.53-1.41-2.32-2.13-10.9-10.3-19.1-23-26.7-35.8-0.467-0.772-0.934-1.54-1.41-2.34-0.405-0.689-0.811-1.38-1.23-2.09-2.03-2.38-4.3-2.5-7.33-2.8-0.687-0.0335-1.37-0.067-2.08-0.101-0.783-0.0394-1.57-0.0787-2.37-0.119-0.842-0.0373-1.68-0.0747-2.55-0.113-0.888-0.0415-1.78-0.0831-2.69-0.126-9.59-0.43-19.2-0.656-28.8-0.843-1.46-0.0298-1.46-0.0298-2.95-0.0603-32.3-0.659-64.6-1.06-96.9-1.5-9.69-0.133-19.4-0.268-29.1-0.406-1.45-0.0207-2.9-0.0413-4.35-0.0619-18.9-0.268-37.7-0.607-56.6-1.09-12.9-0.333-25.8-0.506-38.7-0.438-1.78 0.00507-3.57 0.00962-5.35 0.0137-4.17 0.0105-8.35 0.0274-12.5 0.0488-0.24 0.831-0.24 0.831-0.484 1.68-2.15 7.45-4.33 14.9-6.52 22.3-0.389 1.33-0.779 2.66-1.17 3.99-9.98 34-21.8 66.9-40.8 97-0.505 0.805-1.01 1.61-1.53 2.44-6.68 10.6-13.6 20.8-21.5 30.6-0.848 1.11-1.69 2.22-2.54 3.34-7.21 9.48-15.2 18.1-23.5 26.7-0.678 0.7-1.36 1.4-2.06 2.12-7.09 7.3-14.2 14.4-22.2 20.7-2.41 1.93-4.68 3.94-6.96 6.02-4.45 3.98-9.1 7.47-14 10.9-0.862 0.597-1.72 1.19-2.61 1.81-33.6 23-69.5 40.7-108 53.5-0.995 0.328-1.99 0.657-3.02 0.995-75.2 24.3-158 25.5-234 4-1.02-0.291-2.05-0.581-3.11-0.881-45.1-13.1-88.5-34.8-126-63.1-0.788-0.591-0.788-0.591-1.59-1.19-13.6-10.2-25.7-22-37.8-34-0.998-0.989-2-1.98-3-2.96-6.7-6.61-12.8-13.5-18.7-20.9-1-1.21-2-2.41-3.01-3.62-21.9-26.5-39.5-57.5-52-89.4-0.293-0.738-0.587-1.48-0.889-2.24-8.59-21.8-14.8-44.4-19.4-67.3-0.458-2.28-0.93-4.55-1.42-6.82-4.87-23-5.29-45.7-5.27-69.1-0.0023-2.23-0.0184-4.45-0.0426-6.68-0.522-64.1 23.8-132 60-185 0.418-0.608 0.837-1.22 1.27-1.84 8.34-12.1 17.2-23.7 27.2-34.5 1.95-2.11 3.83-4.25 5.7-6.42 4.17-4.78 8.61-9.28 13.1-13.8 0.791-0.803 1.58-1.61 2.4-2.43 4.77-4.79 9.71-9.12 15-13.3 2.86-2.27 5.48-4.7 8.13-7.22 5.71-5.33 11.8-10 18.1-14.6 1.06-0.779 2.11-1.56 3.2-2.36 37.3-27.3 79.1-46.8 124-58.8 2.08-0.56 4.15-1.14 6.22-1.72 0.973-0.276 1.95-0.551 2.95-0.835 0.857-0.246 1.71-0.493 2.6-0.746 2.34-0.531 2.34-0.531 6.34-0.531z" fill="#6e6e6e"/>
<path transform="translate(912 260)" d="m0 0c1.48 1.41 2.96 2.83 4.44 4.25 2.45 2.13 4.91 4.26 7.38 6.37 1.62 1.63 1.62 1.63 1.62 3.63h2c2.59 2.8 4.79 5.94 7.06 9 0.678 0.911 1.36 1.82 2.05 2.76 24.2 33 35.9 73.2 29.8 114-3.8 21.8-11.8 43.6-25.1 61.4-1.99 2.79-1.99 2.79-2.81 5.81 1.25 5.38 3.96 9.5 7 14 1.21 2 2.42 4 3.62 6 0.672 1.07 1.34 2.14 2.04 3.24 2.88 4.6 5.64 9.27 8.4 13.9 0.551 0.934 1.1 1.87 1.67 2.83 4.26 7.24 8.46 14.5 12.6 21.8 6.21 10.8 12.6 21.5 19 32.2 3.38 5.61 6.72 11.2 10.1 16.9 0.518 0.878 1.04 1.76 1.57 2.66 1.08 1.83 2.16 3.66 3.24 5.49 3.33 5.64 6.66 11.3 10 16.9 0.347 0.586 0.694 1.17 1.05 1.77 3.69 6.23 7.39 12.5 11.1 18.7 4.67 7.76 9.23 15.6 13.8 23.4 5.13 8.78 10.3 17.5 15.6 26.2 5.74 9.52 11.3 19.1 16.8 28.8 1.75 3.1 3.54 6.17 5.39 9.2 6.94-0.698 13.4-2.76 20.1-4.69 14.8-4.18 29.7-7.49 44.9-10.3 0.862-0.163 1.72-0.327 2.61-0.495 34.5-6.38 70.6-7.22 105-3.5 1.03 0.107 2.06 0.214 3.12 0.325 39.2 4.16 79.9 12.4 116 29.6 2.69 1.29 5.4 2.54 8.11 3.8 12.4 5.82 24.4 12 36.1 19.3 0.928 0.567 1.86 1.13 2.81 1.72 2.76 1.72 5.48 3.49 8.19 5.28l2.07 1.37c10.5 6.95 20.5 14.2 30.2 22.2 1.74 1.41 3.5 2.77 5.27 4.13 16.5 12.6 32.2 27.3 45.5 43.3 0.755 0.889 1.51 1.78 2.29 2.7 10.8 12.9 20.6 26.2 29.7 40.3 0.687 1.05 1.37 2.11 2.08 3.2 2.04 3.23 4 6.5 5.92 9.8 0.465 0.8 0.93 1.6 1.41 2.42 46.1 80.2 58.8 182 34.7 271-2.9 10.4-6.33 20.5-10.1 30.6-0.361 0.963-0.722 1.93-1.09 2.92-15.5 41-38 80.1-68.2 112-2.04 2.19-4 4.41-5.95 6.68-4.14 4.75-8.54 9.22-13 13.7-0.841 0.84-1.68 1.68-2.55 2.55-5.04 4.99-10.1 9.71-15.7 14.1-2.75 2.14-5.37 4.42-8 6.7-8.06 6.71-16.8 12.5-25.5 18.2-0.762 0.503-1.52 1.01-2.31 1.52-42 27.5-87.2 45.8-136 56.5-3.15 0.694-6.28 1.46-9.41 2.26-15 3.71-29.3 4.52-44.7 4.49-2.5 0.00849-4.99 0.0181-7.49 0.0289-5.2 0.0163-10.4 0.0138-15.6-0.00153-5.26-0.0138-10.5-4.15e-6 -15.8 0.041-54.9 0.425-54.9 0.425-77.6-6.88-4.36-1.36-8.78-2.45-13.2-3.56-53.3-13.6-102-38.8-146-72.4-1.37-1.04-1.37-1.04-2.76-2.11-6.02-4.69-11.6-9.83-17.2-15-3.61-3.37-7.32-6.64-11.1-9.86 0.471-4.26 3.15-6.56 6.06-9.42 0.757-0.757 0.757-0.757 1.53-1.53 1.06-1.06 2.13-2.12 3.21-3.18 1.64-1.62 3.28-3.25 4.91-4.89 1.04-1.03 2.07-2.06 3.11-3.09 0.49-0.491 0.979-0.981 1.48-1.49 3.48-3.4 3.48-3.4 5.71-3.4 0.33-0.99 0.66-1.98 1-3 1.6-1.54 1.6-1.54 3.62-3.19 3.74-3.14 6.85-6.53 9.93-10.3 0.477-0.496 0.954-0.993 1.45-1.5h2c0.33-0.99 0.66-1.98 1-3 1.55-1.53 1.55-1.53 3.54-3.17 4.51-3.83 8.67-7.94 12.8-12.1 1.15-1.16 1.15-1.16 2.33-2.34 2.43-2.45 4.87-4.9 7.3-7.35 3.21-3.23 6.41-6.46 9.62-9.69 0.721-0.729 1.44-1.46 2.19-2.21 6.28-6.31 12.6-12.4 20.2-17.1 0.585 0.704 1.17 1.41 1.77 2.13 17.5 20.2 42.2 36.1 66.4 47 1.83 0.832 3.65 1.7 5.46 2.57 19.1 8.96 39.7 14.4 60.4 18.3 0.812 0.164 1.62 0.327 2.46 0.496 58.3 11.5 123-3.75 172-36.5 3.75-2.57 7.39-5.24 11-8 0.987-0.722 1.97-1.44 2.99-2.19 36.9-27.4 66-67.7 79-112 0.197-0.658 0.395-1.32 0.598-1.99 1.27-4.3 2.37-8.64 3.4-13 0.257-1.06 0.257-1.06 0.519-2.15 13.8-58 1.81-117-28.6-168-7.55-12.3-17-23.7-26.9-34.1-0.756-0.796-0.756-0.796-1.53-1.61-8.25-8.64-16.9-16.3-26.5-23.4-0.664-0.492-1.33-0.985-2.01-1.49-9.92-7.32-20.1-13.7-31-19.5-0.616-0.335-1.23-0.669-1.87-1.01-24.9-13.5-52.2-20.9-80.1-25-0.664-0.103-1.33-0.206-2.01-0.312-47.4-7.17-99 1.68-141 24.3-1.84 0.981-3.7 1.92-5.57 2.86-9.66 4.91-18.5 10.8-27.3 17.1-1.05 0.753-2.1 1.51-3.18 2.28-7.39 5.41-14.3 11.3-21.2 17.3-2.51 2.17-5.06 4.28-7.61 6.39-4.42-1.48-6.02-4.83-8.19-8.68-0.797-1.37-1.59-2.74-2.39-4.11-0.604-1.05-0.604-1.05-1.22-2.13-1.84-3.2-3.74-6.36-5.64-9.53-1.52-2.56-3.04-5.12-4.56-7.68-0.405-0.681-0.809-1.36-1.23-2.06-8.65-14.6-17.2-29.2-25.8-43.8-0.918-1.57-0.918-1.57-1.85-3.17-6.61-11.3-13.2-22.6-19.7-34-6.21-10.8-12.5-21.5-18.8-32.2-2.7-4.56-5.4-9.12-8.09-13.7-3.2-5.42-6.4-10.8-9.61-16.3-10.9-18.4-21.7-36.8-32.4-55.2-9.78-16.8-19.6-33.5-29.7-50.1-8.42-13.8-16.6-27.7-24.8-41.7-1.61-2.76-3.22-5.52-4.83-8.28-0.605-1.04-1.21-2.07-1.83-3.14-1.17-2-2.33-4-3.5-6-0.55-0.942-1.1-1.88-1.67-2.86-0.532-0.911-1.06-1.82-1.61-2.76-1.53-2.63-3.06-5.25-4.58-7.88-0.91-1.56-1.82-3.12-2.73-4.68-0.61-1.05-0.61-1.05-1.23-2.13-1.52-2.59-2.88-4.86-5.02-7-2.52-0.29-2.52-0.29-5.48-0.238-1.15-0.0124-2.3-0.0248-3.48-0.0376-1.25-0.0121-2.5-0.0242-3.79-0.0366-43.4-1.01-87.9-15.3-119-46.7-0.687-1.32-1.36-2.65-2-4-0.99-0.33-1.98-0.66-3-1-26.6-24.5-39.1-65-41-100-0.0709-1.03-0.142-2.07-0.215-3.13-1.32-37 14.8-74.9 38.2-103 1.64-1.69 3.31-3.36 5-5 0.781-0.764 0.781-0.764 1.58-1.54 8.59-8.37 17.4-15.9 27.4-22.5 0.587-0.385 1.17-0.77 1.78-1.17 16.3-10.5 33.5-17.2 52.2-21.8 0.746-0.186 1.49-0.373 2.26-0.565 47.5-11.2 106 2.71 142 35.3z" fill="#6e6e6e"/>
<path transform="translate(858 3.44)" d="m0 0c0.718 0.127 1.44 0.254 2.18 0.384 58.1 10.3 116 30.4 164 63.9 2 1.36 4 2.71 6.01 4.06 11.4 7.68 21.8 16.1 31.9 25.5 2.2 2.04 4.45 4.01 6.73 5.97 5.12 4.47 9.92 9.25 14.7 14.1 0.89 0.878 1.78 1.76 2.7 2.66 6.06 6.05 11.5 12.4 16.9 19.1 1.03 1.25 2.05 2.51 3.08 3.76 11.1 13.7 21.2 27.9 29.9 43.2 0.443 0.768 0.886 1.54 1.34 2.33 46.2 80.5 60.2 177 36.7 270-1.48 5.07-3.15 10.1-5 15-9.02-0.583-17.5-2.65-26.2-4.88-0.815-0.205-1.63-0.411-2.47-0.622-36.6-9.22-73-19.3-109-29.5 0.573-7.47 1.86-14.7 3.38-22 11.8-59.7 2.23-117-31.5-169-6.11-9.08-12.8-17.5-20.4-25.4-2.19-2.31-3.47-3.8-4.49-6.87-0.99-0.33-1.98-0.66-3-1-2.51-2.36-4.85-4.84-7.19-7.37-23.5-24.8-56.7-42.8-88.8-53.6-1.1-0.372-1.1-0.372-2.22-0.752-60.9-20.2-131-12-188 16.3-15.5 8.01-30.5 17.8-43.6 29.4l-2.7 2.37c-4.23 3.76-8.35 7.58-12.3 11.6-0.557 0.523-1.11 1.05-1.69 1.59-5.95 5.69-10.9 12-15.9 18.6-1.37 1.8-2.76 3.58-4.15 5.36-22.4 29.2-34.6 61.7-41.3 97.5-0.356 1.86-0.356 1.86-0.719 3.75-9.26 55.5 7.43 112 39.4 157 2.95 4.11 6.07 8.02 9.34 11.9 0.889 1.07 1.78 2.15 2.66 3.22 11.2 13.4 23.2 25.4 37.3 35.8l2.39 1.79c11.4 8.48 23.1 15.9 35.7 22.4 0.898 0.465 0.898 0.465 1.81 0.94 13.2 6.78 26.7 11.5 40.9 15.7 1.39 0.41 2.77 0.821 4.16 1.23 3.34 0.991 6.68 1.97 10 2.96-0.788 4.51-2.42 8-4.69 11.9-0.391 0.686-0.782 1.37-1.18 2.08-5.16 8.94-10.8 17.6-16.4 26.3-7.27 11.3-14.4 22.7-21.2 34.2-3.92 6.57-7.98 13-12.1 19.5-3.73 5.88-7.39 11.8-11 17.7-4.01 6.59-8.05 13.2-12.1 19.7-0.68 1.1-1.36 2.21-2.06 3.35-3.41 5.54-6.82 11.1-10.2 16.6-6.94 11.3-13.8 22.5-20.7 33.9-5.95 9.82-11.9 19.6-18 29.4-3.79 6.1-7.55 12.2-11.3 18.3-4.82 7.84-9.65 15.7-14.5 23.5-10.9 17.5-21.7 35.1-32.3 52.7-4.36 7.2-8.76 14.4-13.3 21.5-4.77 7.51-9.45 15.1-14.1 22.7-0.661 1.08-1.32 2.15-2 3.26-0.611 1.01-1.22 2.03-1.85 3.07-0.82 1.35-0.82 1.35-1.66 2.73-1.33 2.61-2.02 4.65-2.3 7.56 1.06 2.48 2.15 4.63 3.5 6.94 0.751 1.35 1.5 2.71 2.25 4.06 0.749 1.33 1.5 2.67 2.25 4 9.66 17.3 15.7 36.3 18 56l0.391 3.25c0.295 2.92 0.476 5.82 0.609 8.75l0.195 3.12c1.27 37.3-12 75.3-37.3 103-1.51 1.6-3.02 3.18-4.55 4.75-1.24 1.29-2.47 2.59-3.69 3.89-28 29.2-70.5 46.5-111 47.8-44.5 0.646-89.4-14.9-122-45.3l-2.74-2.53c-27.7-26.6-42.5-64.5-44.3-102l-0.16-2.88c-1.11-37.7 13-78.3 38.9-106 0.938-0.98 1.88-1.96 2.82-2.93 1.4-1.46 2.77-2.94 4.14-4.42 24-25.5 58.4-41.6 92.9-46.2 0.662-0.0875 1.32-0.175 2.01-0.265 5-0.568 9.88-0.597 14.9-0.504 13.5 0.573 13.5 0.573 25.8-3.73 3.95-4.29 6.21-9.37 8.44-14.7 1.93-4.36 4.48-8.32 6.99-12.4 1-1.68 2.01-3.36 3-5.04 4.02-6.69 8.17-13.3 12.3-19.9 4.76-7.6 9.48-15.2 14.2-22.9 6.76-11 13.5-22 20.5-32.9 6.15-9.7 12.2-19.5 18.1-29.3 3.73-6.15 7.5-12.3 11.3-18.4 4.5-7.17 8.96-14.4 13.4-21.6 2.15-3.48 4.3-6.95 6.46-10.4 4.83-7.77 9.63-15.6 14.4-23.4 0.384-0.634 0.768-1.27 1.16-1.92 1.9-3.14 3.8-6.29 5.7-9.43 0.698-1.15 1.4-2.31 2.09-3.46 0.614-1.02 1.23-2.04 1.86-3.09 1.69-2.69 1.69-2.69 3.43-4.92 1.51-1.71 1.51-1.71 1.08-3.96-0.669-2-0.669-2-2.81-2.81v-2c-0.529-0.21-1.06-0.42-1.6-0.637-3.38-1.92-5.97-4.5-8.77-7.18-1.11-1.05-2.22-2.1-3.34-3.14-0.825-0.777-0.825-0.777-1.67-1.57-1.48-1.35-3.04-2.61-4.6-3.86-3.07-2.65-5.57-5.46-8.19-8.53-3.01-3.42-6.31-6.53-9.58-9.7-6.6-6.5-12.5-13.3-18-20.7-1.29-1.72-2.59-3.41-3.91-5.1-8.15-10.5-15.6-21.2-22.4-32.6-0.472-0.795-0.944-1.59-1.43-2.41-47.9-81.2-62.9-178-40.3-270 13.4-51.4 36.3-100 70.8-141 0.761-0.945 1.52-1.89 2.3-2.86 7.11-8.71 15-16.6 22.9-24.6 0.567-0.568 1.13-1.14 1.72-1.72 5.64-5.64 11.3-11.2 17.4-16.4 2.43-2.1 4.72-4.34 7.04-6.56 7.6-7.09 16.1-13 24.6-18.9 0.643-0.447 1.29-0.895 1.95-1.36 44.8-31 95.4-52.1 149-61.8 5.37-0.968 10.7-1.98 16-3.15 16.2-3.51 31.7-4.51 48.2-4.58 2.38-0.0319 4.77-0.0657 7.15-0.102 20.2-0.256 40.3-0.207 60.2 3.41z" fill="#6e6e6e"/>
</svg>
