<svg xmlns="http://www.w3.org/2000/svg" xmlns:xlink="http://www.w3.org/1999/xlink" width="24" height="24" preserveAspectRatio="xMidYMid meet" viewBox="0 0 24 24" style="-ms-transform: rotate(360deg); -webkit-transform: rotate(360deg); transform: rotate(360deg);">
  <path d="M11 6h5v2h-5V6M8 9V3h11v6a3 3 0 0 1 3 3v6h-3v3H8v-3H7V9h1m2-4v4h7V5h-7m0 10v4h7v-4h-7m9-4a1 1 0 0 0-1 1a1 1 0 0 0 1 1a1 1 0 0 0 1-1a1 1 0 0 0-1-1M4 9h1a1 1 0 0 1 1 1v7a1 1 0 0 1-1 1H4a2 2 0 0 1-2-2v-5a2 2 0 0 1 2-2z" fill="#6B7786" />
  <rect x="0" y="0" width="24" height="24" fill="rgba(0, 0, 0, 0)" />
</svg>
