<?xml version="1.0" encoding="UTF-8" standalone="no"?>
<svg
   xmlns:dc="http://purl.org/dc/elements/1.1/"
   xmlns:cc="http://creativecommons.org/ns#"
   xmlns:rdf="http://www.w3.org/1999/02/22-rdf-syntax-ns#"
   xmlns:svg="http://www.w3.org/2000/svg"
   xmlns="http://www.w3.org/2000/svg"
   height="24px"
   viewBox="0 -960 960 960"
   width="24px"
   fill="#6B7786"
   version="1.1"
   id="svg3725">
  <metadata
     id="metadata3731">
    <rdf:RDF>
      <cc:Work
         rdf:about="">
        <dc:format>image/svg+xml</dc:format>
        <dc:type
           rdf:resource="http://purl.org/dc/dcmitype/StillImage" />
        <dc:title></dc:title>
      </cc:Work>
    </rdf:RDF>
  </metadata>
  <defs
     id="defs3729" />
  <path
     d="M 136.28163,-139.99036 Q 84.46524,-194.84384 56.029411,-262.8393 27.593583,-330.83475 27.593583,-407.40106 q 0,-171.41712 132.700527,-291.4091 132.70053,-119.99197 322.27272,-119.99197 h 10.11053 l -80.88414,-73.13797 70.77361,-63.99572 202.21034,182.84492 -202.21034,182.84491 -72.03742,-65.1385 79.62032,-71.99519 h -7.5829 q -146.60249,0 -250.23529,93.70802 -103.63279,93.70802 -103.63279,226.2706 0,58.28181 20.85293,109.70695 20.85295,51.42513 58.7674,92.56523 z m 295.73263,-15.99894 q 0,-26.28396 -19.58914,-51.99652 -19.58912,-25.71257 -43.6016,-53.71071 -24.01247,-27.99811 -43.6016,-58.28181 -19.58913,-30.28369 -19.58913,-64.56712 0,-66.28127 51.81639,-113.13529 51.81641,-46.854 125.11765,-46.854 73.30125,0 125.11765,46.854 51.8164,46.85402 51.8164,113.13529 0,34.28343 -19.58912,64.56712 -19.58913,30.2837 -43.6016,58.28181 -24.01248,27.99814 -43.6016,53.71071 -19.58913,25.71256 -19.58913,51.99652 z m 0,114.27807 v -68.56684 h 101.10517 v 68.56684 z m 396.8378,-98.27913 -72.03745,-65.13852 q 37.91444,-41.1401 58.76738,-92.56523 20.85295,-51.42514 20.85295,-109.70695 0,-75.42354 -34.75491,-139.99065 -34.75491,-64.56711 -95.41801,-107.99278 l 72.03744,-65.1385 q 73.30125,57.13903 116.27094,137.70508 42.96971,80.56604 42.96971,175.41685 0,76.56631 -28.43583,144.56176 -28.43584,67.99546 -80.25222,122.84894 z"
     id="path3723"
     style="stroke-width:1.20177495" />
</svg>
