<svg width="24" height="24" preserveAspectRatio="xMidYMid meet" viewBox="0 0 24 24" style="-ms-transform: rotate(360deg); -webkit-transform: rotate(360deg); transform: rotate(360deg);" xmlns="http://www.w3.org/2000/svg">
  <defs></defs>
  <path d="M11 6h5v2h-5V6M8 9V3h11v6a3 3 0 0 1 3 3v6h-3v3H8v-3H7V9h1m2-4v4h7V5h-7m0 10v4h7v-4h-7m9-4a1 1 0 0 0-1 1a1 1 0 0 0 1 1a1 1 0 0 0 1-1a1 1 0 0 0-1-1M4 9h1a1 1 0 0 1 1 1v7a1 1 0 0 1-1 1H4a2 2 0 0 1-2-2v-5a2 2 0 0 1 2-2z" fill="#6B7786"></path>
  <rect y="0" width="24" height="24" fill="rgba(0, 0, 0, 0)" x="0"></rect>
  <rect x="10.824" y="11.732" width="12.919" height="12.086" style="paint-order: stroke; fill: rgb(255, 255, 255);"></rect>
  <path d="M 11.646 17.932 C 11.646 22.48 16.571 25.324 20.51 23.049 C 24.45 20.775 24.45 15.089 20.51 12.814 C 19.612 12.296 18.593 12.023 17.555 12.023 C 14.292 12.023 11.646 14.668 11.646 17.932 M 19.683 18.948 C 19.836 18.631 19.918 18.284 19.92 17.932 C 19.92 16.626 18.861 15.568 17.555 15.568 L 17.555 16.75 L 15.712 14.977 L 17.555 13.204 L 17.555 14.386 C 19.513 14.386 21.101 15.974 21.101 17.932 C 21.103 18.6 20.912 19.255 20.552 19.817 M 14.01 17.932 C 14.009 17.264 14.2 16.61 14.56 16.047 L 15.428 16.915 C 15.274 17.232 15.194 17.58 15.192 17.932 C 15.192 19.237 16.25 20.296 17.555 20.296 L 17.555 19.113 L 19.328 20.886 L 17.555 22.659 L 17.555 21.478 C 15.597 21.478 14.01 19.89 14.01 17.932 Z" style=""></path>
</svg>