<svg xmlns="http://www.w3.org/2000/svg" width="20px" height="20px" viewBox="0 0 20 20" fill="#6B7786"><path d="M 3.75 17.5 C 3.417969 17.5 3.125 17.375 2.875 17.125 C 2.625 16.875 2.5 16.582031 2.5 16.25 L 2.5 3.75 C 2.5 3.417969 2.625 3.125 2.875 2.875 C 3.125 2.625 3.417969 2.5 3.75 2.5 L 16.25 2.5 C 16.582031 2.5 16.875 2.625 17.125 2.875 C 17.375 3.125 17.5 3.417969 17.5 3.75 L 17.5 16.25 C 17.5 16.582031 17.375 16.875 17.125 17.125 C 16.875 17.375 16.582031 17.5 16.25 17.5 Z M 3.75 16.25 L 9.375 16.25 L 9.375 3.75 L 3.75 3.75 Z M 10.625 16.25 L 16.25 16.25 L 16.25 9.980469 L 10.625 9.980469 Z M 10.625 8.730469 L 16.25 8.730469 L 16.25 3.75 L 10.625 3.75 Z M 10.625 8.730469 "/></svg>
