<svg xmlns="http://www.w3.org/2000/svg" width="20px" height="20px" viewBox="0 0 20 20" fill="#6B7786"><path d="M 4.167969 2.5 C 3.242188 2.5 2.5 3.242188 2.5 4.167969 L 2.5 15.832031 C 2.5 16.757812 3.242188 17.5 4.167969 17.5 L 15.832031 17.5 C 16.757812 17.5 17.5 16.757812 17.5 15.832031 L 17.5 4.167969 C 17.5 3.242188 16.757812 2.5 15.832031 2.5 L 4.167969 2.5 M 4.167969 4.167969 L 15.832031 4.167969 L 15.832031 15.832031 L 4.167969 15.832031 L 4.167969 4.167969 M 5.832031 5.832031 L 5.832031 7.5 L 14.167969 7.5 L 14.167969 5.832031 L 5.832031 5.832031 M 5.832031 9.167969 L 5.832031 10.832031 L 14.167969 10.832031 L 14.167969 9.167969 L 5.832031 9.167969 M 5.832031 12.5 L 5.832031 14.167969 L 11.667969 14.167969 L 11.667969 12.5 Z M 5.832031 12.5 "/></svg>
