<svg version="1.1" x="0px" y="0px" viewBox="0 0 42 42" style="enable-background:new 0 0 48 48;" xmlns="http://www.w3.org/2000/svg">
  <defs></defs>
  <g transform="matrix(1, 0, 0, 1, -6, -6)">
    <path style="fill:#6e6e6e;" d="M6,42V6h36v36H6z M10,38h28V10H10V38z"></path>
    <path style="fill:#6e6e6e;" d="M24,41.5c-1.104,0-2-0.896-2-2V9c0-1.104,0.896-2,2-2s2,0.896,2,2v30.5
		C26,40.604,25.104,41.5,24,41.5z"></path>
    <path style="fill:#6e6e6e;" d="M39,21H9c-1.104,0-2-0.896-2-2s0.896-2,2-2h30c1.104,0,2,0.896,2,2S40.104,21,39,21z"></path>
    <path style="fill:#6e6e6e;" d="M39,31H9c-1.104,0-2-0.896-2-2s0.896-2,2-2h30c1.104,0,2,0.896,2,2S40.104,31,39,31z"></path>
  </g>
  <g transform="matrix(1, 0, 0, 1, -6, -6)">
    <g>
      <path style="fill:#FF3D00;" d="M48,38c0,5.5-4.5,10-10,10s-10-4.5-10-10s4.5-10,10-10S48,32.5,48,38"></path>
      <path style="fill:#FFFFFF;" d="M43.3,34.8l-2.1-2.1L38,35.9l-3.2-3.2l-2.1,2.1l3.2,3.2l-3.2,3.2l2.1,2.1l3.2-3.2l3.2,3.2l2.1-2.1
			L40.1,38L43.3,34.8z"></path>
    </g>
  </g>
</svg>