<?xml version="1.0" encoding="iso-8859-1"?>
<!-- Generator: Adobe Illustrator 19.2.0, SVG Export Plug-In . SVG Version: 6.00 Build 0)  -->
<svg version="1.1"  xmlns="http://www.w3.org/2000/svg" xmlns:xlink="http://www.w3.org/1999/xlink" x="0px" y="0px"
	 viewBox="0 0 48 48" style="enable-background:new 0 0 48 48;" xml:space="preserve">
<g>
	<polygon style="fill:#6e6e6e;" points="7,0 14,8 0,8 	"/>
	<polygon style="fill:#6e6e6e;" points="5,18 5,4.104 9,4.104 9,17 	"/>
</g>
<path style="fill:#6e6e6e;" d="M43,30V18c0-2.2-1.8-4-4-4H9c-2.2,0-4,1.8-4,4v12c0,2.2,1.8,4,4,4h30C41.2,34,43,32.2,43,30z M9,18
	h30v12H9V18z"/>
<circle style="fill:#43A047;" cx="38" cy="38" r="10"/>
<g>
	<rect x="32" y="36" style="fill:#FFFFFF;" width="12" height="4"/>
	<rect x="36" y="32" style="fill:#FFFFFF;" width="4" height="12"/>
</g>
</svg>
