<svg xmlns="http://www.w3.org/2000/svg" viewBox="0 0 139.0854 30"><defs><style>.cls-1{fill:#241f20;}.cls-2{fill:#2574db;}</style></defs><g id="Layer_2" data-name="Layer 2"><g id="Layer_4" data-name="Layer 4"><path class="cls-1" d="M41.2368,23.44V7.3587h3.96V23.44Z"/><path class="cls-1" d="M59.7173,16.0472V23.44H55.9009V16.8636a2.1251,2.1251,0,0,0-2.0645-2.377c-1.5117,0-2.4961,1.0322-2.4961,3.36V23.44h-3.84V11.3909h3.84v1.1523a4.9662,4.9662,0,0,1,3.6963-1.5126C57.8452,11.0306,59.7173,13.0227,59.7173,16.0472Z"/><path class="cls-1" d="M70.7808,22.9114a6.547,6.547,0,0,1-3.2891.8887c-3,0-4.8-1.6328-4.8-4.8008V14.4388H60.5073V11.3909h2.1846V7.8382h3.84v3.5527h3.5528v3.0479H66.5317v4.1767c0,1.2481.6006,1.752,1.6084,1.752a3.9209,3.9209,0,0,0,1.752-.48Z"/><path class="cls-1" d="M83.3335,18.4h-8.833a2.7841,2.7841,0,0,0,5.1611.9355l3.4082.6963A5.99,5.99,0,0,1,77.0933,23.8a6.2142,6.2142,0,0,1-6.3614-6.3848,6.2341,6.2341,0,0,1,6.3848-6.3847,6.1107,6.1107,0,0,1,6.2168,6.3847Zm-8.7607-2.3525h4.9687a2.4084,2.4084,0,0,0-2.4248-1.8965A2.6389,2.6389,0,0,0,74.5728,16.0472Z"/><path class="cls-1" d="M93.7007,11.3186l-.168,3.8409h-.6963c-2.6885,0-4.1523,1.3916-4.1523,4.5117V23.44h-3.84V11.3909h3.84v2.3037a4.6549,4.6549,0,0,1,4.1523-2.4717A3.2827,3.2827,0,0,1,93.7007,11.3186Z"/><path class="cls-1" d="M98.812,14.2229h7.5361V17.679H98.812V23.44h-3.96V7.3587h12.4326v3.48H98.812Z"/><path class="cls-1" d="M119.1177,23.44,117.99,20.511h-6.7685L110.0923,23.44h-4.2481l6.7207-16.081h4.0567l6.72,16.081ZM114.605,11.8225l-2.04,5.28h4.1045Z"/><path class="cls-1" d="M131.0444,17.9671,127.7085,23.44h-4.6807l5.04-8.0644-4.9922-8.0166h4.6806l3.2881,5.4238,3.3125-5.4238h4.6807l-4.9932,8.0166,5.041,8.0644h-4.6806Z"/><path class="cls-2" d="M15,0A15,15,0,1,0,30,15,15,15,0,0,0,15,0Zm5.6362,16.5c0,3.5361-2.2257,5.726-5.5644,5.726A5.3479,5.3479,0,0,1,9.3639,16.5V11.4536l3.7335-.9983V16.5c0,1.5437.79,2.4053,1.9744,2.4053,1.0949,0,1.8309-.8616,1.8309-2.4053V9.4381L20.6362,8.44Z"/></g></g></svg>