<svg xmlns="http://www.w3.org/2000/svg" viewBox="0 0 254.6431 30"><defs><style>.cls-1{fill:#241f20;}.cls-2{fill:#2574db;}</style></defs><g id="Layer_2" data-name="Layer 2"><g id="Layer_4" data-name="Layer 4"><path class="cls-1" d="M41.2368,23.58V7.4991h3.96V23.58Z"/><path class="cls-1" d="M59.7173,16.1875V23.58H55.9009V17.0039a2.125,2.125,0,0,0-2.0645-2.3769c-1.5117,0-2.4961,1.0322-2.4961,3.36V23.58h-3.84V11.5313h3.84v1.1523a4.9663,4.9663,0,0,1,3.6963-1.5127C57.8452,11.1709,59.7173,13.1631,59.7173,16.1875Z"/><path class="cls-1" d="M70.7808,23.0518a6.547,6.547,0,0,1-3.2891.8887c-3,0-4.8-1.6328-4.8-4.8008V14.5791H60.5073V11.5313h2.1846V7.9786h3.84v3.5527h3.5528v3.0478H66.5317v4.1768c0,1.248.6006,1.7519,1.6084,1.7519a3.9207,3.9207,0,0,0,1.752-.48Z"/><path class="cls-1" d="M83.3335,18.54h-8.833a2.7841,2.7841,0,0,0,5.1611.9355l3.4082.6963a5.99,5.99,0,0,1-5.9765,3.7686,6.2142,6.2142,0,0,1-6.3614-6.3848,6.2342,6.2342,0,0,1,6.3848-6.3848,6.1108,6.1108,0,0,1,6.2168,6.3848Zm-8.7607-2.3526h4.9687a2.4083,2.4083,0,0,0-2.4248-1.8964A2.6389,2.6389,0,0,0,74.5728,16.1875Z"/><path class="cls-1" d="M84.8442,23.58V6.2989h3.84V23.58Z"/><path class="cls-1" d="M90.9878,23.58V6.2989h3.84V23.58Z"/><path class="cls-1" d="M101.4761,7.9786a2.2219,2.2219,0,0,1-4.44,0,2.2206,2.2206,0,0,1,4.4405,0ZM97.3237,23.58V11.5313h3.8409V23.58Z"/><path class="cls-1" d="M116.0679,22.38c0,3.7207-2.8321,5.7608-6.7442,5.7608-2.7607,0-4.872-.96-6.0488-2.9043l3.1924-1.7286a3.27,3.27,0,0,0,2.832,1.4883,2.7539,2.7539,0,0,0,3.001-2.9277v-.3369a5.3779,5.3779,0,0,1-3.625,1.1523,5.8566,5.8566,0,0,1,0-11.7129,5.3774,5.3774,0,0,1,3.625,1.1524v-.792h3.7676ZM112.3,16.98a2.8455,2.8455,0,1,0-2.8086,2.7608A2.7215,2.7215,0,0,0,112.3,16.98Z"/><path class="cls-1" d="M130.2036,18.54h-8.833a2.7841,2.7841,0,0,0,5.1611.9355l3.4082.6963a5.99,5.99,0,0,1-5.9765,3.7686,6.2141,6.2141,0,0,1-6.3613-6.3848,6.2341,6.2341,0,0,1,6.3847-6.3848,6.1108,6.1108,0,0,1,6.2168,6.3848Zm-8.7607-2.3526h4.9687a2.4083,2.4083,0,0,0-2.4248-1.8964A2.6389,2.6389,0,0,0,121.4429,16.1875Z"/><path class="cls-1" d="M143.9321,16.1875V23.58h-3.8164V17.0039a2.125,2.125,0,0,0-2.0644-2.3769c-1.5117,0-2.4961,1.0322-2.4961,3.36V23.58h-3.84V11.5313h3.84v1.1523a4.9661,4.9661,0,0,1,3.6963-1.5127C142.06,11.1709,143.9321,13.1631,143.9321,16.1875Z"/><path class="cls-1" d="M154.9956,23.0518a6.5467,6.5467,0,0,1-3.2891.8887c-3,0-4.8-1.6328-4.8-4.8008V14.5791h-2.1845V11.5313h2.1845V7.9786h3.84v3.5527h3.5527v3.0478h-3.5527v4.1768c0,1.248.6006,1.7519,1.6084,1.7519a3.9207,3.9207,0,0,0,1.7519-.48Z"/><path class="cls-1" d="M177.1714,17.5557c-.7432,4.0322-3.9844,6.3848-8.1123,6.3848a8.4021,8.4021,0,1,1,0-16.8018c3.96,0,7.32,2.3525,8.0888,6.169l-3.8886.9121a4.055,4.055,0,0,0-4.2-3.4571,4.6143,4.6143,0,0,0-4.584,4.7764,4.6355,4.6355,0,0,0,4.584,4.8008,4.15,4.15,0,0,0,4.2246-3.5528Z"/><path class="cls-1" d="M191.5952,23.58h-3.8408v-.96a5.4255,5.4255,0,0,1-3.7441,1.32c-3.1924,0-5.8809-2.5684-5.8809-6.3848,0-3.792,2.6885-6.3848,5.8809-6.3848a5.4255,5.4255,0,0,1,3.7441,1.32v-.96h3.8408Zm-3.8408-6.0244a3.005,3.005,0,0,0-2.9522-3.12,2.8979,2.8979,0,0,0-2.9043,3.12,2.885,2.885,0,0,0,2.9043,3.12A2.99,2.99,0,0,0,187.7544,17.5557Z"/><path class="cls-1" d="M207.3638,17.5557c0,3.8164-2.6885,6.3848-5.8809,6.3848a5.4287,5.4287,0,0,1-3.7441-1.32v5.04h-3.84V11.5313h3.84v.96a5.4287,5.4287,0,0,1,3.7441-1.32C204.6753,11.1709,207.3638,13.7637,207.3638,17.5557Zm-3.7686,0a2.8973,2.8973,0,0,0-2.9043-3.12,3.0055,3.0055,0,0,0-2.9521,3.12,2.991,2.991,0,0,0,2.9521,3.12A2.8844,2.8844,0,0,0,203.5952,17.5557Z"/><path class="cls-1" d="M217.8032,23.0518a6.5466,6.5466,0,0,1-3.289.8887c-3,0-4.8-1.6328-4.8-4.8008V14.5791H207.53V11.5313h2.1846V7.9786h3.84v3.5527h3.5527v3.0478h-3.5527v4.1768c0,1.248.6006,1.7519,1.6084,1.7519a3.9214,3.9214,0,0,0,1.752-.48Z"/><path class="cls-1" d="M230.5952,23.58h-3.8408V22.4278a4.9684,4.9684,0,0,1-3.6963,1.5127c-2.8076,0-4.6807-1.9922-4.6807-5.0166V11.5313h3.8164v6.5762a2.1252,2.1252,0,0,0,2.0645,2.3759c1.5127,0,2.4961-1.0312,2.4961-3.36V11.5313h3.8408Z"/><path class="cls-1" d="M241.7554,11.459l-.168,3.8408h-.6963c-2.6885,0-4.1523,1.3916-4.1523,4.5118V23.58h-3.84V11.5313h3.84V13.835a4.6546,4.6546,0,0,1,4.1523-2.4717A3.2827,3.2827,0,0,1,241.7554,11.459Z"/><path class="cls-1" d="M254.6431,18.54H245.81a2.7841,2.7841,0,0,0,5.1611.9355l3.4082.6963a5.99,5.99,0,0,1-5.9766,3.7686,6.2142,6.2142,0,0,1-6.3613-6.3848,6.2342,6.2342,0,0,1,6.3848-6.3848,6.1108,6.1108,0,0,1,6.2168,6.3848Zm-8.7608-2.3526h4.9688a2.4084,2.4084,0,0,0-2.4248-1.8964A2.6391,2.6391,0,0,0,245.8823,16.1875Z"/><path class="cls-2" d="M15,0A15,15,0,1,0,30,15,15,15,0,0,0,15,0Zm5.6362,16.5c0,3.5361-2.2257,5.726-5.5644,5.726A5.3479,5.3479,0,0,1,9.3639,16.5V11.4536l3.7335-.9983V16.5c0,1.5437.79,2.4053,1.9744,2.4053,1.0949,0,1.8309-.8616,1.8309-2.4053V9.4381L20.6362,8.44Z"/></g></g></svg>