<?xml version="1.0" encoding="utf-8"?>
<!-- Generator: Adobe Illustrator 22.1.0, SVG Export Plug-In . SVG Version: 6.00 Build 0)  -->
<svg version="1.1" id="Layer_1" xmlns="http://www.w3.org/2000/svg" xmlns:xlink="http://www.w3.org/1999/xlink" x="0px" y="0px"
	 viewBox="0 0 393 75.6" style="enable-background:new 0 0 393 75.6;" xml:space="preserve">
<style type="text/css">
	.st0{fill:#179CD7;}
</style>
<g>
	<g>
		<path class="st0" d="M35.3,70.6c-0.4,0-0.7,0-1,0l7.2-19.8h9.9c1.7,0,3.7-1.3,4.2-3l7.8-21.5c1.3-3.5-0.7-6.4-4.5-6.4H45.2
			L33.6,51.6l0,0l-6.5,18C11.6,65.9,0,51.9,0,35.3c0-16.2,10.9-29.8,25.8-34L19,19.9l0,0L7.8,50.7h7.5l9.6-26.2h5.6l-9.6,26.2h7.5
			l8.9-24.5c1.3-3.5-0.7-6.4-4.5-6.4h-6.3L33.7,0c0.5,0,1.1,0,1.6,0c19.5,0,35.3,15.8,35.3,35.3S54.8,70.6,35.3,70.6z M56.6,24.5H51
			l-7.9,21.6h5.6L56.6,24.5z"/>
		<g>
			<path class="st0" d="M92.6,20.3c1,0,2,0.1,3,0.2c1,0.2,1.9,0.4,2.5,0.6c0.3,0.1,0.6,0.3,0.7,0.5s0.2,0.5,0.2,0.9v2
				c-0.8-0.1-1.7-0.2-2.7-0.3c-1-0.1-2-0.1-3.1-0.1c-1.3,0-2.3,0.2-3.2,0.5c-0.9,0.3-1.6,0.9-2.1,1.8c-0.5,0.8-0.9,2-1.1,3.4
				s-0.3,3.2-0.3,5.3c0,2.3,0.1,4.3,0.4,5.7c0.3,1.5,0.7,2.6,1.2,3.5c0.5,0.8,1.2,1.4,2.1,1.7c0.8,0.3,1.8,0.5,3,0.5
				s2.2-0.1,3.1-0.2c0.9-0.1,1.5-0.2,2-0.2c0.7,0,1,0.3,1,1v2.1c-0.8,0.3-1.8,0.6-2.9,0.8s-2.4,0.4-3.9,0.4c-1.8,0-3.4-0.3-4.7-0.8
				c-1.3-0.6-2.4-1.4-3.2-2.7c-1-1.3-1.6-2.9-2-4.8S82,37.9,82,35.3c0-2.7,0.2-5,0.6-6.9s1-3.5,1.9-4.7c0.9-1.2,1.9-2.1,3.3-2.6
				C89.1,20.6,90.7,20.3,92.6,20.3z"/>
			<path class="st0" d="M108.1,50.2c-2.2,0-3.8-0.6-4.9-1.8s-1.6-2.9-1.6-5c0-1.3,0.2-2.4,0.6-3.3s1-1.6,1.7-2.1s1.6-0.9,2.6-1.1
				c1-0.2,2.1-0.3,3.3-0.3h4.3v-1.4c0-1.5-0.4-2.4-1.1-3c-0.8-0.5-2-0.8-3.9-0.8c-1.2,0-2.3,0.1-3.3,0.2s-1.6,0.2-1.9,0.2
				c-0.4,0-0.6-0.1-0.8-0.3c-0.2-0.2-0.2-0.4-0.2-0.7V29c1-0.3,2.1-0.6,3.3-0.8c1.2-0.2,2.5-0.3,3.8-0.3c1.6,0,2.9,0.2,4,0.5
				s1.9,0.8,2.6,1.5c0.6,0.6,1.1,1.4,1.4,2.3c0.3,0.9,0.4,1.9,0.4,3.1v14.4h-2.6c-0.5,0-0.8-0.1-0.9-0.3s-0.2-0.5-0.3-0.7l-0.2-1.3
				c-0.7,0.7-1.6,1.3-2.6,1.9C110.8,49.9,109.5,50.2,108.1,50.2z M109.7,39.6c-0.8,0-1.5,0.1-2.1,0.3s-1,0.4-1.3,0.8
				c-0.3,0.3-0.5,0.7-0.7,1.2c-0.1,0.4-0.2,0.9-0.2,1.5c0,1.3,0.3,2.2,0.9,2.8s1.6,0.9,2.8,0.9c1.1,0,2.1-0.2,2.9-0.6
				c0.8-0.4,1.5-0.9,2.1-1.5v-5.2h-4.4V39.6z"/>
			<path class="st0" d="M132.8,50.1c-1.2,0-2.2-0.1-3-0.4c-0.8-0.3-1.5-0.6-2-0.9V57h-3.2c-0.7,0-1-0.3-1-1V41.8c0-1.6,0-3.2,0-4.9
				s0.1-3.4,0.2-5H123c-0.6,0-0.8-0.3-0.8-0.9v-2c0.4-0.1,0.9-0.2,1.6-0.3c0.6-0.1,1.3-0.2,2-0.3c0.7-0.1,1.5-0.1,2.3-0.2
				s1.6-0.1,2.3-0.1c1.8,0,3.3,0.2,4.6,0.5s2.3,0.9,3.2,1.8c0.8,0.8,1.5,1.9,1.8,3.3c0.4,1.4,0.6,3.1,0.6,5.2c0,3.8-0.6,6.6-1.9,8.4
				C137.5,49.2,135.5,50.1,132.8,50.1z M131.6,46.7c0.8,0,1.6-0.1,2.2-0.4c0.6-0.2,1.1-0.6,1.5-1.2c0.4-0.6,0.7-1.4,0.9-2.4
				s0.3-2.2,0.3-3.8c0-1.4-0.1-2.5-0.3-3.5s-0.5-1.7-0.9-2.3s-1.1-1-1.8-1.3c-0.8-0.3-1.8-0.4-3-0.4c-0.3,0-0.8,0-1.3,0
				s-1,0-1.4,0.1v14.2c0.6,0.3,1.1,0.5,1.7,0.7C130.1,46.7,130.8,46.7,131.6,46.7z"/>
			<path class="st0" d="M154.2,49.7c-0.6,0.2-1.3,0.3-1.8,0.4c-0.6,0.1-1.2,0.1-1.8,0.1c-2,0-3.5-0.4-4.4-1.3
				c-0.9-0.9-1.4-2.3-1.4-4.2V31.8h-1.5c-0.7,0-1-0.3-1-1v-2.4h2.6l0.2-5.5h2.9c0.7,0,1,0.3,1,1v4.6h4.1c0.3,0,0.6,0.1,0.7,0.3
				c0.2,0.2,0.3,0.4,0.3,0.7v2.4H149v12.6c0,0.8,0.1,1.3,0.4,1.8c0.3,0.4,0.8,0.6,1.5,0.6c0.5,0,0.9,0,1.2,0s0.6,0,0.9,0
				c0.8,0,1.1,0.3,1.1,1v1.8H154.2z"/>
			<path class="st0" d="M174.1,28.5c0.7,0,1,0.3,1,1v20.4h-2.6c-0.3,0-0.6-0.1-0.8-0.2c-0.2-0.1-0.3-0.4-0.4-0.8l-0.2-1.3
				c-1.7,1.9-4,2.8-6.7,2.8c-1.1,0-2.1-0.2-2.9-0.5c-0.8-0.3-1.5-0.8-2-1.5c-0.5-0.6-0.9-1.4-1.1-2.3c-0.2-0.9-0.4-1.9-0.4-3V28.5
				h3.2c0.3,0,0.6,0.1,0.7,0.3c0.2,0.2,0.3,0.4,0.3,0.7v13.2c0,1.5,0.3,2.5,0.9,3.1c0.6,0.6,1.5,0.9,2.7,0.9c1.1,0,2.1-0.2,2.9-0.7
				c0.8-0.5,1.5-0.9,1.9-1.4V28.5H174.1z"/>
			<path class="st0" d="M189.9,28.3c0.6,0,0.9,0.1,1.1,0.3c0.2,0.2,0.3,0.4,0.3,0.7v2.8c-0.2,0-0.4,0-0.6,0c-0.2,0-0.4,0-0.5,0
				c-1.1,0-2.2,0.2-3.1,0.5c-0.9,0.4-1.8,1-2.6,1.8v15.3h-3.2c-0.7,0-1-0.3-1-1V28.5h2.6c0.4,0,0.6,0.1,0.8,0.2
				c0.2,0.2,0.3,0.4,0.4,0.8l0.2,1.8c0.6-0.8,1.5-1.5,2.5-2.1C187.6,28.7,188.7,28.3,189.9,28.3z"/>
			<path class="st0" d="M197.6,40.7c0.1,1.1,0.2,2.1,0.4,2.9c0.2,0.8,0.5,1.4,1,1.9s1.1,0.8,1.9,1.1c0.8,0.2,1.8,0.3,3,0.3
				c1.1,0,2.1-0.1,3-0.2c0.9-0.1,1.5-0.2,1.8-0.2c0.6,0,1,0.3,1,0.9v1.8c-0.7,0.3-1.6,0.5-2.7,0.7s-2.5,0.3-4,0.3
				c-1.6,0-3-0.2-4.1-0.6c-1.2-0.4-2.1-1-2.9-1.9c-0.8-0.9-1.3-2-1.7-3.4s-0.5-3.1-0.5-5.1s0.2-3.7,0.5-5.2c0.4-1.4,0.9-2.6,1.7-3.5
				c0.7-0.9,1.7-1.6,2.7-2c1.1-0.4,2.4-0.6,3.8-0.6c1.6,0,2.9,0.2,4,0.7c1,0.5,1.8,1.1,2.4,1.9c0.6,0.8,1,1.7,1.2,2.7
				s0.3,2.2,0.3,3.4c0,0.8,0,1.6-0.1,2.3c-0.1,0.8-0.2,1.3-0.3,1.7L197.6,40.7L197.6,40.7z M206.4,37.7c0-0.3,0-0.5,0-0.6
				s0-0.3,0-0.5c0-1.8-0.3-3.1-0.8-4c-0.5-0.9-1.6-1.4-3.2-1.4c-1,0-1.7,0.2-2.3,0.5c-0.6,0.3-1.1,0.7-1.5,1.3
				c-0.4,0.6-0.6,1.3-0.8,2.1s-0.2,1.7-0.3,2.7h8.9V37.7z"/>
			<path class="st0" d="M228.9,50.2c-2.2,0-3.8-0.6-4.9-1.8c-1.1-1.2-1.6-2.9-1.6-5c0-1.3,0.2-2.4,0.6-3.3c0.4-0.9,1-1.6,1.7-2.1
				s1.6-0.9,2.6-1.1s2.1-0.3,3.3-0.3h4.3v-1.4c0-1.5-0.4-2.4-1.1-3c-0.8-0.5-2-0.8-3.9-0.8c-1.2,0-2.3,0.1-3.3,0.2s-1.6,0.2-1.9,0.2
				c-0.4,0-0.6-0.1-0.8-0.3c-0.2-0.2-0.2-0.4-0.2-0.7V29c1-0.3,2.1-0.6,3.3-0.8c1.2-0.2,2.5-0.3,3.8-0.3c1.6,0,2.9,0.2,4,0.5
				s1.9,0.8,2.6,1.5c0.6,0.6,1.1,1.4,1.4,2.3c0.3,0.9,0.4,1.9,0.4,3.1v14.4h-2.6c-0.5,0-0.8-0.1-0.9-0.3c-0.1-0.2-0.2-0.5-0.3-0.7
				l-0.2-1.3c-0.7,0.7-1.6,1.3-2.6,1.9C231.7,49.9,230.4,50.2,228.9,50.2z M230.6,39.6c-0.8,0-1.5,0.1-2.1,0.3s-1,0.4-1.3,0.8
				c-0.3,0.3-0.5,0.7-0.7,1.2c-0.1,0.4-0.2,0.9-0.2,1.5c0,1.3,0.3,2.2,0.9,2.8c0.6,0.6,1.6,0.9,2.8,0.9c1.1,0,2.1-0.2,2.9-0.6
				c0.8-0.4,1.5-0.9,2.1-1.5v-5.2h-4.4V39.6z"/>
			<path class="st0" d="M245.2,49.8c-0.7,0-1-0.3-1-1V28.5h2.6c0.3,0,0.6,0.1,0.8,0.2s0.3,0.4,0.4,0.8l0.2,1.3
				c1.7-1.9,4-2.8,6.7-2.8c2.3,0,3.9,0.7,4.9,2s1.5,3.1,1.5,5.3v14.5h-3.2c-0.3,0-0.6-0.1-0.7-0.3c-0.2-0.2-0.3-0.4-0.3-0.7V35.6
				c0-1.5-0.3-2.5-0.9-3.1c-0.6-0.6-1.5-0.9-2.7-0.9c-1.1,0-2.1,0.2-2.9,0.7c-0.8,0.5-1.5,0.9-1.9,1.4v16.1L245.2,49.8z"/>
			<path class="st0" d="M272.8,50.2c-2.5,0-4.3-0.9-5.5-2.8c-1.1-1.9-1.7-4.5-1.7-8.1c0-4,0.7-6.9,2.1-8.7c1.4-1.7,3.5-2.6,6.3-2.6
				c1.2,0,2.1,0.1,2.9,0.3c0.8,0.2,1.3,0.4,1.7,0.7v-9.3h3.2c0.3,0,0.6,0.1,0.7,0.3c0.2,0.2,0.3,0.4,0.3,0.7v29.1h-2.6
				c-0.3,0-0.6-0.1-0.8-0.2c-0.2-0.1-0.3-0.4-0.4-0.8l-0.2-1.3c-0.6,0.7-1.5,1.3-2.5,1.9C275.6,49.9,274.3,50.2,272.8,50.2z
				 M278.7,32c-0.5-0.2-1.1-0.4-1.7-0.5s-1.3-0.2-2-0.2c-1,0-1.8,0.1-2.5,0.4s-1.2,0.7-1.6,1.4c-0.4,0.6-0.6,1.4-0.8,2.4
				c-0.2,1-0.2,2.2-0.2,3.6c0,2.7,0.3,4.6,0.9,5.8s1.7,1.8,3.3,1.8c1.1,0,2-0.2,2.8-0.6c0.7-0.4,1.3-0.9,1.8-1.3L278.7,32L278.7,32z
				"/>
			<path class="st0" d="M297.9,49.8c-0.7,0-1-0.3-1-1V21.3c1.2-0.2,2.6-0.4,4.1-0.6s3.1-0.2,4.7-0.2c3.4,0,5.8,0.7,7.3,2.2
				s2.3,3.7,2.3,6.6c0,2.1-0.5,3.8-1.4,5.1c-1,1.3-2.2,2.2-3.8,2.8c0.7,0.8,1.3,1.8,2,2.9s1.3,2.2,1.9,3.4c0.6,1.1,1.1,2.3,1.6,3.4
				c0.5,1.1,0.9,2.1,1.2,3h-3.6c-0.4,0-0.7-0.1-0.9-0.2c-0.2-0.2-0.3-0.4-0.4-0.7c-0.3-0.7-0.6-1.5-1-2.4s-0.9-1.8-1.4-2.8
				s-1.1-1.9-1.7-2.9s-1.2-1.8-1.9-2.6h-4.5V50h-3.5V49.8z M301.2,34.8h4.6c0.7,0,1.4-0.1,2-0.2c0.6-0.2,1.2-0.4,1.6-0.8
				c0.5-0.4,0.8-0.9,1.1-1.7c0.3-0.7,0.4-1.6,0.4-2.7s-0.1-2-0.3-2.7c-0.2-0.7-0.6-1.3-1-1.7c-0.4-0.4-1-0.7-1.7-0.9
				c-0.7-0.2-1.5-0.2-2.3-0.2c-1,0-1.8,0-2.6,0.1c-0.8,0.1-1.4,0.1-1.8,0.2L301.2,34.8L301.2,34.8z"/>
			<path class="st0" d="M327.4,50.3c-3.2,0-5.4-0.9-6.9-2.7c-1.4-1.8-2.1-4.6-2.1-8.5s0.7-6.7,2.1-8.5s3.7-2.7,6.9-2.7
				c3.2,0,5.4,0.9,6.9,2.7c1.4,1.8,2.1,4.6,2.1,8.5s-0.7,6.7-2.1,8.5C332.9,49.4,330.6,50.3,327.4,50.3z M332.1,39.1
				c0-1.5-0.1-2.8-0.3-3.8c-0.2-1-0.5-1.8-0.8-2.4c-0.4-0.6-0.9-1-1.5-1.3s-1.3-0.4-2.1-0.4c-0.8,0-1.5,0.1-2.1,0.4
				s-1.1,0.7-1.5,1.3s-0.7,1.4-0.8,2.4c-0.2,1-0.3,2.3-0.3,3.8s0.1,2.8,0.3,3.8c0.2,1,0.5,1.8,0.8,2.4c0.4,0.6,0.9,1,1.5,1.3
				c0.6,0.2,1.3,0.4,2.1,0.4c0.8,0,1.5-0.1,2.1-0.4c0.6-0.2,1.1-0.7,1.5-1.3s0.7-1.4,0.8-2.4C332,41.9,332.1,40.7,332.1,39.1z"/>
			<path class="st0" d="M355.7,28.5c0.7,0,1,0.3,1,1v20.4h-2.6c-0.3,0-0.6-0.1-0.8-0.2c-0.2-0.1-0.3-0.4-0.4-0.8l-0.2-1.3
				c-1.7,1.9-4,2.8-6.7,2.8c-1.1,0-2.1-0.2-2.9-0.5s-1.5-0.8-2-1.5c-0.5-0.6-0.9-1.4-1.1-2.3c-0.2-0.9-0.4-1.9-0.4-3V28.5h3.2
				c0.3,0,0.6,0.1,0.7,0.3c0.2,0.2,0.3,0.4,0.3,0.7v13.2c0,1.5,0.3,2.5,0.9,3.1s1.5,0.9,2.7,0.9c1.1,0,2.1-0.2,2.9-0.7
				s1.5-0.9,1.9-1.4V28.5H355.7z"/>
			<path class="st0" d="M372.3,49.7c-0.6,0.2-1.3,0.3-1.8,0.4c-0.6,0.1-1.2,0.1-1.8,0.1c-2,0-3.5-0.4-4.4-1.3
				c-0.9-0.9-1.4-2.3-1.4-4.2V31.8h-1.5c-0.7,0-1-0.3-1-1v-2.4h2.6l0.2-5.5h2.9c0.7,0,1,0.3,1,1v4.6h4.1c0.3,0,0.6,0.1,0.7,0.3
				c0.2,0.2,0.3,0.4,0.3,0.7v2.4h-5.1v12.6c0,0.8,0.1,1.3,0.4,1.8c0.3,0.4,0.8,0.6,1.5,0.6c0.5,0,0.9,0,1.2,0c0.3,0,0.6,0,0.9,0
				c0.8,0,1.1,0.3,1.1,1L372.3,49.7L372.3,49.7z"/>
			<path class="st0" d="M379.1,40.7c0.1,1.1,0.2,2.1,0.4,2.9c0.2,0.8,0.5,1.4,1,1.9s1.1,0.8,1.9,1.1c0.8,0.2,1.8,0.3,3,0.3
				c1.1,0,2.1-0.1,3-0.2c0.9-0.1,1.5-0.2,1.8-0.2c0.6,0,1,0.3,1,0.9v1.8c-0.7,0.3-1.6,0.5-2.7,0.7s-2.5,0.3-4,0.3
				c-1.6,0-3-0.2-4.1-0.6c-1.2-0.4-2.1-1-2.9-1.9s-1.3-2-1.7-3.4c-0.4-1.4-0.5-3.1-0.5-5.1s0.2-3.7,0.5-5.2c0.4-1.4,0.9-2.6,1.7-3.5
				c0.7-0.9,1.7-1.6,2.7-2c1.1-0.4,2.4-0.6,3.8-0.6c1.6,0,2.9,0.2,4,0.7c1,0.5,1.8,1.1,2.4,1.9s1,1.7,1.2,2.7s0.3,2.2,0.3,3.4
				c0,0.8,0,1.6-0.1,2.3c-0.1,0.8-0.2,1.3-0.3,1.7L379.1,40.7L379.1,40.7z M387.9,37.7c0-0.3,0-0.5,0-0.6s0-0.3,0-0.5
				c0-1.8-0.3-3.1-0.8-4c-0.5-0.9-1.6-1.4-3.2-1.4c-1,0-1.7,0.2-2.3,0.5c-0.6,0.3-1.1,0.7-1.5,1.3c-0.4,0.6-0.6,1.3-0.8,2.1
				c-0.2,0.8-0.2,1.7-0.3,2.7h8.9V37.7z"/>
		</g>
		<g>
			<path class="st0" d="M332.7,74.9c0-1.1,0-2.3-0.1-3.5c0-1.3-0.1-2.6-0.1-3.9s-0.1-2.6-0.1-3.9c0-1.3-0.1-2.5-0.1-3.6l-3.8,10.7
				h-2c-0.2,0-0.4-0.1-0.5-0.2c-0.1-0.1-0.2-0.3-0.2-0.5l-3.6-10c0,1.2-0.1,2.4-0.1,3.8c0,1.3-0.1,2.7-0.1,4c0,1.4-0.1,2.7-0.1,4
				c0,1.3,0,2.6,0,3.7h-2.1c-0.4,0-0.7-0.2-0.7-0.6c0-3,0.1-6.1,0.3-9.1c0.1-3.1,0.3-6.2,0.5-9.5h2.9c0.4,0,0.6,0.2,0.8,0.6
				l3.8,10.8l4.1-11.4h2.8c0.2,0,0.4,0.1,0.5,0.2c0.1,0.1,0.1,0.3,0.2,0.5c0.2,3.1,0.4,6.1,0.5,9.2c0.1,3.1,0.2,6.2,0.3,9.4h-2.2
				C332.9,75.6,332.7,75.4,332.7,74.9z"/>
			<path class="st0" d="M344.6,75.9c-2.1,0-3.6-0.6-4.5-1.8c-0.9-1.2-1.4-3.1-1.4-5.6c0-2.6,0.5-4.4,1.4-5.6
				c0.9-1.2,2.5-1.8,4.5-1.8c2.1,0,3.6,0.6,4.5,1.8c0.9,1.2,1.4,3.1,1.4,5.6c0,2.6-0.5,4.5-1.4,5.6
				C348.2,75.3,346.7,75.9,344.6,75.9z M347.7,68.5c0-1-0.1-1.8-0.2-2.5c-0.1-0.7-0.3-1.2-0.6-1.6c-0.3-0.4-0.6-0.7-1-0.8
				c-0.4-0.2-0.9-0.3-1.4-0.3c-0.5,0-1,0.1-1.4,0.3c-0.4,0.2-0.7,0.4-1,0.8c-0.3,0.4-0.4,0.9-0.6,1.6c-0.1,0.7-0.2,1.5-0.2,2.5
				c0,1,0.1,1.9,0.2,2.5c0.1,0.7,0.3,1.2,0.6,1.6c0.3,0.4,0.6,0.7,1,0.8c0.4,0.2,0.9,0.2,1.4,0.2c0.5,0,1-0.1,1.4-0.2
				c0.4-0.2,0.7-0.4,1-0.8c0.3-0.4,0.4-0.9,0.6-1.6C347.6,70.3,347.7,69.5,347.7,68.5z"/>
			<path class="st0" d="M355.5,55.6c0.6,0,0.8,0.3,0.8,0.8v5.8c0.4-0.3,0.9-0.6,1.5-0.8c0.6-0.2,1.3-0.4,2.1-0.4
				c0.8,0,1.5,0.1,2.1,0.4s1.1,0.7,1.6,1.3c0.4,0.6,0.8,1.4,1,2.3c0.2,0.9,0.3,2.1,0.3,3.4c0,1.3-0.1,2.4-0.3,3.4
				c-0.2,0.9-0.6,1.7-1.1,2.3c-0.5,0.6-1.1,1-1.9,1.3c-0.8,0.3-1.7,0.4-2.8,0.4c-1.1,0-2-0.1-2.8-0.3c-0.8-0.2-1.4-0.4-1.8-0.5
				c-0.2-0.1-0.4-0.2-0.5-0.3c-0.1-0.1-0.1-0.3-0.1-0.6V55.6H355.5z M356.4,73.4c0.4,0.1,0.7,0.2,1.1,0.2c0.4,0.1,0.8,0.1,1.3,0.1
				c0.6,0,1.1-0.1,1.5-0.2c0.4-0.1,0.8-0.4,1.1-0.8c0.3-0.4,0.5-0.9,0.6-1.6c0.1-0.7,0.2-1.5,0.2-2.6c0-1-0.1-1.8-0.2-2.5
				c-0.1-0.7-0.3-1.2-0.6-1.6s-0.6-0.7-0.9-0.9c-0.4-0.2-0.8-0.3-1.3-0.3c-0.6,0-1.1,0.1-1.6,0.3c-0.5,0.2-0.9,0.4-1.2,0.7V73.4z"/>
			<path class="st0" d="M369.5,59.2c-0.6,0-1.1-0.1-1.3-0.3c-0.3-0.2-0.4-0.6-0.4-1.2c0-0.5,0.1-0.9,0.4-1.2
				c0.3-0.2,0.7-0.4,1.3-0.4c0.6,0,1,0.1,1.3,0.4c0.3,0.2,0.4,0.6,0.4,1.2c0,0.6-0.1,1-0.4,1.2C370.5,59.1,370.1,59.2,369.5,59.2z
				 M370.9,75.6h-2.1c-0.4,0-0.7-0.2-0.7-0.6V61.4h2.1c0.4,0,0.7,0.2,0.7,0.6V75.6z"/>
			<path class="st0" d="M377.2,72.3c0,0.5,0.1,0.8,0.3,1c0.2,0.1,0.5,0.2,0.9,0.3c0.3,0,0.5,0.1,0.7,0.1c0.1,0.1,0.2,0.3,0.2,0.5
				v1.3c-0.3,0.1-0.6,0.2-0.9,0.2c-0.3,0-0.7,0.1-1,0.1c-0.6,0-1-0.1-1.4-0.3c-0.4-0.2-0.7-0.4-0.9-0.8c-0.2-0.4-0.4-0.8-0.5-1.3
				c-0.1-0.5-0.1-1.1-0.1-1.8V55.6h2.1c0.2,0,0.4,0.1,0.5,0.2c0.1,0.1,0.2,0.3,0.2,0.5V72.3z"/>
			<path class="st0" d="M383.4,69.5c0,0.7,0.1,1.4,0.3,1.9c0.1,0.5,0.3,0.9,0.7,1.3c0.3,0.3,0.7,0.6,1.2,0.7c0.5,0.1,1.2,0.2,2,0.2
				c0.7,0,1.4,0,2-0.1c0.6-0.1,1-0.1,1.2-0.1c0.4,0,0.6,0.2,0.6,0.6v1.2c-0.4,0.2-1.1,0.3-1.8,0.5s-1.7,0.2-2.7,0.2
				c-1.1,0-2-0.1-2.8-0.4c-0.8-0.3-1.4-0.7-1.9-1.3c-0.5-0.6-0.9-1.3-1.1-2.3c-0.2-0.9-0.4-2.1-0.4-3.4c0-1.3,0.1-2.5,0.4-3.4
				c0.2-0.9,0.6-1.7,1.1-2.3c0.5-0.6,1.1-1,1.8-1.3c0.7-0.3,1.6-0.4,2.5-0.4c1.1,0,2,0.2,2.6,0.5c0.7,0.3,1.2,0.7,1.6,1.2
				c0.4,0.5,0.7,1.1,0.8,1.8c0.1,0.7,0.2,1.4,0.2,2.2c0,0.5,0,1.1-0.1,1.6c-0.1,0.5-0.1,0.9-0.2,1.1H383.4z M389.3,67.6
				c0-0.2,0-0.3,0-0.4c0-0.1,0-0.2,0-0.4c0-1.2-0.2-2.1-0.5-2.7c-0.4-0.6-1.1-0.9-2.1-0.9c-0.6,0-1.1,0.1-1.6,0.3
				c-0.4,0.2-0.7,0.5-1,0.9c-0.2,0.4-0.4,0.8-0.5,1.4c-0.1,0.5-0.2,1.2-0.2,1.8H389.3z"/>
		</g>
	</g>
</g>
</svg>
