<svg xmlns="http://www.w3.org/2000/svg" width="24" height="24" viewBox="0 0 24 24">
  <g fill="none" fill-rule="evenodd">
    <path d="M0 0h24v24H0z"></path>
    <path
      fill="#4a8ee0"
      fill-rule="nonzero"
      d="M15.52 6.41L22 12.9l-6.49 6.48-6.49-6.48 6.5-6.49zm3.65 6.49l-3.66-3.66-3.65 3.66 3.66 3.66 3.65-3.66zM3.5 6.64A8.95 8.95 0 0 1 9.86 4V.76L14.1 5 9.86 9.24V6c-1.79 0-3.58.68-4.95 2.05a7.007 7.007 0 0 0 0 9.9 6.973 6.973 0 0 0 7.79 1.44l1.49 1.49A9.013 9.013 0 0 1 9.86 22c-2.3 0-4.61-.88-6.36-2.64a8.98 8.98 0 0 1 0-12.72z"
    ></path>
  </g>
</svg>
