<?xml version="1.0" encoding="utf-8"?>
<!-- Generator: Adobe Illustrator 22.1.0, SVG Export Plug-In . SVG Version: 6.00 Build 0)  -->
<svg version="1.1" id="Layer_1" xmlns="http://www.w3.org/2000/svg" xmlns:xlink="http://www.w3.org/1999/xlink" x="0px" y="0px"
	 viewBox="0 0 1000 1000" enable-background="new 0 0 1000 1000" xml:space="preserve">
<g>
	<path d="M101.7,173.2l3.1,3.9c7.9,8.3,61.8,24.7,122.6,37.4c60.9,12.6,157,27.6,269.1,27.6h7.7c112.3,0,208.3-15,269.1-27.6
		c60.1-12.5,113.7-28.9,122-37.5l3.5-4.7l1.3-9.2L899,158l-3.6-5.9c-4.7-4.2-10.2-5.6-20.4-5.5c-10.1,0.1-27.2,1.3-61.5,4
		c-29.1,2.2-77.8,5.9-133.5,8.8c-61.9,3.2-121.9,4.8-178.2,4.8c-0.5,0-1,0-1.5,0c-56.7-0.1-117.1-1.8-179.4-5
		c-53.3-2.7-99.5-6-133.8-8.7c-34.2-2.6-51.4-3.9-61.5-4c-0.4,0-0.7,0-1,0c-9.2,0-14.6,0.9-19.5,5.7l-2.6,3.4l-2.5,6.7l0.1,5.5
		L101.7,173.2z"/>
	<path d="M251.8,379.5L80,831.7h90.4l32.3-96.2h188.6l32.9,96.2h89.8L342.9,379.5H251.8z M224.7,668.9L297,454.4l72.3,214.5H224.7z"
		/>
	<path d="M802.4,646.3c73.6-13,116.9-53.6,116.9-131.1c0-95.6-66.5-135.7-177.6-135.7H549.9v452.2h82.7V650.8h87.9l108.5,180.8H920
		L802.4,646.3z M632.5,584.9V445.4h106.6c54.9,0,95.6,16.8,95.6,69.8c0,53-40.7,69.7-97.5,69.7H632.5z"/>
</g>
</svg>
