<?xml version="1.0" encoding="utf-8"?>
<!-- Generator: Adobe Illustrator 22.1.0, SVG Export Plug-In . SVG Version: 6.00 Build 0)  -->
<svg version="1.1" id="Layer_1" xmlns="http://www.w3.org/2000/svg" xmlns:xlink="http://www.w3.org/1999/xlink" x="0px" y="0px"
	 viewBox="0 0 1000 1000" enable-background="new 0 0 1000 1000" xml:space="preserve">
<g>
	<path d="M217,217C61,373.1,61,626.9,217,783s409.9,156,565.9,0s156-409.9,0-565.9S373.1,61,217,217z M758.4,758.4
		c-142.5,142.5-374.3,142.5-516.7,0s-142.5-374.3,0-516.7s374.3-142.5,516.7,0S900.8,615.9,758.4,758.4z"/>
	<path d="M623,327.8l-123,123l-123-123c-13.6-13.6-35.6-13.6-49.2,0s-13.6,35.6,0,49.2l123,123l-123,123
		c-13.6,13.6-13.6,35.6,0,49.2c13.6,13.6,35.6,13.6,49.2,0l123-123l123,123c13.6,13.6,35.6,13.6,49.2,0c13.6-13.6,13.6-35.6,0-49.2
		l-123-123l123-123c13.6-13.6,13.6-35.6,0-49.2C658.7,314.2,636.6,314.2,623,327.8z"/>
</g>
</svg>
