<?xml version="1.0" encoding="utf-8"?>
<!-- Generator: Adobe Illustrator 22.1.0, SVG Export Plug-In . SVG Version: 6.00 Build 0)  -->
<svg version="1.1" id="Layer_1" xmlns="http://www.w3.org/2000/svg" xmlns:xlink="http://www.w3.org/1999/xlink" x="0px" y="0px"
	 viewBox="0 0 1000 1000" enable-background="new 0 0 1000 1000" xml:space="preserve">
<g>
	<path d="M240,340h120c11.1,0,20-8.9,20-20s-8.9-20-20-20H240c-11.1,0-20,8.9-20,20S228.9,340,240,340z"/>
	<path d="M460,440c0-11.1-8.9-20-20-20H240c-11.1,0-20,8.9-20,20s8.9,20,20,20h200C451.1,460,460,451.1,460,440z"/>
	<path d="M420,560c0-11.1-8.9-20-20-20H240c-11.1,0-20,8.9-20,20s8.9,20,20,20h160C411.1,580,420,571.1,420,560z"/>
	<path d="M240,660c-11.1,0-20,8.9-20,20s8.9,20,20,20h120c11.1,0,20-8.9,20-20s-8.9-20-20-20H240z"/>
	<path d="M680,460c-121.3,0-220,98.7-220,220s98.7,220,220,220s220-98.7,220-220S801.3,460,680,460z M680,860
		c-99.3,0-180-80.7-180-180s80.7-180,180-180s180,80.7,180,180S779.3,860,680,860z"/>
	<path d="M440,780H140V140h320v180c0,11.1,8.9,20,20,20h180v60c0,11.1,8.9,20,20,20s20-8.9,20-20V300c0-5.7-2.4-11.1-6.6-14.9
		l-200-180c-1-0.9-2.2-1.4-3.3-2c-0.9-0.5-1.7-1.2-2.7-1.6c-2.3-0.9-4.8-1.5-7.4-1.5H120c-11.1,0-20,8.9-20,20v680
		c0,11.1,8.9,20,20,20h320c11.1,0,20-8.9,20-20S451.1,780,440,780z M500,164.9L650.1,300H500V164.9z"/>
	<path d="M760,700h-60V600c0-11.1-8.9-20-20-20s-20,8.9-20,20v120c0,11.1,8.9,20,20,20h80c11.1,0,20-8.9,20-20S771.1,700,760,700z"
		/>
</g>
</svg>
