<?xml version="1.0" encoding="UTF-8"?>
<svg width="20px" height="20px" viewBox="0 0 20 20" version="1.1" xmlns="http://www.w3.org/2000/svg" xmlns:xlink="http://www.w3.org/1999/xlink">
    <!-- Generator: Sketch 52.6 (67491) - http://www.bohemiancoding.com/sketch -->
    <g id="icn/accurouteJobs20" stroke="none" stroke-width="1" fill="none" fill-rule="evenodd">
        <path d="M17,7 L17,6 L3,6 L3,15.5 C3,15.7761424 2.77614237,16 2.5,16 C2.22385763,16 2,15.7761424 2,15.5 L2,5.5 C2,5.22385763 2.22385763,5 2.5,5 L15,5 L15,4 L6.5,4 C6.36739176,4 6.2402148,3.94732158 6.14644661,3.85355339 L4.29289322,2 L1,2 L1,13.5 C1,13.7761424 0.776142375,14 0.5,14 C0.223857625,14 0,13.7761424 0,13.5 L0,1.5 C0,1.22385763 0.223857625,1 0.5,1 L4.5,1 C4.63260824,1 4.7597852,1.05267842 4.85355339,1.14644661 L6.70710678,3 L15.5,3 C15.7761424,3 16,3.22385763 16,3.5 L16,5 L17.5,5 C17.7761424,5 18,5.22385763 18,5.5 L18,7 L19.5,7 C19.7761424,7 20,7.22385763 20,7.5 L20,17.5 C20,17.7761424 19.7761424,18 19.5,18 L4.5,18 C4.22385763,18 4,17.7761424 4,17.5 L4,7.5 C4,7.22385763 4.22385763,7 4.5,7 L17,7 Z M5,17 L19,17 L19,8 L5,8 L5,17 Z" id="icnAccuRouteJobs" fill="#151515"></path>
    </g>
</svg>
