<?xml version="1.0" encoding="utf-8"?>
<!-- Generator: Adobe Illustrator 22.1.0, SVG Export Plug-In . SVG Version: 6.00 Build 0)  -->
<svg version="1.1" id="Layer_1" xmlns="http://www.w3.org/2000/svg" xmlns:xlink="http://www.w3.org/1999/xlink" x="0px" y="0px"
	 viewBox="0 0 1000 1000" enable-background="new 0 0 1000 1000" xml:space="preserve">
<g>
	<path d="M240.6,341h120.5c11.1,0,20.1-9,20.1-20.1s-9-20.1-20.1-20.1H240.6c-11.1,0-20.1,9-20.1,20.1S229.5,341,240.6,341z"/>
	<path d="M461.5,441.5c0-11.1-9-20.1-20.1-20.1H240.6c-11.1,0-20.1,9-20.1,20.1c0,11.1,9,20.1,20.1,20.1h200.9
		C452.6,461.5,461.5,452.6,461.5,441.5z"/>
	<path d="M421.4,562c0-11.1-9-20.1-20.1-20.1H240.6c-11.1,0-20.1,9-20.1,20.1s9,20.1,20.1,20.1h160.7
		C412.4,582.1,421.4,573.1,421.4,562z"/>
	<path d="M240.6,662.4c-11.1,0-20.1,9-20.1,20.1s9,20.1,20.1,20.1h120.5c11.1,0,20.1-9,20.1-20.1s-9-20.1-20.1-20.1H240.6z"/>
	<path d="M481.6,341h180.8v60.3c0,11.1,9,20.1,20.1,20.1s20.1-9,20.1-20.1V300.9c0-5.7-2.4-11.1-6.6-14.9L495.1,105.2
		c-1-0.9-2.2-1.4-3.3-2c-0.9-0.5-1.7-1.2-2.7-1.6c-2.4-1-4.9-1.5-7.5-1.5H120.1c-11.1,0-20.1,9-20.1,20.1V803
		c0,11.1,9,20.1,20.1,20.1h321.4c11.1,0,20.1-9,20.1-20.1s-9-20.1-20.1-20.1H140.2V140.2h321.4v180.8C461.5,332,470.5,341,481.6,341
		z M501.7,165.2l150.7,135.7H501.7V165.2z"/>
	<path d="M682.5,465C562.4,465,465,562.4,465,682.5S562.4,900,682.5,900S900,802.6,900,682.5S802.6,465,682.5,465z M811.5,635.6
		L650.2,796.9c-4,4.1-10.6,4.1-14.7,0l-3.3-3.3l-3.4-3.5l-15.3-15.3c-0.1-0.1,0-0.1-0.1-0.2l-69.9-70.4c-4.1-4.1-4.1-10.6,0-14.7
		l22-22c4.1-4,10.7-4,14.7,0l62.7,63.2l131.9-131.9c4-4.1,10.6-4.1,14.7,0l22,22C815.6,625,815.6,631.5,811.5,635.6z"/>
</g>
</svg>
