<?xml version="1.0" encoding="utf-8"?>
<!-- Generator: Adobe Illustrator 22.1.0, SVG Export Plug-In . SVG Version: 6.00 Build 0)  -->
<svg version="1.1" id="Layer_1" xmlns="http://www.w3.org/2000/svg" xmlns:xlink="http://www.w3.org/1999/xlink" x="0px" y="0px"
	 viewBox="0 0 1000 1000" enable-background="new 0 0 1000 1000" xml:space="preserve">
<path d="M461.4,151.7c97.9,3.6,190.6,48.4,254.2,122.9c48.5,56.8,76.5,126.8,82,202.3l61.5-92.3c6.8-10.2,20.7-13.1,30.9-6.2
	c10.3,6.8,13,20.7,6.2,30.9l-103,154.5c-3.9,5.8-10.2,9.4-17.1,9.9c-0.5,0-1,0.1-1.5,0.1c-6.4,0-12.5-2.8-16.8-7.6L637.7,428.9
	c-8.1-9.3-7.2-23.4,2.1-31.5c9.2-8.1,23.3-7.2,31.5,2.1l82.1,93.8c-2.4-71-26.9-137.1-71.8-189.7c-55.5-65-136.4-104.1-221.8-107.3
	c-166.8-6-308.7,125.1-314.9,292.5c-6.1,167.5,125.1,308.7,292.5,314.9c122.6,4.5,235.3-64.6,287-176c5.2-11.2,18.5-16.1,29.6-10.9
	c11.2,5.2,16,18.5,10.9,29.6c-57.5,123.8-180.6,202-316.2,202c-4.3,0-8.7-0.1-13-0.3c-192-7.1-342.5-169-335.5-361.1
	C107.3,295.2,267.8,144,461.4,151.7z"/>
</svg>
