<?xml version="1.0" encoding="utf-8"?>
<!-- Generator: Adobe Illustrator 22.1.0, SVG Export Plug-In . SVG Version: 6.00 Build 0)  -->
<svg version="1.1" id="Layer_1" xmlns="http://www.w3.org/2000/svg" xmlns:xlink="http://www.w3.org/1999/xlink" x="0px" y="0px"
	 viewBox="0 0 1000 1000" enable-background="new 0 0 1000 1000" xml:space="preserve">
<g>
	<path d="M486,721.1c1.8,1.8,4,3.3,6.5,4.3c2.4,1,5,1.5,7.6,1.5s5.1-0.5,7.6-1.5c2.4-1,4.6-2.5,6.5-4.3l210.7-210.7
		c7.7-7.7,7.7-20.3,0-28c-7.7-7.7-20.3-7.7-28.1,0L519.8,659.2V127.6c0-10.9-8.9-19.8-19.8-19.8s-19.8,8.9-19.8,19.8v531.6
		L303.3,482.4c-7.7-7.7-20.3-7.7-28.1,0c-7.7,7.7-7.7,20.3,0,28L486,721.1z"/>
	<path d="M880.2,687.3c-11,0-19.8,8.9-19.8,19.8v145.5H139.7V707.1c0-10.9-8.9-19.8-19.8-19.8s-19.8,8.9-19.8,19.8v165.3
		c0,10.9,8.9,19.8,19.8,19.8h760.3c11,0,19.8-8.9,19.8-19.8V707.1C900,696.2,891.1,687.3,880.2,687.3z"/>
</g>
</svg>
