<?xml version="1.0" ?><!DOCTYPE svg  PUBLIC '-//W3C//DTD SVG 1.1//EN'  'http://www.w3.org/Graphics/SVG/1.1/DTD/svg11.dtd'><svg height="8.4666mm" style="shape-rendering:geometricPrecision; text-rendering:geometricPrecision; image-rendering:optimizeQuality; fill-rule:evenodd; clip-rule:evenodd" version="1.1" viewBox="0 0 846.66 846.66" width="8.4666mm" xml:space="preserve" xmlns="http://www.w3.org/2000/svg" xmlns:xlink="http://www.w3.org/1999/xlink"><defs><style type="text/css">
   <![CDATA[
    .fil0 {fill:black;fill-rule:nonzero}
   ]]>
  </style></defs><g id="Layer_x0020_1"><path class="fil0" d="M118.3 7.47l610.06 0c11.49,0 20.8,9.32 20.8,20.81l0 678.21 44.86 0c11.49,0 20.81,9.32 20.81,20.81l0 91.08c0,11.49 -9.32,20.81 -20.81,20.81l-741.38 0c-11.49,0 -20.8,-9.32 -20.8,-20.81l0 -91.08c0,-11.49 9.31,-20.81 20.8,-20.81l44.86 0 0 -678.21c0,-11.49 9.32,-20.81 20.8,-20.81zm105.39 298.29l91.08 0 0 91.09 -91.08 0 0 -91.09zm308.2 0l91.09 0 0 91.09 -91.09 0 0 -91.09zm-154.1 0l91.08 0 0 91.09 -91.08 0 0 -91.09zm-154.1 -150.4l91.08 0 0 91.09 -91.08 0 0 -91.09zm308.2 0l91.09 0 0 91.09 -91.09 0 0 -91.09zm-154.1 0l91.08 0 0 91.09 -91.08 0 0 -91.09zm78.75 551.13l0 -149.03 -66.42 0 0 149.03 66.42 0zm-108.03 0l0 -169.84c0,-11.48 9.32,-20.8 20.81,-20.8l108.03 0c11.48,0 20.8,9.32 20.8,20.8l0 169.84 209.4 0 0 -657.41 -568.44 0 0 657.41 209.4 0zm-275.07 41.61l0 49.48 699.78 0 0 -49.48c-233.26,0 -466.52,0 -699.78,0z"/></g></svg>