<?xml version="1.0" encoding="utf-8"?>
<!-- Generator: Adobe Illustrator 23.0.3, SVG Export Plug-In . SVG Version: 6.00 Build 0)  -->
<svg version="1.1" id="Layer_1" xmlns="http://www.w3.org/2000/svg" xmlns:xlink="http://www.w3.org/1999/xlink" x="0px" y="0px"
	 width="20px" height="20px" viewBox="0 0 20 20" style="enable-background:new 0 0 20 20;" xml:space="preserve">
<style type="text/css">
	.st0{fill:#FFFFFF;stroke:#000000;stroke-miterlimit:10;}
	.st1{fill:#FFFFFF;}
	.st2{fill:#DD0000;}
</style>
<polygon class="st0" points="-2.8,4.4 -2.8,4.4 -2.8,4.4 "/>
<polygon class="st0" points="-3.8,2.1 -3.8,2.1 -3.8,2.1 -3.8,2.1 -3.8,2.1 "/>
<g>
	<polygon class="st1" points="6.5,1.9 1.7,6.7 1.7,13.5 6.5,18.3 13.4,18.3 18.2,13.5 18.2,6.7 13.4,1.9 	"/>
</g>
<path class="st2" d="M13.4,1.9l4.8,4.8v6.8l-4.8,4.8H6.5l-4.8-4.8V6.7l4.8-4.8L13.4,1.9 M13.4,0.4H6.5c-0.4,0-0.8,0.2-1.1,0.4
	L0.6,5.6C0.4,5.9,0.2,6.3,0.2,6.7v6.8c0,0.4,0.2,0.8,0.4,1.1l4.8,4.8c0.3,0.3,0.7,0.4,1.1,0.4h6.8c0.4,0,0.8-0.2,1.1-0.4l4.8-4.8
	c0.3-0.3,0.4-0.7,0.4-1.1V6.7c0-0.4-0.2-0.8-0.4-1.1l-4.8-4.8C14.1,0.5,13.8,0.4,13.4,0.4L13.4,0.4z"/>
</svg>
