<?xml version="1.0" encoding="UTF-8"?>
<svg width="5px" height="45px" viewBox="0 0 5 45" version="1.1" xmlns="http://www.w3.org/2000/svg" xmlns:xlink="http://www.w3.org/1999/xlink">
    <!-- Generator: Sketch 40.3 (33839) - http://www.bohemiancoding.com/sketch -->
    <title>Group 2</title>
    <desc>Created with Sketch.</desc>
    <defs></defs>
    <g id="Master" stroke="none" stroke-width="1" fill="none" fill-rule="evenodd">
        <g id="Table-4-Create-Expense" transform="translate(-275.000000, -296.000000)" fill="#767676">
            <g id="Table" transform="translate(85.000000, 148.000000)">
                <g id="Content">
                    <g id="Column-Header" transform="translate(0.000000, 148.000000)">
                        <g id="Column-Header-Copy" transform="translate(190.000000, 0.000000)">
                            <g id="Group-2">
                                <rect id="Rectangle-5" x="2" y="0" width="1" height="45"></rect>
                                <rect id="Rectangle-5" x="1" y="1" width="1" height="1"></rect>
                                <rect id="Rectangle-5" x="3" y="1" width="1" height="1"></rect>
                                <rect id="Rectangle-5" x="0" y="0" width="1" height="1"></rect>
                                <rect id="Rectangle-5" x="1" y="0" width="1" height="1"></rect>
                                <rect id="Rectangle-5" x="3" y="0" width="1" height="1"></rect>
                                <rect id="Rectangle-5" x="4" y="0" width="1" height="1"></rect>
                                <rect id="Rectangle-5" x="1" y="43" width="1" height="1"></rect>
                                <rect id="Rectangle-5" x="3" y="43" width="1" height="1"></rect>
                                <rect id="Rectangle-5" x="0" y="44" width="1" height="1"></rect>
                                <rect id="Rectangle-5" x="1" y="44" width="1" height="1"></rect>
                                <rect id="Rectangle-5" x="3" y="44" width="1" height="1"></rect>
                                <rect id="Rectangle-5" x="4" y="44" width="1" height="1"></rect>
                            </g>
                        </g>
                    </g>
                </g>
            </g>
        </g>
    </g>
</svg>