<?xml version="1.0" encoding="utf-8"?>
<!-- Generator: Adobe Illustrator 16.0.0, SVG Export Plug-In . SVG Version: 6.00 Build 0)  -->
<!DOCTYPE svg PUBLIC "-//W3C//DTD SVG 1.1//EN" "http://www.w3.org/Graphics/SVG/1.1/DTD/svg11.dtd">
<svg version="1.1" id="Layer_1" xmlns="http://www.w3.org/2000/svg" xmlns:xlink="http://www.w3.org/1999/xlink" x="0px" y="0px"
	 width="5px" height="28px" viewBox="0 0 5 28" enable-background="new 0 0 5 28" xml:space="preserve">
<title>Slide</title>
<desc>Created with Sketch.</desc>
<g id="Master">
	<g id="Table-2-Project-Schedule" transform="translate(-762.000000, -240.000000)">
		<g id="Table" transform="translate(85.000000, 148.000000)">
			<g id="Content" transform="translate(0.000000, 8.000000)">
				<g id="EXPANDED-1" transform="translate(0.000000, 37.000000)">
					<g id="Column-Header" transform="translate(0.000000, 47.000000)">
						<g id="Column-Header-Copy-4" transform="translate(677.000000, 0.000000)">
							<g id="Slide">
								<g id="Group-2">
									<rect id="Rectangle-5" x="2" fill="#767676" width="1" height="28"/>
									<rect id="Rectangle-5_1_" x="1" y="1" fill="#767676" width="1" height="1"/>
									<rect id="Rectangle-5_2_" x="3" y="1" fill="#767676" width="1" height="1"/>
									<rect id="Rectangle-5_3_" fill="#767676" width="1" height="1"/>
									<rect id="Rectangle-5_4_" x="1" fill="#767676" width="1" height="1"/>
									<rect id="Rectangle-5_5_" x="3" fill="#767676" width="1" height="1"/>
									<rect id="Rectangle-5_6_" x="4" fill="#767676" width="1" height="1"/>
									<rect id="Rectangle-5_7_" x="1" y="26" fill="#767676" width="1" height="1"/>
									<rect id="Rectangle-5_8_" x="3" y="26" fill="#767676" width="1" height="1"/>
									<rect id="Rectangle-5_9_" y="27" fill="#767676" width="1" height="1"/>
									<rect id="Rectangle-5_10_" x="1" y="27" fill="#767676" width="1" height="1"/>
									<rect id="Rectangle-5_11_" x="3" y="27" fill="#767676" width="1" height="1"/>
									<rect id="Rectangle-5_12_" x="4" y="27" fill="#767676" width="1" height="1"/>
								</g>
							</g>
						</g>
					</g>
				</g>
			</g>
		</g>
	</g>
</g>
</svg>
