<?xml version="1.0" encoding="UTF-8" standalone="no"?>
<svg
   xmlns:dc="http://purl.org/dc/elements/1.1/"
   xmlns:cc="http://creativecommons.org/ns#"
   xmlns:rdf="http://www.w3.org/1999/02/22-rdf-syntax-ns#"
   xmlns:svg="http://www.w3.org/2000/svg"
   xmlns="http://www.w3.org/2000/svg"
   xmlns:sodipodi="http://sodipodi.sourceforge.net/DTD/sodipodi-0.dtd"
   xmlns:inkscape="http://www.inkscape.org/namespaces/inkscape"
   width="15.4"
   height="14"
   viewBox="0 0 15.4 14"
   version="1.1"
   id="svg3741"
   sodipodi:docname="icnImport.svg"
   inkscape:version="0.92.4 (5da689c313, 2019-01-14)">
  <defs
     id="defs13" />
  <sodipodi:namedview
     pagecolor="#ffffff"
     bordercolor="#666666"
     borderopacity="1"
     objecttolerance="10"
     gridtolerance="10"
     guidetolerance="10"
     inkscape:pageopacity="0"
     inkscape:pageshadow="2"
     inkscape:window-width="955"
     inkscape:window-height="480"
     id="namedview11"
     showgrid="false"
     inkscape:zoom="16.857143"
     inkscape:cx="0.37372862"
     inkscape:cy="7"
     inkscape:window-x="0"
     inkscape:window-y="0"
     inkscape:window-maximized="0"
     inkscape:current-layer="svg3741" />
  <metadata
     id="metadata3747">
    <rdf:RDF>
      <cc:Work
         rdf:about="">
        <dc:format>image/svg+xml</dc:format>
        <dc:type
           rdf:resource="http://purl.org/dc/dcmitype/StillImage" />
        <dc:title>icnImport</dc:title>
      </cc:Work>
    </rdf:RDF>
  </metadata>
  <!-- Generator: Sketch 52.4 (67378) - http://www.bohemiancoding.com/sketch -->
  <title
     id="title3731">icnImport</title>
  <desc
     id="desc3733">Created with Sketch.</desc>
  <g
     style="fill:#151515;fill-rule:nonzero;stroke:none;stroke-width:1"
     transform="matrix(1,0,0,-1,-199.9,98.9)"
     id="Capture-Icons">
    <g
       transform="translate(200,85)"
       id="icnImport">
      <path
         inkscape:connector-curvature="0"
         id="Stroke-925"
         d="m 8.1,13.288919 c 0,0.184141 -0.2238576,0.333417 -0.5,0.333417 -0.2761424,0 -0.5,-0.149276 -0.5,-0.333417 V 6.3538211 C 7.1,6.1696794 7.3238576,6.020403 7.6,6.020403 c 0.2761424,0 0.5,0.1492764 0.5,0.3334181 z"
         style="stroke-width:0.8166005" />
      <path
         inkscape:connector-curvature="0"
         id="Stroke-926"
         d="m 10.446447,7.91286 c 0.195262,0.195262 0.511844,0.195262 0.707106,0 0.195263,-0.195262 0.195263,-0.511844 0,-0.707106 l -3.1999999,-3.2 c -0.1952622,-0.195263 -0.5118446,-0.195263 -0.7071068,0 l -3.2,3.2 c -0.1952621,0.195262 -0.1952621,0.511844 0,0.707106 0.1952622,0.195262 0.5118446,0.195262 0.7071068,0 L 7.5999997,5.066414 Z" />
      <path
         inkscape:connector-curvature="0"
         id="Path"
         d="m 0.9,9.9 h 3.5 c 0.2761424,0 0.5,0.223858 0.5,0.5 0,0.276142 -0.2238576,0.5 -0.5,0.5 h -4 c -0.27614237,0 -0.5,-0.223858 -0.5,-0.5 v -10 c 0,-0.27614237 0.22385763,-0.5 0.5,-0.5 h 14.4 c 0.276142,0 0.5,0.22385763 0.5,0.5 v 10 c 0,0.276142 -0.223858,0.5 -0.5,0.5 h -4 c -0.276142,0 -0.5,-0.223858 -0.5,-0.5 0,-0.276142 0.260242,-0.362995 0.5,-0.5 h 3.5 v -9 H 0.9 Z"
         sodipodi:nodetypes="csssssssssssssscccc" />
    </g>
  </g>
</svg>
