<?xml version="1.0" encoding="utf-8"?>
<!-- Generator: Adobe Illustrator 22.1.0, SVG Export Plug-In . SVG Version: 6.00 Build 0)  -->
<svg version="1.1" id="Layer_1" xmlns="http://www.w3.org/2000/svg" xmlns:xlink="http://www.w3.org/1999/xlink" x="0px" y="0px"
	 viewBox="0 0 1000 1000" enable-background="new 0 0 1000 1000" xml:space="preserve">
<g>
	<path d="M898.9,133.1l-3.6-5.9c-4.7-4.2-10.2-5.6-20.4-5.4c-10.1,0.1-27.2,1.3-61.5,4c-29.1,2.2-77.8,5.9-133.5,8.8
		c-61.9,3.2-121.9,4.8-178.1,4.8c-0.5,0-1,0-1.5,0c-56.7-0.1-117.1-1.8-179.4-5c-53.3-2.7-99.5-6-133.8-8.7
		c-34.2-2.6-51.4-3.9-61.5-4c-0.4,0-0.7,0-1,0c-9.2,0-14.6,0.9-19.5,5.7l-2.6,3.4l-2.5,6.7l0.1,5.5l1.6,5.2l3.1,3.9
		c7.9,8.3,61.8,24.7,122.6,37.3c60.9,12.6,157,27.6,269,27.6h7.7c112.2,0,208.3-15,269.1-27.6c60.1-12.5,113.7-28.9,122-37.5
		l3.5-4.7l1.3-9.2L898.9,133.1z"/>
	<polygon points="159.2,809.1 231.4,809.1 231.4,610.1 411.8,610.1 411.8,546.1 231.4,546.1 231.4,411.8 457.4,411.8 457.4,347.1 
		159.2,347.1 	"/>
	<path d="M760.2,563.2c27.9-15.4,56.4-47.6,56.4-98.9c0-74.5-58.9-117.2-161.7-117.2H492v462h193.4c98.8,0,155.4-46.4,155.4-127.3
		C840.7,615.1,801.7,578.2,760.2,563.2z M564.1,408.6H655c58.6,0,90.8,22.5,90.8,63.3c0,58.9-65.8,65.3-94,65.3h-87.7V408.6z
		 M679.6,747.6H564.1V596.8h92.2c75.4,0,113.6,25.8,113.6,76.7C769.9,720.6,737,747.6,679.6,747.6z"/>
</g>
</svg>
