<?xml version="1.0" encoding="utf-8"?>
<!-- Svg Vector Icons : http://www.onlinewebfonts.com/icon -->
<!DOCTYPE svg PUBLIC "-//W3C//DTD SVG 1.1//EN" "http://www.w3.org/Graphics/SVG/1.1/DTD/svg11.dtd">
<svg version="1.1" xmlns="http://www.w3.org/2000/svg" xmlns:xlink="http://www.w3.org/1999/xlink" x="0px" y="0px" viewBox="0 0 1000 1000" enable-background="new 0 0 1000 1000" xml:space="preserve">
<metadata> Svg Vector Icons : http://www.onlinewebfonts.com/icon </metadata>
<g><g transform="translate(0.000000,512.000000) scale(0.100000,-0.100000)"><path d="M3469,4989.3c-78.5-51.7-2488.2-2463.4-2518.9-2518.9c-23-44-26.8-549.3-26.8-3573.5c0-2689.2,5.7-3533.3,23-3571.6c49.8-111-179.9-105.3,3646.2-105.3c3452.9,0,3519.9,0,3579.2,38.3c97.6,59.3,105.3,109.1,97.6,828.8l-5.7,648.9l-63.2,55.5c-86.1,76.6-189.5,76.6-275.6,0l-63.1-55.5l-5.7-557l-5.7-557H4588.7H1325.3v3273v3273h1148.4c782.8,0,1161.8,5.7,1192.4,21c24.9,11.5,59.3,44,76.6,74.7c28.7,47.8,32.5,164.6,32.5,1203.9V4618h2038.4h2038.5V2663.7c0-2166.7-7.7-2049.9,124.4-2111.2c78.5-38.3,93.8-38.3,172.3,0c132.1,61.2,124.4-67,124.4,2216.5c0,1738-3.8,2071-26.8,2126.5c-55.5,132.1,105.3,124.4-2436.6,124.4C3719.7,5019.9,3511.1,5018,3469,4989.3z M3373.3,3440.8V2570h-874.7h-876.6l870.9,870.9c478.5,478.5,872.8,870.9,874.7,870.9C3371.4,4311.7,3373.3,3919.3,3373.3,3440.8z"/><path d="M2253.6,97c-70.8-38.3-105.3-99.5-105.3-183.7c0-67,11.5-93.8,55.5-139.7l55.5-55.5h346.4h346.4l3.8-1169.5l5.7-1169.5l63.2-55.5c72.7-65.1,178-74.7,250.7-24.9c97.6,68.9,97.6,74.7,97.6,1290.1V-282h346.4h346.4l55.5,55.5c91.9,93.8,65.1,271.8-49.8,323.5C4004.9,127.6,2309.1,129.6,2253.6,97z"/><path d="M4703.5,97c-21.1-11.5-53.6-38.3-70.8-61.3c-30.6-36.4-34.4-137.8-34.4-1347.5v-1309.2l55.5-55.5c91.9-90,248.8-70.8,313.9,40.2c28.7,47.9,32.5,174.2,32.5,1339.8V-10.2l-65.1,65.1C4866.2,123.8,4780.1,139.1,4703.5,97z"/><path d="M5503.6,81.7c-40.2-23-68.9-61.3-82.3-109.1C5406-79.1,5402.2-481,5406-1359.6l5.7-1261.4l63.2-55.5c72.7-65.1,178-74.7,250.8-24.9c89.9,63.2,97.6,122.5,97.6,677.6v516.8h346.4h346.5l55.5,55.5c61.3,61.3,72.8,151.2,32.5,241.2c-42.1,91.9-97.6,105.3-455.5,105.3h-325.4v411.5V-282h543.6c514.9,0,545.5,1.9,591.4,38.3c72.7,57.4,99.5,153.1,63.2,235.4c-51.7,126.3-67,128.2-800.1,128.2C5605,120,5561,118.1,5503.6,81.7z"/><path d="M7515.3,54.9l-65.1-65.1v-1284.3c0-953.2,5.7-1295.8,23-1332.2c49.8-107.2,222-139.7,315.8-59.3l53.6,45.9l9.6,562.7l9.6,560.8l344.5,9.6c189.5,5.7,357.9,17.2,375.2,24.9c45.9,23,93.8,118.7,93.8,185.7c0,44-19.1,80.4-65.1,126.3L8545-1105h-346.4h-346.4l3.8,407.7l5.7,405.8l560.8,9.6l562.7,9.6l45.9,53.6c51.7,59.3,59.4,153.1,23,233.5c-45.9,101.4-70.8,105.3-802,105.3h-671.8L7515.3,54.9z"/></g></g>
</svg>