<?xml version="1.0" encoding="UTF-8"?>
<svg width="15px" height="14px" viewBox="0 0 15 14" version="1.1" xmlns="http://www.w3.org/2000/svg" xmlns:xlink="http://www.w3.org/1999/xlink">
    <!-- Generator: Sketch 53 (72520) - https://sketchapp.com -->
    <title>icnAddGadget</title>
    <desc>Created with Sketch.</desc>
    <g id="Symbols" stroke="none" stroke-width="1" fill="none" fill-rule="evenodd">
        <g id="icn/addGadget" transform="translate(0.000000, -1.000000)" fill="#000000" fill-rule="nonzero">
            <g id="icnAddGadget" transform="translate(0.000000, 1.000000)">
                <path d="M14.5,3 C14.7761424,3 15,3.22385763 15,3.5 L15,13.5 C15,13.7761424 14.7761424,14 14.5,14 L0.5,14 C0.223857625,14 -1.15463195e-14,13.7761424 -1.15463195e-14,13.5 L-1.15463195e-14,3.5 C-1.15463195e-14,3.22385763 0.223857625,3 0.5,3 L14.5,3 Z M1,4 L1,13 L14,13 L14,4 L1,4 Z" id="Stroke-71"></path>
                <path d="M1,4.5 C1,4.77614237 0.776142375,5 0.5,5 C0.223857625,5 1.21241623e-15,4.77614237 1.11022302e-15,4.5 L0,1.5 C8.14441612e-14,0.681268094 0.0149741298,0.536874699 0.251139033,0.283840875 C0.49943919,0.0178049915 0.649001119,2.44591899e-15 1.43333333,1.53210777e-14 L13.5666667,0 C14.784146,0 15,0.231272165 15,1.5 L15,4.5 C15,4.77614237 14.7761424,5 14.5,5 C14.2238576,5 14,4.77614237 14,4.5 L14,1.5 C14,0.768727835 14.215854,1 13.5666667,1 L1.43333333,1 C1.05099888,1 0.93806081,1.01344501 0.982194301,0.966159125 C1.01419254,0.931875301 1,1.06873191 1,1.5 L1,4.5 Z" id="Stroke-72"></path>
                <path d="M7,6.5 C7,6.22385763 7.22385763,6 7.5,6 C7.77614237,6 8,6.22385763 8,6.5 L8,10.5 C8,10.7761424 7.77614237,11 7.5,11 C7.22385763,11 7,10.7761424 7,10.5 L7,6.5 Z" id="Stroke-75"></path>
                <path d="M9.5,8 C9.77614237,8 10,8.22385763 10,8.5 C10,8.77614237 9.77614237,9 9.5,9 L5.5,9 C5.22385763,9 5,8.77614237 5,8.5 C5,8.22385763 5.22385763,8 5.5,8 L9.5,8 Z" id="Stroke-76"></path>
            </g>
        </g>
    </g>
</svg>