<?xml version="1.0" encoding="UTF-8"?>
<svg width="20px" height="20px" viewBox="0 0 20 20" version="1.1" xmlns="http://www.w3.org/2000/svg" xmlns:xlink="http://www.w3.org/1999/xlink">
    <!-- Generator: Sketch 52.6 (67491) - http://www.bohemiancoding.com/sketch -->
    <title>icn/workCenterInbox20</title>
    <desc>Created with Sketch.</desc>
    <g id="icn/workCenterInbox20" stroke="none" stroke-width="1" fill="none" fill-rule="evenodd">
        <path d="M9.89126647,9.81150521 C9.79986031,9.92612674 9.6591124,9.99969323 9.50110395,9.99999906 C9.34635406,10.0002986 9.207888,9.9302644 9.1159597,9.82003354 L6.61588936,6.8200922 C6.43910732,6.60795375 6.46776935,6.2926714 6.6799078,6.11588936 C6.89204625,5.93910732 7.2073286,5.96776935 7.38411064,6.1799078 L8.99745633,8.11592263 L8.98271736,0.500967763 C8.98218288,0.224825905 9.2056068,0.000535417294 9.48174866,9.36566109e-07 C9.75789052,-0.000533544162 9.982181,0.222890379 9.98271548,0.499032237 L9.99746999,8.12201105 L11.6158894,6.1799078 C11.7926714,5.96776935 12.1079538,5.93910732 12.3200922,6.11588936 C12.5322306,6.2926714 12.5608927,6.60795375 12.3841106,6.8200922 L9.89126647,9.81150521 Z M19,13.5050506 L19,19.5 C19,19.7761424 18.7761424,20 18.5,20 L0.5,20 C0.223857625,20 -1.33226763e-15,19.7761424 -1.33226763e-15,19.5 L-1.33226763e-15,13.5114262 C-0.00254692862,13.4031824 0.0298889864,13.2933319 0.0998957291,13.199993 L3.10000526,9.19999299 C3.1944328,9.07409419 3.34262443,9 3.5,9 L5.5,9 C5.77614237,9 6,9.22385763 6,9.5 C6,9.77614237 5.77614237,10 5.5,10 L3.74999452,10 L1.49991238,13 L6.49885023,13 C6.77476812,13 6.99853266,13.2235074 6.9988499,13.4994251 L7,14.5 C7,15.2563274 7.51411792,16 8,16 L11.0301867,16 C11.5075109,16 12,15.2668483 12,14.5 L12,13.5 C12,13.2238576 12.2238576,13 12.5,13 L17.5,13 L15.25,10 L13.5,10 C13.2238576,10 13,9.77614237 13,9.5 C13,9.22385763 13.2238576,9 13.5,9 L15.5,9 C15.6573787,9 15.8055728,9.07409708 15.9,9.2 L18.8969696,13.1959595 C18.9615921,13.2802068 19,13.3856181 19,13.5 C19.000028,13.5016838 19.0000182,13.5033674 19,13.5050506 Z M1,19 L18,19 L18,14 L13,14 L13,14.5 C13,15.7545462 12.1633759,17 11.0301867,17 L8,17 C6.86639417,17 6,15.7467591 6.00000033,14.5005749 L5.99942478,14 L1,14 L1,19 Z" id="icnWorkCenterInbox" fill="#151515"></path>
    </g>
</svg>