<?xml version="1.0" encoding="utf-8"?>
<!-- Generator: Adobe Illustrator 22.1.0, SVG Export Plug-In . SVG Version: 6.00 Build 0)  -->
<svg version="1.1" id="Layer_1" xmlns="http://www.w3.org/2000/svg" xmlns:xlink="http://www.w3.org/1999/xlink" x="0px" y="0px"
	 viewBox="0 0 1000 1000" enable-background="new 0 0 1000 1000" xml:space="preserve">
<g>
	<path d="M900,649.8c0-0.3,0-0.6,0-0.9c0-0.2,0-0.5-0.1-0.7c0-0.3-0.1-0.6-0.1-0.9c0-0.3-0.1-0.5-0.1-0.8c-0.1-0.3-0.1-0.5-0.2-0.8
		c-0.1-0.3-0.1-0.6-0.2-0.8c-0.1-0.2-0.2-0.5-0.3-0.7c-0.1-0.3-0.2-0.6-0.3-0.9c-0.1-0.2-0.2-0.4-0.3-0.7c-0.1-0.3-0.3-0.5-0.4-0.8
		c0-0.1-0.1-0.2-0.1-0.2l-116.7-200c-3-5.1-8.5-8.3-14.4-8.3h-100c-9.2,0-16.7,7.5-16.7,16.7c0,9.2,7.5,16.7,16.7,16.7h90.4
		l97.2,166.7H650c-9.2,0-16.7,7.5-16.7,16.7v33.3c0,27.6-22.4,50-50,50h-150c-27.6,0-50-22.4-50-50V650c0-9.2-7.5-16.7-16.7-16.7
		h-221l97.2-166.7h73.8c9.2,0,16.7-7.5,16.7-16.7c0-9.2-7.5-16.7-16.7-16.7h-83.3c-5.9,0-11.4,3.1-14.4,8.3l-116.7,200
		c0,0.1-0.1,0.2-0.1,0.2c-0.1,0.3-0.3,0.5-0.4,0.8c-0.1,0.2-0.2,0.4-0.3,0.7c-0.1,0.3-0.2,0.6-0.3,0.9c-0.1,0.2-0.2,0.5-0.3,0.7
		c-0.1,0.3-0.2,0.5-0.2,0.8c-0.1,0.3-0.1,0.5-0.2,0.8c-0.1,0.2-0.1,0.5-0.1,0.8c0,0.3-0.1,0.6-0.1,0.9c0,0.2,0,0.5-0.1,0.7
		c0,0.3,0,0.6,0,0.9c0,0.1,0,0.2,0,0.2v233.3c0,9.2,7.5,16.7,16.7,16.7h766.7c9.2,0,16.7-7.5,16.7-16.7V650
		C900,649.9,900,649.8,900,649.8z M866.7,866.7H133.3v-200H350v16.7c0,45.9,37.4,83.3,83.3,83.3h150c45.9,0,83.3-37.4,83.3-83.3
		v-16.7h200V866.7z"/>
	<path d="M471.5,495c0.4,0.4,0.9,0.8,1.4,1.2c0,0,0,0,0,0c0.4,0.3,0.9,0.7,1.3,1c0.1,0.1,0.2,0.1,0.4,0.2c0.3,0.2,0.7,0.4,1,0.6
		c0.2,0.1,0.3,0.2,0.5,0.2c0.3,0.2,0.6,0.3,1,0.5c0.2,0.1,0.4,0.1,0.5,0.2c0.3,0.1,0.6,0.2,1,0.3c0.2,0.1,0.4,0.1,0.6,0.2
		c0.3,0.1,0.6,0.2,1,0.2c0.3,0.1,0.5,0.1,0.8,0.1c0.3,0,0.5,0.1,0.8,0.1c0.5,0.1,1.1,0.1,1.6,0.1s1.1,0,1.6-0.1
		c0.3,0,0.5-0.1,0.8-0.1c0.3,0,0.5-0.1,0.8-0.1c0.3-0.1,0.6-0.2,1-0.2c0.2-0.1,0.4-0.1,0.6-0.2c0.3-0.1,0.7-0.2,1-0.3
		c0.2-0.1,0.4-0.1,0.5-0.2c0.3-0.1,0.7-0.3,1-0.5c0.2-0.1,0.3-0.1,0.5-0.2c0.4-0.2,0.7-0.4,1-0.6c0.1-0.1,0.2-0.1,0.4-0.2
		c0.4-0.3,0.9-0.6,1.3-1c0,0,0,0,0,0c0.5-0.4,0.9-0.8,1.4-1.2l133.2-133.2c6.5-6.5,6.5-17.1,0-23.6c-6.5-6.5-17.1-6.5-23.6,0
		L500,443.1V116.7c0-9.2-7.5-16.7-16.7-16.7s-16.7,7.5-16.7,16.7v326.4L361.8,338.2c-6.5-6.5-17.1-6.5-23.6,0
		c-6.5,6.5-6.5,17.1,0,23.6L471.5,495z"/>
</g>
</svg>
