<?xml version="1.0" encoding="UTF-8"?>
<svg width="19px" height="20px" viewBox="0 0 19 20" version="1.1" xmlns="http://www.w3.org/2000/svg" xmlns:xlink="http://www.w3.org/1999/xlink">
    <!-- Generator: Sketch 53 (72520) - https://sketchapp.com -->
    <title>icnWorkCenterSent</title>
    <desc>Created with Sketch.</desc>
    <g id="Symbols" stroke="none" stroke-width="1" fill="none" fill-rule="evenodd">
        <g id="icn/workCenterSent20" fill="#000000">
            <path d="M8.98542233,1.89850563 L7.38411064,3.82007966 C7.2073286,4.03221811 6.89204625,4.06088014 6.6799078,3.8840981 C6.46776935,3.70731606 6.43910732,3.39203371 6.61588936,3.17989526 L9.03524142,0.276672792 C9.11711456,0.112947105 9.28621546,0.000379396854 9.48174866,9.3656598e-07 C9.48484667,-5.05973456e-06 9.48793816,1.71323404e-05 9.49102288,6.72709885e-05 C9.63607723,-0.00251207567 9.78205674,0.0574305883 9.88411064,0.179895263 L12.3841106,3.17989526 C12.5608927,3.39203371 12.5322306,3.70731606 12.3200922,3.8840981 C12.1079538,4.06088014 11.7926714,4.03221811 11.6158894,3.82007966 L9.98535634,1.86344003 L10.0001353,9.49903224 C10.0006697,9.77517409 9.77724581,9.99946458 9.50110395,9.99999906 C9.22496209,10.0005335 9.0006716,9.77710962 9.00013712,9.50096776 L8.98542233,1.89850563 Z M19,13.5050506 L19,19.5 C19,19.7761424 18.7761424,20 18.5,20 L0.5,20 C0.223857625,20 5.77315973e-15,19.7761424 5.77315973e-15,19.5 L5.77315973e-15,13.5114262 C-0.00254692862,13.4031824 0.0298889864,13.2933319 0.0998957291,13.199993 L3.10000526,9.19999299 C3.1944328,9.07409419 3.34262443,9 3.5,9 L5.5,9 C5.77614237,9 6,9.22385763 6,9.5 C6,9.77614237 5.77614237,10 5.5,10 L3.74999452,10 L1.49991238,13 L6.49885023,13 C6.77476812,13 6.99853266,13.2235074 6.9988499,13.4994251 L7,14.5 C7,15.2563274 7.51411792,16 8,16 L11.0301867,16 C11.5075109,16 12,15.2668483 12,14.5 L12,13.5 C12,13.2238576 12.2238576,13 12.5,13 L17.5,13 L15.25,10 L13.5,10 C13.2238576,10 13,9.77614237 13,9.5 C13,9.22385763 13.2238576,9 13.5,9 L15.5,9 C15.6573787,9 15.8055728,9.07409708 15.9,9.2 L18.8969696,13.1959595 C18.9615921,13.2802068 19,13.3856181 19,13.5 C19.000028,13.5016838 19.0000182,13.5033674 19,13.5050506 Z M1,19 L18,19 L18,14 L13,14 L13,14.5 C13,15.7545462 12.1633759,17 11.0301867,17 L8,17 C6.86639417,17 6,15.7467591 6.00000033,14.5005749 L5.99942478,14 L1,14 L1,19 Z" id="icnWorkCenterSent"></path>
        </g>
    </g>
</svg>