<?xml version="1.0" encoding="utf-8"?>
<!-- Generator: Adobe Illustrator 22.1.0, SVG Export Plug-In . SVG Version: 6.00 Build 0)  -->
<svg version="1.1" id="Layer_1" xmlns="http://www.w3.org/2000/svg" xmlns:xlink="http://www.w3.org/1999/xlink" x="0px" y="0px"
	 viewBox="0 0 1000 1000" enable-background="new 0 0 1000 1000" xml:space="preserve">
<path fill="#151515" d="M900,158.1c0-0.5,0-0.9-0.1-1.4c0-0.6-0.1-1.3-0.2-1.9c-0.1-0.5-0.2-0.9-0.3-1.4c-0.2-0.6-0.3-1.2-0.6-1.8
	c-0.2-0.4-0.3-0.9-0.5-1.3c-0.3-0.7-0.6-1.3-1-1.9c-0.2-0.3-0.3-0.6-0.4-0.8c0-0.1-0.1-0.1-0.1-0.2c-0.6-0.9-1.2-1.8-2-2.6
	c0,0,0,0,0,0c-0.8-0.8-1.6-1.6-2.5-2.3c-0.2-0.2-0.5-0.3-0.8-0.5c-0.6-0.4-1.1-0.8-1.7-1.2c-0.1-0.1-0.2-0.1-0.3-0.1
	c-0.4-0.2-0.8-0.4-1.1-0.5c-0.6-0.3-1.2-0.6-1.9-0.8c-0.5-0.2-0.9-0.3-1.4-0.4c-0.6-0.2-1.2-0.3-1.7-0.4c-0.5-0.1-1.1-0.1-1.6-0.2
	c-0.5-0.1-1.1-0.1-1.6-0.1c-0.5,0-1.1,0-1.6,0.1c-0.6,0-1.1,0.1-1.7,0.2c-0.5,0.1-1,0.2-1.5,0.3c-0.7,0.2-1.4,0.4-2,0.6
	c-0.2,0.1-0.5,0.1-0.7,0.2l-760,300c-7.6,3-12.6,10.4-12.7,18.6c0,8.2,5,15.6,12.6,18.6L396,590.1l-15.9,250.4
	c-0.5,8.8,4.6,16.8,12.8,20c2.3,0.9,4.7,1.3,7.1,1.3c6,0,11.9-2.7,15.7-7.6l141.9-180.5l193.1,102.2c2.9,1.5,6.1,2.3,9.4,2.3
	c2.9,0,5.9-0.6,8.6-1.9c5.7-2.7,9.8-7.9,11-14.1l120-600c0-0.2,0-0.4,0.1-0.7c0.1-0.5,0.1-0.9,0.2-1.4
	C900,159.4,900,158.7,900,158.1z M786.3,216.6L415.8,554.9l-241.6-96.7L786.3,216.6z M424.1,778.8l10.8-170.2l86.8,45.9L424.1,778.8
	z M745.7,727.9L454.5,573.8l394-359.7L745.7,727.9z"/>
</svg>
