<?xml version="1.0" encoding="UTF-8"?>
<svg width="16px" height="16px" viewBox="0 0 16 16" version="1.1" xmlns="http://www.w3.org/2000/svg" xmlns:xlink="http://www.w3.org/1999/xlink">
    <!-- Generator: Sketch 52.5 (67469) - http://www.bohemiancoding.com/sketch -->
    <title>icnHide</title>
    <desc>Created with Sketch.</desc>
    <g id="Icons" stroke="none" stroke-width="1" fill="none" fill-rule="evenodd">
        <g id="Capture-Icons" transform="translate(-543.000000, -60.000000)" fill="#000000" fill-rule="nonzero">
            <g id="icnHide" transform="translate(543.000000, 60.000000)">
                <path d="M15,8 C15,4.13390009 11.8657063,1 8,1 C4.1334151,1 1,4.1334151 1,8 C1,11.8657063 4.13390009,15 8,15 C11.8652213,15 15,11.8652213 15,8 Z M16,8 C16,12.417506 12.417506,16 8,16 C3.58158722,16 4.74509321e-13,12.4179629 4.74509321e-13,8 C4.74509321e-13,3.58113035 3.58113035,-4.88498131e-15 8,-4.88498131e-15 C12.4179629,-4.88498131e-15 16,3.58158722 16,8 Z" id="Stroke-191"></path>
                <path d="M11.5,7.5 C11.7761424,7.5 12,7.72385763 12,8 C12,8.27614237 11.7761424,8.5 11.5,8.5 L4.5,8.5 C4.22385763,8.5 4,8.27614237 4,8 C4,7.72385763 4.22385763,7.5 4.5,7.5 L11.5,7.5 Z" id="Stroke-192"></path>
            </g>
        </g>
    </g>
</svg>