<?xml version="1.0" encoding="UTF-8" standalone="no"?>
<svg
   xmlns:dc="http://purl.org/dc/elements/1.1/"
   xmlns:cc="http://creativecommons.org/ns#"
   xmlns:rdf="http://www.w3.org/1999/02/22-rdf-syntax-ns#"
   xmlns:svg="http://www.w3.org/2000/svg"
   xmlns="http://www.w3.org/2000/svg"
   xmlns:sodipodi="http://sodipodi.sourceforge.net/DTD/sodipodi-0.dtd"
   xmlns:inkscape="http://www.inkscape.org/namespaces/inkscape"
   width="19px"
   height="18px"
   viewBox="0 0 19 18"
   version="1.1"
   id="svg849"
   sodipodi:docname="icnFax.svg"
   inkscape:version="0.92.2 (5c3e80d, 2017-08-06)">
  <metadata
     id="metadata855">
    <rdf:RDF>
      <cc:Work
         rdf:about="">
        <dc:format>image/svg+xml</dc:format>
        <dc:type
           rdf:resource="http://purl.org/dc/dcmitype/StillImage" />
      </cc:Work>
    </rdf:RDF>
  </metadata>
  <defs
     id="defs853" />
  <sodipodi:namedview
     pagecolor="#ffffff"
     bordercolor="#666666"
     borderopacity="1"
     objecttolerance="10"
     gridtolerance="10"
     guidetolerance="10"
     inkscape:pageopacity="0"
     inkscape:pageshadow="2"
     inkscape:window-width="1920"
     inkscape:window-height="1017"
     id="namedview851"
     showgrid="false"
     inkscape:zoom="47.111111"
     inkscape:cx="9.5"
     inkscape:cy="9"
     inkscape:window-x="-8"
     inkscape:window-y="-8"
     inkscape:window-maximized="1"
     inkscape:current-layer="svg849" />
  <!-- Generator: Sketch 52.4 (67378) - http://www.bohemiancoding.com/sketch -->
  <title
     id="title836">icnFax</title>
  <desc
     id="desc838">Created with Sketch.</desc>
  <g
     id="Capture-Flow"
     stroke="none"
     stroke-width="1"
     fill="none"
     fill-rule="evenodd">
    <g
       id="Capture-Icons"
       transform="translate(-200.000000, -58.000000)"
       fill="#6e6e6e"
       fill-rule="nonzero">
      <g
         id="icnFax"
         transform="translate(200.000000, 58.000000)">
        <path
           d="M4.28947368,14 C4.56561606,14 4.78947368,14.2238576 4.78947368,14.5 C4.78947368,14.7761424 4.56561606,15 4.28947368,15 L1.92105263,15 C0.770262995,15 0,14.1869446 0,13 L0,8 C0,6.81305538 0.770262995,6 1.92105263,6 L17.0789474,6 C18.2302896,6 19,6.81279721 19,8 L19,13 C19,14.1872028 18.2302896,15 17.0789474,15 L14.7105263,15 C14.4343839,15 14.2105263,14.7761424 14.2105263,14.5 C14.2105263,14.2238576 14.4343839,14 14.7105263,14 L17.0789474,14 C17.6654578,14 18,13.6467308 18,13 L18,8 C18,7.35326921 17.6654578,7 17.0789474,7 L1.92105263,7 C1.33500016,7 1,7.35361128 1,8 L1,13 C1,13.6463887 1.33500016,14 1.92105263,14 L4.28947368,14 Z"
           id="Stroke-693"
           style="fill:#000000" />
        <path
           d="M4,1 L4,4.5 C4,4.77614237 3.77614237,5 3.5,5 C3.22385763,5 3,4.77614237 3,4.5 L3,0.5 C3,0.223857625 3.22385763,0 3.5,0 L12.5,0 C12.6326082,0 12.7597852,0.0526784202 12.8535534,0.146446609 L15.8535534,3.14644661 C15.9473216,3.2402148 16,3.36739176 16,3.5 L16,4.5 C16,4.77614237 15.7761424,5 15.5,5 C15.2238576,5 15,4.77614237 15,4.5 L15,3.70710678 L12.2928932,1 L4,1 Z"
           id="Stroke-694"
           style="fill:#000000" />
        <path
           d="M3.25,8.91666667 C3.25,8.73197571 3.10135763,8.58333333 2.91666667,8.58333333 C2.73244379,8.58333333 2.58333333,8.73234082 2.58333333,8.91666667 C2.58333333,9.10052429 2.73280904,9.25 2.91666667,9.25 C3.10099252,9.25 3.25,9.10088954 3.25,8.91666667 Z M4.25,8.91666667 C4.25,9.6530197 3.65343198,10.25 2.91666667,10.25 C2.18052429,10.25 1.58333333,9.65280904 1.58333333,8.91666667 C1.58333333,8.17990136 2.18031364,7.58333333 2.91666667,7.58333333 C3.65364237,7.58333333 4.25,8.17969096 4.25,8.91666667 Z"
           id="Stroke-696"
           style="fill:#000000" />
        <path
           d="M6.85355339,12.8535534 C6.65829124,13.0488155 6.34170876,13.0488155 6.14644661,12.8535534 C5.95118446,12.6582912 5.95118446,12.3417088 6.14644661,12.1464466 L9.14644661,9.14644661 C9.34170876,8.95118446 9.65829124,8.95118446 9.85355339,9.14644661 L12.8535534,12.1464466 C13.0488155,12.3417088 13.0488155,12.6582912 12.8535534,12.8535534 C12.6582912,13.0488155 12.3417088,13.0488155 12.1464466,12.8535534 L9.5,10.2071068 L6.85355339,12.8535534 Z"
           id="Stroke-697"
           style="fill:#000000" />
        <path
           d="M10,17.5 C10,17.7761424 9.77614237,18 9.5,18 C9.22385763,18 9,17.7761424 9,17.5 L9,10.5 C9,10.2238576 9.22385763,10 9.5,10 C9.77614237,10 10,10.2238576 10,10.5 L10,17.5 Z"
           id="Stroke-699"
           style="fill:#000000" />
        <path
           d="M15.5,3 C15.7761424,3 16,3.22385763 16,3.5 C16,3.77614237 15.7761424,4 15.5,4 L12.5,4 C12.2238576,4 12,3.77614237 12,3.5 L12,0.5 C12,0.223857625 12.2238576,0 12.5,0 C12.7761424,0 13,0.223857625 13,0.5 L13,3 L15.5,3 Z"
           id="Stroke-700"
           style="fill:#000000" />
      </g>
    </g>
  </g>
</svg>
