<?xml version="1.0" encoding="utf-8"?>
<!-- Generator: Adobe Illustrator 22.1.0, SVG Export Plug-In . SVG Version: 6.00 Build 0)  -->
<svg version="1.1" id="Layer_1" xmlns="http://www.w3.org/2000/svg" xmlns:xlink="http://www.w3.org/1999/xlink" x="0px" y="0px"
	 viewBox="0 0 822.3 85.1" style="enable-background:new 0 0 822.3 85.1;" xml:space="preserve">
<style type="text/css">
	.st0{fill:#FFFFFF;}
</style>
<g>
	<path class="st0" d="M169.3,0.3c0,1.1-35.1,12.5-79.1,12.4c-44,0.1-79.2-11.2-79.1-12.4c0-1.4,35.1,3.5,79.1,3.4
		C134.3,3.7,169.4-1.1,169.3,0.3"/>
	<g>
		<g>
			<path class="st0" d="M21.1,67.1C18.9,68.8,13.7,72,8.6,72C2,72,0,67.8,0,62.7V41h4.8v20.7c0,3.5,1.1,6.3,5.3,6.3
				c4.2,0,9-3.1,11.1-5V41h4.8v30.3h-4.8V67.1z"/>
			<path class="st0" d="M39.9,49.3v13.9c2.4,2.7,5.9,4.9,9.8,4.9c5,0,7.6-4.4,7.6-11.8c0-7.4-2.6-11.8-7.6-11.8
				C45.8,44.4,42.3,46.6,39.9,49.3 M39.9,45c2.4-2.1,5.9-4.6,10.7-4.6c6.4,0,11.5,4.6,11.5,15.8C62.2,67.4,57,72,50.6,72
				c-4.7,0-8.3-2.4-10.7-4.6V84h-4.8V41h4.8V45z"/>
			<rect x="70.2" y="28.4" class="st0" width="4.7" height="42.9"/>
			<path class="st0" d="M104.1,63.5v-6.6c-2.1-0.4-6-1.3-9.1-1.3c-5.5,0-7.4,3-7.4,6.5c0,4.3,2.7,5.9,6.4,5.9
				C98.1,68,101.3,66.1,104.1,63.5 M104.1,67.3c-2.3,2.1-6.2,4.7-11.3,4.7c-5,0-10.2-2.7-10.2-9.7c0-6.9,5-9.9,10.5-9.9
				c3.5,0,8.5,1.2,10.9,1.6v-3.4c0-4.3-1.4-6.3-6.4-6.3c-3.3,0-7,1.2-11.3,2.5l-1.7-3.5c5.1-1.8,9.6-2.9,13.6-2.9
				c6.6,0,10.5,2.8,10.5,10v20.9h-4.8V67.3z"/>
			<path class="st0" d="M122.7,45.3c2.2-1.7,7.3-4.9,12.5-4.9c6.6,0,8.7,4.3,8.7,9.4v21.6h-4.8V50.6c0-3.5-1.1-6.3-5.3-6.3
				c-4.2,0-9.1,3.2-11.1,5v22.1h-4.8V41h4.8V45.3z"/>
			<path class="st0" d="M173.9,63.1V49.3c-2.4-2.7-5.9-4.9-9.8-4.9c-5,0-7.6,4.4-7.6,11.8c0,7.3,2.6,11.8,7.6,11.8
				C167.9,68,171.5,65.8,173.9,63.1 M173.9,71.3v-3.9c-2.4,2.2-5.9,4.6-10.7,4.6c-6.4,0-11.5-4.6-11.5-15.8
				c0-11.2,5.1-15.8,11.5-15.8c4.7,0,8.3,2.4,10.7,4.6V28.4h4.8v42.9H173.9z"/>
		</g>
	</g>
	<g>
		<g>
			<path class="st0" d="M231.4,59.4h-22.2l-4.2,11.7h-6.4l18.6-48h6.4l18.6,48h-6.4L231.4,59.4z M210.9,54.5h18.7l-9.3-25.9
				L210.9,54.5z"/>
			<path class="st0" d="M273.2,43.3c-1.8-1-6.5-4-10.8-4c-5.8,0-10.2,5.3-10.2,13.8s4.4,13.8,10.2,13.8c4.3,0,9-3,10.8-4l2.6,4.2
				c-2.7,1.6-8.2,4.7-13.9,4.7c-8.1,0-15.6-6.2-15.6-18.8s7.5-18.7,15.6-18.7c5.8,0,11.2,3.2,13.9,4.7L273.2,43.3z"/>
			<path class="st0" d="M307.7,43.3c-1.8-1-6.5-4-10.8-4c-5.8,0-10.2,5.3-10.2,13.8s4.4,13.8,10.2,13.8c4.3,0,9-3,10.8-4l2.6,4.2
				c-2.7,1.6-8.2,4.7-13.9,4.7c-8.1,0-15.6-6.2-15.6-18.8s7.5-18.7,15.6-18.7c5.8,0,11.2,3.2,13.9,4.7L307.7,43.3z"/>
			<path class="st0" d="M342.9,66.1c-2.7,2-8.8,5.8-14.9,5.8c-7.8,0-10.2-5-10.2-11V35.1h5.7v24.6c0,4.2,1.3,7.5,6.2,7.5
				c4.9,0,10.7-3.7,13.2-5.9V35.1h5.7v36h-5.7V66.1z"/>
			<path class="st0" d="M377.9,50.7h-11.7v20.3h-6v-48h18.6c10.5,0,17.9,3.6,17.9,13.8c0,8.6-5.3,12.5-13,13.5l13.1,20.6h-6.6
				L377.9,50.7z M379,28h-12.8v17.9h12.5c7.1,0,12.1-2.3,12.1-8.9S385.7,28,379,28z"/>
			<path class="st0" d="M420.1,71.8c-11,0-17-7.1-17-18.7s6-18.8,17-18.8c11,0,16.9,7.1,16.9,18.8S431.1,71.8,420.1,71.8z
				 M420.1,38.9c-7.9,0-11.2,5.6-11.2,14.2c0,8.6,3.3,14.1,11.2,14.1c7.8,0,11.1-5.5,11.1-14.1C431.2,44.6,427.9,38.9,420.1,38.9z"
				/>
			<path class="st0" d="M470.9,66.1c-2.7,2-8.8,5.8-14.9,5.8c-7.8,0-10.2-5-10.2-11V35.1h5.7v24.6c0,4.2,1.3,7.5,6.2,7.5
				c4.9,0,10.7-3.7,13.2-5.9V35.1h5.7v36h-5.7V66.1z"/>
			<path class="st0" d="M484.2,35.1h5.1v-9l5.5-1.4v10.4h9.9v4.4h-9.9v23.6c0,3,1.5,3.8,3.4,3.8c2.1,0,5.6-1.3,6.9-1.8l2.1,4.3
				c-1.6,0.8-6.1,2.5-9.9,2.5c-4.6,0-8-2.1-8-9V39.5h-5.1V35.1z"/>
			<path class="st0" d="M516.8,54.6c0.5,7.9,4.5,12.7,10.3,12.7c4.9,0,10.1-2.9,13.4-4.9l2.6,3.8c-3.3,1.9-9.3,5.6-16.4,5.6
				c-8.6,0-15.8-6.2-15.8-18.7c0-12.1,7-18.8,16.7-18.8c10.1,0,15.3,6.6,15.3,15.6c0,2.7-0.5,4.7-0.5,4.7H516.8z M516.9,50.9h20.4
				c0.2-8.4-3.6-12.1-9.7-12.1C521.4,38.7,517.5,43.4,516.9,50.9z"/>
			<path class="st0" d="M606.8,33.7c-4-2.5-9.4-6-14.9-6c-7.7,0-13.2,7.1-13.2,19.4s5.5,19.4,13.2,19.4c5.5,0,10.9-3.4,14.9-6
				l3.1,4.2c-5.1,3.4-11.4,7.1-18.4,7.1c-10.1,0-18.8-7.4-18.8-24.7c0-17.3,8.8-24.7,18.8-24.7c7.1,0,13.4,3.6,18.4,7.1L606.8,33.7z
				"/>
			<path class="st0" d="M642.1,66.3c-2.7,2.5-7.3,5.5-13.4,5.5c-5.9,0-12.1-3.2-12.1-11.5c0-8.2,5.9-11.7,12.5-11.7
				c4.2,0,10.1,1.4,12.9,1.9v-4c0-5.1-1.6-7.5-7.5-7.5c-4,0-8.4,1.4-13.4,3l-2.1-4.2c6.1-2.2,11.4-3.4,16.2-3.4
				c7.9,0,12.5,3.3,12.5,11.9v24.8h-5.7V66.3z M642.1,61.8V54c-2.5-0.5-7.1-1.6-10.8-1.6c-6.6,0-8.8,3.6-8.8,7.7
				c0,5.1,3.2,7.1,7.6,7.1C635,67.1,638.8,64.8,642.1,61.8z"/>
			<path class="st0" d="M664,39.8c2.8-2.5,7.1-5.4,12.7-5.4c7.6,0,13.7,5.5,13.7,18.8c0,13.2-6.1,18.7-13.7,18.7
				c-5.6,0-9.9-2.8-12.7-5.4v18.6h-5.7V35.1h5.7V39.8z M664,44.9v16.4c2.8,3.2,7,5.8,11.6,5.8c6,0,9-5.3,9-14c0-8.8-3.1-14-9-14
				C671,39.1,666.8,41.7,664,44.9z"/>
			<path class="st0" d="M695.7,35.1h5.1v-9l5.5-1.4v10.4h9.9v4.4h-9.9v23.6c0,3,1.5,3.8,3.4,3.8c2.1,0,5.6-1.3,6.9-1.8l2.1,4.3
				c-1.6,0.8-6.1,2.5-9.9,2.5c-4.6,0-8-2.1-8-9V39.5h-5.1V35.1z"/>
			<path class="st0" d="M749.7,66.1c-2.7,2-8.8,5.8-14.9,5.8c-7.8,0-10.2-5-10.2-11V35.1h5.7v24.6c0,4.2,1.3,7.5,6.2,7.5
				s10.7-3.7,13.2-5.9V35.1h5.7v36h-5.7V66.1z"/>
			<path class="st0" d="M771.8,42.8c0.5-1.2,4.1-8.8,13.6-8.1v5.4c-12.3,0-13.6,11.3-13.6,11.3v19.7h-5.7v-36h5.7V42.8z"/>
			<path class="st0" d="M796,54.6c0.5,7.9,4.5,12.7,10.3,12.7c4.9,0,10.1-2.9,13.4-4.9l2.6,3.8c-3.3,1.9-9.3,5.6-16.4,5.6
				c-8.6,0-15.8-6.2-15.8-18.7c0-12.1,7-18.8,16.7-18.8c10.1,0,15.3,6.6,15.3,15.6c0,2.7-0.5,4.7-0.5,4.7H796z M796,50.9h20.4
				c0.2-8.4-3.6-12.1-9.7-12.1C800.6,38.7,796.6,43.4,796,50.9z"/>
		</g>
	</g>
</g>
</svg>
