<?xml version="1.0" encoding="utf-8"?>
<!-- Generator: Adobe Illustrator 26.0.3, SVG Export Plug-In . SVG Version: 6.00 Build 0)  -->
<svg version="1.1" id="Calque_1" xmlns="http://www.w3.org/2000/svg" xmlns:xlink="http://www.w3.org/1999/xlink" x="0px" y="0px"
	 viewBox="0 0 159.2 25" style="enable-background:new 0 0 159.2 25;" xml:space="preserve">
<style type="text/css">
	.st0{fill:#FFFFFF;}
</style>
<g id="Layer_2">
	<g id="OG_Type">
		<path class="st0" d="M48.2,13.1c0.1,3.9-3.1,7.2-7,7.2c-3.9,0.1-7.2-3.1-7.2-7s3.1-7.2,7-7.2H41c3.8-0.1,7.1,3,7.2,6.8
			C48.2,13,48.2,13,48.2,13.1z M44.9,13.1c0.1-2.1-1.6-3.9-3.7-4s-3.9,1.6-4,3.7c0,0.1,0,0.3,0,0.3C37.2,15.2,38.8,17,41,17
			c2.1,0.1,3.9-1.6,3.9-3.8C44.9,13.2,44.9,13.2,44.9,13.1z"/>
		<path class="st0" d="M60.5,14.8c0,3.2-2.2,5.3-4.9,5.3c-1.2,0-2.3-0.3-3.1-1.1v0.8h-3.2V5.3h3.2v5.2c0.8-0.7,2-1.2,3.1-1.1
			C58.2,9.4,60.5,11.6,60.5,14.8z M57.3,14.8c0.1-1.3-0.9-2.5-2.2-2.6c-0.1,0-0.2,0-0.2,0c-1.4,0-2.5,1.2-2.5,2.6c0,0,0,0,0,0.1
			c-0.1,1.4,1,2.5,2.4,2.6h0.1c1.3,0,2.4-1.1,2.4-2.4C57.3,14.9,57.3,14.8,57.3,14.8z"/>
		<path class="st0" d="M60.3,20.4c0.2,0.1,0.5,0.2,0.8,0.2c0.4,0,0.8-0.2,0.8-0.8v-0.1v-10H65v10.4c0.1,1.7-1.2,3.1-2.8,3.2
			c-0.2,0-0.2,0-0.4,0c-0.8,0-1.4-0.2-2.1-0.4L60.3,20.4z M65.2,6.8c0,1-0.9,1.8-1.9,1.8c-1,0-1.7-0.8-1.7-1.8c0-1,0.8-1.8,1.9-1.8
			C64.4,5,65.2,5.8,65.2,6.8z"/>
		<path class="st0" d="M76.7,15.6h-7.3c0.2,1.2,1.4,2.1,2.7,1.9c0.7-0.1,1.2-0.5,1.7-1.2l2.8,0.6c-0.8,2-2.8,3.2-5,3.2
			c-2.8,0.1-5.3-2.2-5.3-5.1c0-0.1,0-0.2,0-0.2c-0.1-2.8,2.2-5.3,5.1-5.3c0.1,0,0.2,0,0.3,0c2.8-0.1,5.2,2.2,5.2,5
			c0,0.1,0,0.2,0,0.3L76.7,15.6z M69.4,13.6h4.2c-0.2-0.9-1.1-1.6-2-1.6C70.5,12,69.7,12.7,69.4,13.6z"/>
		<path class="st0" d="M84.9,15.5l2.9,0.7c-0.5,2.3-2.7,4-5.1,3.9c-2.9,0.1-5.4-2.2-5.5-5.2c-0.1-2.9,2.2-5.4,5.2-5.5
			c0.1,0,0.2,0,0.3,0c2.4-0.1,4.5,1.5,5.1,3.8l-3,0.8c-0.2-1.1-1.1-1.8-2.1-1.8c-1.3,0-2.4,1-2.4,2.3c0,0.1,0,0.2,0,0.2
			c-0.1,1.3,0.8,2.4,2.2,2.5c0.1,0,0.2,0,0.2,0C83.8,17.3,84.8,16.6,84.9,15.5z"/>
		<path class="st0" d="M96.7,19.3c-0.8,0.5-1.7,0.8-2.8,0.8c-2.5,0-4-1.3-4-4v-3.8h-1.8V9.7h1.8v-3h3.2v3h3v2.5h-3v3.5
			c0,1,0.5,1.5,1.3,1.5c0.5,0,1-0.2,1.5-0.4L96.7,19.3z"/>
		<path class="st0" d="M101.4,6.8c0,1-0.9,1.8-1.9,1.8c-1,0-1.7-0.8-1.7-1.8c0-1,0.8-1.8,1.9-1.8C100.6,5,101.3,5.8,101.4,6.8z
			 M97.9,19.8v-10h3.2v10H97.9z"/>
		<path class="st0" d="M109.9,9.8v2.5h-2.8v7.5H104v-7.5h-1.5V9.8h1.4V9c0-2.3,1.6-3.8,4-3.8c0.7,0,1.3,0.2,2,0.4l-0.7,2.5
			c-0.2-0.1-0.6-0.2-0.8-0.2c-0.7-0.1-1.2,0.4-1.3,1.1c0,0.1,0,0.1,0,0.2v0.7L109.9,9.8z"/>
		<path class="st0" d="M124.7,19.8h-9.9V6.3h3.3v10.5h6.6V19.8z"/>
		<path class="st0" d="M135.8,19.8h-3.2v-1c-0.8,0.8-1.9,1.2-3.1,1.2c-2.3,0-3.9-1.7-3.9-4.2V9.7h3.2v5.5c-0.1,1,0.6,1.8,1.6,2
			c0.1,0,0.1,0,0.2,0c1.2,0,2.1-0.8,2.1-2.8V9.7h3.2V19.8z"/>
		<path class="st0" d="M147.8,13.6v6.2h-3.2v-5.5c0.1-1-0.6-1.8-1.6-2c-0.1,0-0.1,0-0.2,0c-1.2,0-2.1,0.8-2.1,2.8v4.7h-3.2v-10h3.2
			v1c0.8-0.8,1.9-1.2,3.1-1.2C146.2,9.4,147.8,11.1,147.8,13.6z"/>
		<path class="st0" d="M159.2,15.6h-7.3c0.2,1.2,1.4,2.1,2.7,1.9c0.7-0.1,1.2-0.5,1.7-1.2l2.8,0.6c-0.8,2-2.8,3.2-5,3.2
			c-2.8,0.1-5.2-2.2-5.3-5.1c0-0.1,0-0.2,0-0.2c-0.1-2.8,2.2-5.3,5.1-5.3c0.1,0,0.2,0,0.2,0c2.8-0.1,5.2,2.2,5.2,5
			c0,0.1,0,0.2,0,0.3V15.6z M152,13.6h4.2c-0.2-0.9-1.1-1.6-2-1.6C153.1,12,152.2,12.7,152,13.6z"/>
		<path class="st0" d="M12.5,0C5.6,0,0,5.6,0,12.5S5.6,25,12.5,25S25,19.4,25,12.5S19.4,0,12.5,0z M17.2,13.8c0,2.9-1.8,4.8-4.7,4.8
			c-2.4,0.2-4.6-1.7-4.8-4.2c0-0.2,0-0.4,0-0.7V9.5l3.1-0.8v5c0,1.2,0.7,2,1.7,2c0.9,0,1.5-0.8,1.5-2V7.8L17.1,7L17.2,13.8
			L17.2,13.8z"/>
	</g>
</g>
</svg>
