<?xml version="1.0" encoding="utf-8"?>
<svg fill="none" viewBox="0 0 37 46" xmlns="http://www.w3.org/2000/svg">
  <defs/>
  <path fill="#001C64" d="M 30.972 10.822 C 31.079 5.26 26.487 0.99 20.173 0.99 L 7.115 0.99 C 6.486 0.99 5.951 1.448 5.853 2.068 L 0.62 34.747 C 0.52 35.377 1.007 35.946 1.645 35.946 L 9.382 35.946 L 8.172 43.514 C 8.072 44.143 8.56 44.713 9.198 44.713 L 15.5 44.713 C 15.805 44.713 16.076 44.603 16.307 44.406 C 16.538 44.208 16.576 43.935 16.623 43.635 L 18.473 32.756 C 18.52 32.456 18.673 32.066 18.905 31.868 C 19.136 31.67 19.338 31.562 19.642 31.561 L 23.5 31.561 C 29.683 31.561 34.93 27.169 35.889 21.06 C 36.567 16.722 34.707 12.778 30.973 10.822 L 30.972 10.822 Z" style="transform-origin: 18.332px 23.995px;"/>
  <path fill="#0070E0" d="M 11.056 23.894 L 9.129 36.108 L 7.919 43.768 C 7.819 44.397 8.307 44.967 8.945 44.967 L 15.615 44.967 C 16.243 44.966 16.778 44.509 16.876 43.889 L 18.634 32.755 C 18.732 32.134 19.267 31.677 19.895 31.677 L 23.822 31.677 C 30.005 31.677 35.251 27.169 36.21 21.06 C 36.89 16.723 34.706 12.779 30.972 10.822 C 30.962 11.283 30.922 11.744 30.851 12.201 C 29.892 18.309 24.645 22.818 18.462 22.818 L 12.317 22.818 C 11.689 22.818 11.154 23.275 11.056 23.894 Z" style="transform-origin: 18.332px 23.995px;"/>
  <path fill="#003087" d="M 9.128 36.108 L 1.368 36.108 C 0.73 36.109 0.243 35.538 0.343 34.908 L 5.575 1.744 C 5.673 1.124 6.208 0.667 6.837 0.667 L 20.174 0.667 C 26.487 0.667 31.079 5.26 30.972 10.822 C 29.401 9.998 27.555 9.527 25.532 9.527 L 14.413 9.527 C 13.785 9.528 13.25 9.985 13.152 10.605 L 11.057 23.894 L 9.127 36.108 L 9.128 36.108 Z" style="transform-origin: 18.332px 23.995px;"/>
</svg>