<?xml version="1.0" encoding="utf-8"?>
<!-- Generator: Adobe Illustrator 22.1.0, SVG Export Plug-In . SVG Version: 6.00 Build 0)  -->
<svg version="1.1" id="Layer_1" xmlns="http://www.w3.org/2000/svg" xmlns:xlink="http://www.w3.org/1999/xlink" x="0px" y="0px"
	 viewBox="0 0 16 16" style="enable-background:new 0 0 16 16;" xml:space="preserve">
<style type="text/css">
	.st0{fill:none;stroke:#000000;stroke-width:0.6592;stroke-linecap:round;stroke-linejoin:round;stroke-miterlimit:10;}
	.st1{fill:none;stroke:#000000;stroke-width:0.6857;stroke-linecap:round;stroke-linejoin:round;}
</style>
<g>
	<g>
		<polyline class="st0" points="12.6,0.4 12.6,3.1 15.2,3.1 		"/>
		<path class="st0" d="M4,2.7V1c0-0.3,0.2-0.5,0.5-0.5h8.1c0.1,0,0.2,0.1,0.3,0.2L15,2.7c0.1,0.1,0.2,0.2,0.2,0.3v12
			c0,0.3-0.2,0.5-0.5,0.5H4.5c-0.3,0-0.5-0.2-0.5-0.5v-1.8"/>
	</g>
	<g>
		<path class="st1" d="M8.4,7.1C7.9,5.6,6.6,4.6,4.9,4.6c-1.6,0-3,1.1-3.4,2.6"/>
		<polyline class="st1" points="9.1,5.4 8.4,7.1 6.6,6.5 		"/>
		<path class="st1" d="M1.5,9.2c0.4,1.5,1.8,2.6,3.4,2.6c1.6,0,3-1.1,3.4-2.6"/>
		<polyline class="st1" points="0.8,10.9 1.5,9.2 3.2,9.8 		"/>
	</g>
</g>
</svg>
