<?xml version="1.0" encoding="utf-8"?>
<!-- Generator: Adobe Illustrator 22.1.0, SVG Export Plug-In . SVG Version: 6.00 Build 0)  -->
<svg version="1.1" id="Layer_1" xmlns="http://www.w3.org/2000/svg" xmlns:xlink="http://www.w3.org/1999/xlink" x="0px" y="0px"
	 viewBox="0 0 16 16" style="enable-background:new 0 0 16 16;" xml:space="preserve">
<g>
	<path d="M7.6,13.3H0.8C0.4,13.3,0,13,0,12.6V11c0-0.3,0.2-0.6,0.5-0.7c3.6-1.4,4.2-2,4.3-2.1V7.6C4.4,7.2,4.1,6.6,3.9,6
		C3.6,5.7,3.5,5.4,3.4,5.1c0-0.3,0-0.7,0.2-1V2.8C3.7,1.1,4.8,0,6.7,0c1.9,0,3.1,1,3.1,2.8v1.3C10,4.4,10,4.8,10,5.1
		C10,5.4,9.8,5.7,9.5,6C9.3,6.6,9,7.2,8.6,7.6v0.5c0,0.1,0.1,0.1,0.6,0.4C9.4,8.6,9.4,8.8,9.4,9C9.3,9.1,9.1,9.2,8.9,9.1
		C8.2,8.7,8.1,8.7,8,8.2c0,0,0-0.1,0-0.1V7.5c0-0.1,0-0.2,0.1-0.2c0.4-0.4,0.7-1,0.9-1.6C8.9,5.6,9,5.5,9,5.5C9.2,5.4,9.3,5.2,9.3,5
		c0-0.2,0-0.4-0.2-0.5c0-0.1-0.1-0.1-0.1-0.2V2.8c0-1.4-0.8-2.2-2.4-2.2c-1.5,0-2.4,0.8-2.4,2.2v1.4c0,0.1,0,0.2-0.1,0.2
		C4.1,4.6,4.1,4.8,4.1,5c0,0.2,0.1,0.4,0.3,0.5c0.1,0,0.1,0.1,0.1,0.2C4.7,6.3,5,6.9,5.4,7.3c0.1,0.1,0.1,0.1,0.1,0.2v0.6
		c0,0,0,0.1,0,0.1c-0.1,0.4-0.8,1.1-4.7,2.6c0,0-0.1,0.1-0.1,0.1v1.6c0,0.1,0.1,0.1,0.1,0.1h6.9C7.8,12.7,8,12.8,8,13
		S7.8,13.3,7.6,13.3z"/>
	<g>
		<path d="M14.4,16h-4.3c-0.7,0-1.2-0.5-1.2-1.2L8.5,11c0-0.7,0.5-1.2,1.2-1.2h5.1c0.7,0,1.2,0.5,1.2,1.2l-0.4,3.9
			C15.6,15.5,15.1,16,14.4,16z M9.7,10.5c-0.3,0-0.5,0.2-0.5,0.5l0.4,3.9c0,0.3,0.2,0.5,0.5,0.5h4.3c0.3,0,0.5-0.2,0.5-0.5l0.4-3.9
			c0-0.2-0.2-0.4-0.5-0.4H9.7z"/>
		<path d="M12.7,14.4h-0.9c-0.2,0-0.3-0.1-0.4-0.3l-0.2-1.4c0-0.6,0.4-1,1-1s1,0.4,1,1l-0.2,1.4C13,14.3,12.9,14.4,12.7,14.4z
			 M12.1,13.7h0.2l0.1-1c0-0.1-0.1-0.2-0.2-0.2c-0.1,0-0.2,0.1-0.2,0.2L12.1,13.7z"/>
		<path d="M14,10.5c-0.2,0-0.4-0.2-0.4-0.4V8.3C13.7,7.6,13,7,12.2,7c-0.8,0-1.4,0.6-1.4,1.3v1.8c0,0.2-0.2,0.4-0.4,0.4
			s-0.4-0.2-0.4-0.4V8.3c0-1.1,1-2,2.2-2c1.2,0,2.2,0.9,2.2,2v1.8C14.4,10.3,14.2,10.5,14,10.5z"/>
	</g>
</g>
</svg>
