<?xml version="1.0" encoding="utf-8"?>
<!-- Generator: Adobe Illustrator 20.1.0, SVG Export Plug-In . SVG Version: 6.00 Build 0)  -->
<svg version="1.1" id="Layer_1" xmlns="http://www.w3.org/2000/svg" xmlns:xlink="http://www.w3.org/1999/xlink" x="0px" y="0px"
	 viewBox="0 0 16 16" style="enable-background:new 0 0 16 16;" xml:space="preserve">
<g>
	<path style="fill:#000" d="M13.7,5.9c-0.1,0-0.2,0-0.3-0.1c-0.1-0.1-0.1-0.4,0-0.5l1.7-1.7l-1.7-1.7c-0.1-0.1-0.1-0.4,0-0.5c0.1-0.1,0.4-0.1,0.5,0
		l2,2C16,3.4,16,3.5,16,3.6s0,0.2-0.1,0.3l-2,2C13.9,5.9,13.8,5.9,13.7,5.9z"/>
	<path style="fill:#000" d="M3.7,12.8H0.4c-0.2,0-0.4-0.2-0.4-0.4S0.2,12,0.4,12h3.4c2.1,0,3.8-1.7,3.8-3.8V8c0-2.5,2.1-4.8,4.5-4.8h3.7
		c0.2,0,0.4,0.2,0.4,0.4S15.8,4,15.6,4H12c-2,0-3.8,1.9-3.8,4v0.3C8.2,10.7,6.2,12.8,3.7,12.8z"/>
	<path  style="fill:#000" d="M13.7,14.7c-0.1,0-0.2,0-0.3-0.1c-0.1-0.1-0.1-0.4,0-0.5l1.7-1.7l-1.7-1.7c-0.1-0.1-0.1-0.4,0-0.5c0.1-0.1,0.4-0.1,0.5,0
		l2,2c0.1,0.1,0.1,0.2,0.1,0.3s0,0.2-0.1,0.3l-2,2C13.9,14.7,13.8,14.7,13.7,14.7z"/>
	<path style="fill:#000" d="M15.6,12.8H12c-1.1,0-2.1-0.4-3-1.1c-0.2-0.1-0.2-0.4,0-0.5c0.1-0.2,0.4-0.2,0.5,0c0.7,0.6,1.6,0.9,2.5,0.9h3.7
		c0.2,0,0.4,0.2,0.4,0.4S15.8,12.8,15.6,12.8z"/>
	<path style="fill:#000" d="M6.4,5C6.4,5,6.3,5,6.2,4.9C5.5,4.3,4.6,4,3.7,4H0.4C0.2,4,0,3.8,0,3.6s0.2-0.4,0.4-0.4h3.4c1.1,0,2.1,0.4,3,1.1
		c0.2,0.1,0.2,0.4,0,0.5C6.6,5,6.5,5,6.4,5z"/>
</g>
</svg>
