<svg id="Layer_1" data-name="Layer 1" xmlns="http://www.w3.org/2000/svg" viewBox="0 0 16 16"><path d="M12.25,5.91a2.22,2.22,0,1,1,2.2-2.22A2.21,2.21,0,0,1,12.25,5.91Zm0-3.78a1.56,1.56,0,1,0,1.53,1.56A1.55,1.55,0,0,0,12.25,2.13Z"/><path d="M12.25,7.33H3.75A3.67,3.67,0,0,1,3.75,0h8.5a3.67,3.67,0,0,1,0,7.33ZM3.75.67a3,3,0,0,0,0,6h8.5a3,3,0,0,0,0-6Z"/><path d="M3.75,14.53A2.22,2.22,0,1,1,6,12.31,2.21,2.21,0,0,1,3.75,14.53Zm0-3.77a1.56,1.56,0,1,0,1.54,1.55A1.55,1.55,0,0,0,3.75,10.76Z"/><path d="M12.25,16H3.75a3.67,3.67,0,0,1,0-7.33h8.5a3.67,3.67,0,0,1,0,7.33ZM3.75,9.33a3,3,0,0,0,0,6h8.5a3,3,0,0,0,0-6Z"/></svg>