<?xml version="1.0" encoding="utf-8"?>
<!-- Generator: Adobe Illustrator 22.1.0, SVG Export Plug-In . SVG Version: 6.00 Build 0)  -->
<svg version="1.1" id="Layer_1" xmlns="http://www.w3.org/2000/svg" xmlns:xlink="http://www.w3.org/1999/xlink" x="0px" y="0px"
	 viewBox="0 0 16 16" style="enable-background:new 0 0 16 16;" xml:space="preserve">
<g>
	<g>
		<path d="M15.4,15.9H0.6c-0.2,0-0.4-0.2-0.4-0.4v-4.3c0-0.2,0.2-0.4,0.4-0.4h2.7c0.1,0,0.2,0,0.3,0.1c0.2,0.2,0.4,0.4,0.6,0.6L5,11
			c0.1,0,0.1-0.1,0.2-0.1H6c0.1,0,0.1,0,0.1,0c0.3,0.1,0.5,0.2,0.8,0.3c0.1,0,0.3,0.2,0.3,0.3L7.5,13c0.4,0,0.8,0,1.2,0l0.2-1.5
			c0-0.1,0.1-0.3,0.3-0.3c0.3-0.1,0.5-0.2,0.8-0.3c0,0,0.1,0,0.1,0h0.9c0.1,0,0.2,0,0.2,0.1l0.8,0.6c0.2-0.2,0.4-0.4,0.6-0.6
			c0.1-0.1,0.2-0.1,0.3-0.1h2.7c0.2,0,0.4,0.2,0.4,0.4v4.3C15.8,15.7,15.6,15.9,15.4,15.9z M0.9,15.2h14.2v-3.5h-2.2
			c-0.2,0.2-0.5,0.5-0.8,0.7c-0.1,0.1-0.3,0.1-0.4,0l-0.9-0.7h-0.7c-0.2,0.1-0.4,0.2-0.6,0.2l-0.2,1.5c0,0.2-0.1,0.3-0.3,0.3
			c-0.6,0.1-1.2,0.1-1.9,0c-0.2,0-0.3-0.1-0.3-0.3l-0.2-1.5c-0.2-0.1-0.4-0.1-0.6-0.2H5.3l-1,0.8c-0.1,0.1-0.3,0.1-0.4,0
			c-0.3-0.2-0.6-0.5-0.9-0.8H0.9V15.2z M14,14.3c-0.5,0-0.9-0.4-0.9-0.9s0.4-0.9,0.9-0.9c0.5,0,0.9,0.4,0.9,0.9S14.5,14.3,14,14.3z
			 M14,13.2c-0.1,0-0.2,0.1-0.2,0.2c0,0.2,0.5,0.3,0.5,0C14.2,13.3,14.1,13.2,14,13.2z"/>
		<path d="M14,14.3c-0.5,0-0.9-0.4-0.9-0.9s0.4-0.9,0.9-0.9c0.5,0,0.9,0.4,0.9,0.9S14.5,14.3,14,14.3z M14,13.2
			c-0.1,0-0.2,0.1-0.2,0.2c0,0.2,0.5,0.3,0.5,0C14.2,13.3,14.1,13.2,14,13.2z"/>
		<path d="M14,14.3c-0.5,0-0.9-0.4-0.9-0.9s0.4-0.9,0.9-0.9c0.5,0,0.9,0.4,0.9,0.9S14.5,14.3,14,14.3z M14,13.2
			c-0.1,0-0.2,0.1-0.2,0.2c0,0.2,0.5,0.3,0.5,0C14.2,13.3,14.1,13.2,14,13.2z"/>
	</g>
</g>
<path d="M8,9.2C7.4,9.2,6.8,9,6.4,8.6C6,8.1,5.7,7.6,5.7,6.9c0-0.6,0.2-1.2,0.7-1.6s1-0.7,1.6-0.7c0,0,0,0,0,0c1.3,0,2.3,1,2.3,2.3
	c0,0,0,0,0,0C10.3,8.2,9.3,9.2,8,9.2C8,9.2,8,9.2,8,9.2z M8,5.3C8,5.3,8,5.3,8,5.3c-0.4,0-0.8,0.2-1.1,0.5S6.4,6.5,6.4,6.9
	c0,0.4,0.2,0.8,0.5,1.1C7.2,8.4,7.6,8.5,8,8.5c0.9,0,1.6-0.7,1.6-1.6C9.6,6,8.9,5.3,8,5.3z"/>
<path d="M8,13.8c-0.3,0-0.6,0-0.9-0.1c-0.2,0-0.3-0.1-0.3-0.3l-0.2-1.5c-0.2-0.1-0.5-0.2-0.7-0.3c-0.1,0-0.2-0.1-0.3-0.2l-1.2,0.9
	c-0.1,0.1-0.3,0.1-0.4,0c-0.4-0.3-0.7-0.6-1-0.9c-0.1-0.1-0.3-0.3-0.4-0.5c-0.1-0.1-0.1-0.3,0-0.4l0.9-1.2c-0.2-0.3-0.3-0.7-0.4-1
	L1.5,8.2c-0.2,0-0.3-0.1-0.3-0.3C1.2,7.3,1.2,6.6,1.2,6c0-0.2,0.1-0.3,0.3-0.3l1.5-0.2c0.1-0.4,0.2-0.7,0.4-1L2.5,3.3
	C2.4,3.1,2.4,3,2.5,2.8c0.4-0.5,0.8-0.9,1.3-1.3c0.1-0.1,0.3-0.1,0.4,0l1.2,0.9c0.3-0.2,0.7-0.3,1-0.4l0.2-1.5
	c0-0.2,0.1-0.3,0.3-0.3c0.6-0.1,1.2-0.1,1.9,0c0.2,0,0.3,0.1,0.3,0.3L9.4,2c0.3,0.1,0.7,0.2,1,0.4l1.2-0.9c0.1-0.1,0.3-0.1,0.4,0
	c0.5,0.4,0.9,0.8,1.3,1.3c0.1,0.1,0.1,0.3,0,0.4l-0.9,1.2c0.2,0.3,0.3,0.7,0.4,1l1.5,0.2c0.2,0,0.3,0.1,0.3,0.3
	c0.1,0.6,0.1,1.3,0,1.9c0,0.2-0.1,0.3-0.3,0.3L13,8.3c-0.1,0.4-0.2,0.7-0.4,1l0.9,1.2c0.1,0.1,0.1,0.3,0,0.4
	c-0.1,0.2-0.3,0.4-0.5,0.5c-0.2,0.3-0.5,0.5-0.9,0.8c-0.1,0.1-0.3,0.1-0.4,0l-1.2-0.9c-0.1,0.1-0.3,0.1-0.4,0.2
	c-0.2,0.1-0.4,0.2-0.6,0.2l-0.2,1.5c0,0.2-0.1,0.3-0.3,0.3C8.7,13.7,8.3,13.8,8,13.8z M7.5,13c0.4,0,0.8,0,1.2,0l0.2-1.5
	c0-0.1,0.1-0.3,0.3-0.3c0.3-0.1,0.5-0.2,0.8-0.3c0.2-0.1,0.3-0.2,0.5-0.3c0.1-0.1,0.3-0.1,0.4,0l1.2,0.9c0.2-0.2,0.4-0.4,0.6-0.6
	c0.1-0.1,0.2-0.2,0.2-0.3l-0.9-1.2c-0.1-0.1-0.1-0.3,0-0.4c0.2-0.4,0.4-0.8,0.5-1.3c0-0.1,0.2-0.2,0.3-0.3l1.5-0.2
	c0-0.4,0-0.8,0-1.2l-1.5-0.2c-0.1,0-0.3-0.1-0.3-0.3C12.2,5.4,12,5,11.8,4.6c-0.1-0.1-0.1-0.3,0-0.4L12.7,3
	c-0.3-0.3-0.5-0.6-0.8-0.8l-1.2,0.9c-0.1,0.1-0.3,0.1-0.4,0C9.9,2.9,9.5,2.7,9,2.6c-0.1,0-0.3-0.2-0.3-0.3L8.5,0.8
	c-0.4,0-0.8,0-1.2,0L7.2,2.3c0,0.1-0.1,0.3-0.3,0.3C6.5,2.7,6.1,2.9,5.7,3.2c-0.1,0.1-0.3,0.1-0.4,0L4.1,2.2
	C3.8,2.5,3.5,2.8,3.3,3.1l0.9,1.2c0.1,0.1,0.1,0.3,0,0.4C4,5,3.8,5.5,3.7,5.9c0,0.1-0.2,0.3-0.3,0.3L1.9,6.4c0,0.4,0,0.8,0,1.2
	l1.5,0.2c0.1,0,0.3,0.1,0.3,0.3C3.8,8.4,4,8.9,4.2,9.3c0.1,0.1,0.1,0.3,0,0.4l-0.9,1.2c0.1,0.1,0.1,0.1,0.2,0.2
	c0.2,0.2,0.4,0.4,0.7,0.6l1.2-0.9c0.1-0.1,0.3-0.1,0.4,0C5.9,10.8,6,10.9,6.2,11c0.3,0.1,0.6,0.2,0.8,0.3c0.1,0,0.3,0.2,0.3,0.3
	L7.5,13z"/>
</svg>
