<?xml version="1.0" encoding="utf-8"?>
<!-- Generator: Adobe Illustrator 20.1.0, SVG Export Plug-In . SVG Version: 6.00 Build 0)  -->
<svg version="1.1" id="Layer_1" xmlns="http://www.w3.org/2000/svg" xmlns:xlink="http://www.w3.org/1999/xlink" x="0px" y="0px"
	 viewBox="0 0 16 16" style="enable-background:new 0 0 16 16;" xml:space="preserve">
<g>
	<path d="M9.8,12.6c-0.1,0-0.2,0-0.2-0.1c-0.2-0.1-0.2-0.4,0-0.5l1.8-2l-1.8-2c-0.1-0.2-0.1-0.4,0-0.5c0.2-0.1,0.4-0.1,0.5,0l2,2.3
		c0.1,0.1,0.1,0.4,0,0.5l-2,2.3C10,12.6,9.9,12.6,9.8,12.6z"/>
	<path d="M6.9,12.6c-0.1,0-0.2,0-0.3-0.1l-2-2.3c-0.1-0.1-0.1-0.4,0-0.5l2-2.3c0.1-0.2,0.4-0.2,0.5,0c0.2,0.1,0.2,0.4,0,0.5l-1.8,2
		l1.8,2c0.1,0.2,0.1,0.4,0,0.5C7.1,12.6,7,12.6,6.9,12.6z"/>
	<path d="M14,3.3h-2.7C11.1,3.3,11,3.2,11,3V0.3C11,0.1,11.1,0,11.3,0c0.2,0,0.3,0.1,0.3,0.3v2.3H14c0.2,0,0.3,0.1,0.3,0.3
		S14.2,3.3,14,3.3z"/>
	<path d="M13.5,16H3.2c-0.5,0-0.9-0.4-0.9-0.9V0.9C2.3,0.4,2.7,0,3.2,0h8.1c0.3,0,0.4,0.1,0.5,0.3l2.2,2.2c0.1,0.1,0.3,0.3,0.3,0.6
		v12.1C14.3,15.6,13.9,16,13.5,16z M11.3,0.7l-8.1,0C3.1,0.7,3,0.8,3,0.9v14.3c0,0.1,0.1,0.2,0.2,0.2h10.3c0.1,0,0.2-0.1,0.2-0.2V3
		c0,0,0,0-0.1-0.1L11.3,0.7C11.4,0.7,11.3,0.7,11.3,0.7z"/>
</g>
</svg>
