<svg id="Layer_1" data-name="Layer 1" xmlns="http://www.w3.org/2000/svg" viewBox="0 0 16 16"><path d="M15.13,12.56H.82a.38.38,0,0,1-.36-.36.32.32,0,0,1,.36-.36H15.13a.38.38,0,0,1,.36.36A.32.32,0,0,1,15.13,12.56Z"/><path d="M15.14,6.65H.89c-.23,0-.35-.12-.35-.24A.39.39,0,0,1,.89,6H15.14a.38.38,0,0,1,.35.37C15.49,6.53,15.37,6.65,15.14,6.65Z"/><path d="M14.21,16.06H1.91A1.49,1.49,0,0,1,.46,14.49V8.1h0V1.58A1.57,1.57,0,0,1,1.91,0h12.3a1.49,1.49,0,0,1,1.45,1.57V14.49A1.57,1.57,0,0,1,14.21,16.06ZM1.06,8.1h0v6.51a.83.83,0,0,0,.85.85h12.3a.83.83,0,0,0,.85-.85v-13a.83.83,0,0,0-.85-.85H1.91a.83.83,0,0,0-.85.85V8.1Z"/><path d="M14,5H8.18a.38.38,0,0,1-.36-.36V2.18a.38.38,0,0,1,.36-.36H14a.39.39,0,0,1,.37.36V4.6C14.34,4.77,14.09,5,14,5ZM8.54,4.23h5.07V2.42H8.54Z"/><path d="M2.39,4a.57.57,0,0,1-.6-.6.57.57,0,0,1,.6-.6.57.57,0,0,1,.6.6A.57.57,0,0,1,2.39,4Zm0-.6Z"/><path d="M4.08,4a.57.57,0,0,1-.61-.6.57.57,0,0,1,.61-.6.57.57,0,0,1,.6.6A.57.57,0,0,1,4.08,4Zm0-.6Z"/><path d="M5.77,4a.57.57,0,0,1-.61-.6.57.57,0,0,1,.61-.6.57.57,0,0,1,.6.6A.57.57,0,0,1,5.77,4Zm0-.6Z"/><path d="M9.39,8.82H6.73a1.2,1.2,0,0,1-1.2-1.21V6.41A.39.39,0,0,1,5.89,6h4.34c.12,0,.12,0,.24.12s.12.13.12.25v1.2A1.2,1.2,0,0,1,9.39,8.82ZM6.13,6.77v.84a.57.57,0,0,0,.6.61H9.39a.57.57,0,0,0,.6-.61V6.77Z"/></svg>