<?xml version="1.0" encoding="utf-8"?>
<!-- Generator: Adobe Illustrator 20.1.0, SVG Export Plug-In . SVG Version: 6.00 Build 0)  -->
<svg version="1.1" id="Layer_1" xmlns="http://www.w3.org/2000/svg" xmlns:xlink="http://www.w3.org/1999/xlink" x="0px" y="0px"
	 viewBox="0 0 16 16" style="enable-background:new 0 0 16 16;" xml:space="preserve">
<g>
	<path d="M10.6,13.8H0.7C0.3,13.8,0,13.4,0,13v-1.4c0-0.3,0.2-0.6,0.5-0.7C3.4,9.8,3.9,9.3,4,9.2V8.8C3.7,8.5,3.4,8,3.3,7.4
		C3.1,7.2,2.9,7,2.9,6.7c0-0.3,0-0.6,0.2-0.8V4.7c0-1.5,1-2.5,2.6-2.5c1.7,0,2.6,0.9,2.6,2.5v1.1c0.2,0.2,0.2,0.5,0.2,0.8
		c0,0.3-0.2,0.6-0.4,0.7C7.9,8,7.6,8.5,7.3,8.8v0.4c0.1,0.2,0.6,0.6,3.6,1.8l0,0c0.3,0.1,0.5,0.4,0.5,0.7V13
		C11.3,13.4,11,13.8,10.6,13.8z M5.7,2.9c-1.3,0-1.9,0.6-1.9,1.8v1.2c0,0.1,0,0.1-0.1,0.2C3.6,6.3,3.5,6.4,3.5,6.6
		c0,0.2,0.1,0.3,0.2,0.4c0.1,0,0.1,0.1,0.1,0.2c0.2,0.5,0.4,1,0.7,1.4c0.1,0.1,0.1,0.1,0.1,0.2v0.5c0,0,0,0.1,0,0.1
		c-0.1,0.4-0.7,1-4,2.2l0,1.4c0,0,0,0.1,0,0.1h9.9c0,0,0,0,0-0.1v-1.4l0-0.1c-3.3-1.3-3.8-1.8-4-2.2c0,0,0-0.1,0-0.1V8.7
		c0-0.1,0-0.2,0.1-0.2C7,8.2,7.3,7.7,7.4,7.1C7.5,7.1,7.5,7,7.6,7c0.1-0.1,0.2-0.2,0.2-0.4c0-0.2,0-0.3-0.1-0.4
		c0-0.1-0.1-0.1-0.1-0.2V4.7C7.6,3.5,6.9,2.9,5.7,2.9z"/>
	<path d="M15.4,13.8h-3c-0.2,0-0.3-0.1-0.3-0.3s0.1-0.3,0.3-0.3h3l0-1c-2.7-1-3-1.4-3.1-1.7c0,0,0-0.1,0-0.1V9.8
		c0-0.1,0-0.2,0.1-0.2c0.2-0.2,0.4-0.6,0.5-1c0-0.1,0.1-0.1,0.1-0.2c0.1-0.1,0.1-0.1,0.1-0.2c0-0.1,0-0.2-0.1-0.3
		c0-0.1-0.1-0.1-0.1-0.2V6.7c0-0.9-0.5-1.3-1.4-1.3c-0.9,0-1.4,0.5-1.4,1.3v0.9c0,0.1,0,0.2-0.1,0.2C9.9,8,9.9,8.1,9.9,8.2
		c0,0.1,0.1,0.2,0.1,0.2c0.1,0,0.1,0.1,0.1,0.2c0.1,0.4,0.3,0.8,0.5,1c0.1,0.1,0.1,0.3,0,0.5c-0.1,0.1-0.3,0.1-0.5,0
		C9.9,9.7,9.7,9.3,9.6,8.9C9.4,8.7,9.3,8.5,9.2,8.3c0-0.2,0-0.5,0.1-0.7V6.7c0-1.2,0.8-2,2.1-2c1.3,0,2.1,0.7,2.1,2v0.8
		c0.1,0.2,0.2,0.4,0.1,0.7c0,0.2-0.1,0.5-0.3,0.6c-0.1,0.4-0.3,0.8-0.6,1.1v0.2c0.1,0.1,0.5,0.5,2.7,1.3c0.2,0.1,0.4,0.3,0.4,0.6
		v1.1C16,13.5,15.7,13.8,15.4,13.8z"/>
</g>
</svg>
