<?xml version="1.0" encoding="utf-8"?>
<!-- Generator: Adobe Illustrator 22.1.0, SVG Export Plug-In . SVG Version: 6.00 Build 0)  -->
<svg version="1.1" id="Layer_1" xmlns="http://www.w3.org/2000/svg" xmlns:xlink="http://www.w3.org/1999/xlink" x="0px" y="0px"
	 viewBox="0 0 112 112" style="enable-background:new 0 0 112 112;" xml:space="preserve">
<style type="text/css">
	.st0{fill:none;stroke:#fff;stroke-width:4;stroke-linecap:round;stroke-linejoin:round;}
</style>
<polygon class="st0" points="81.2,37.5 81.2,103.1 3.9,97 3.9,33 "/>
<polygon class="st0" points="109,13.7 81.2,37.5 3.9,33 37.9,10.8 "/>
<line class="st0" x1="26.8" y1="25.6" x2="80.2" y2="28.7"/>
<line class="st0" x1="37.3" y1="18.1" x2="90.7" y2="21.2"/>
<polygon class="st0" points="109,13.7 109,74 81.2,103.1 81.2,37.5 "/>
<path class="st0" d="M57.4,54.2c-0.1,2.2-2,3.9-4.2,3.7l-23.7-1.5c-2.2-0.1-3.9-2-3.7-4.2l0,0c0.1-2.2,2-3.9,4.2-3.7L53.6,50
	C55.8,50.1,57.5,52,57.4,54.2L57.4,54.2z"/>
</svg>
