<svg id="Layer_1" data-name="Layer 1" xmlns="http://www.w3.org/2000/svg" viewBox="0 0 200 200"><defs><style>.cls-1{fill:#fff;}</style></defs><path class="cls-1" d="M156.69,158.74H42.32c-18.7,0-35.13-12.07-39.94-29.34-4.52-16.21,2.27-32.32,17.74-42.47A55.89,55.89,0,0,1,55.53,45a55.11,55.11,0,0,1,53.53,8.32c23.87-2.17,39.91,11.07,46.11,26.3a45.32,45.32,0,0,1,31.76,11.52c8.23,7.48,12.95,17.69,12.95,28C199.88,140.62,180.1,158.74,156.69,158.74ZM74.9,50a46.88,46.88,0,0,0-16.4,3C42.42,59,31.08,72.92,28.17,90.25a4.27,4.27,0,0,1-2,2.93C12.75,101.3,6.92,114,10.58,127.11c3.21,11.51,14.26,23.12,31.74,23.12H156.69c18.8,0,34.68-14.22,34.68-31,0-7.93-3.71-15.85-10.17-21.73a37.12,37.12,0,0,0-28.55-9.13,4.27,4.27,0,0,1-4.46-3C144.25,72.81,131.43,59.17,108.28,62a4.29,4.29,0,0,1-3.23-.94A47.19,47.19,0,0,0,74.9,50Z"/></svg>