<?xml version="1.0" encoding="utf-8"?>
<!-- Generator: Adobe Illustrator 22.1.0, SVG Export Plug-In . SVG Version: 6.00 Build 0)  -->
<svg version="1.1" id="Layer_1" xmlns="http://www.w3.org/2000/svg" xmlns:xlink="http://www.w3.org/1999/xlink" x="0px" y="0px"
	 viewBox="0 0 1000 1000" enable-background="new 0 0 1000 1000" xml:space="preserve">
<g>
	<path fill="#0B0C0A" d="M683.3,415.3H316.7c-9.2,0-16.7,7.5-16.7,16.7v100.8c0,9.2,7.5,16.7,16.7,16.7c9.2,0,16.7-7.5,16.7-16.7
		v-84.2h150v302.8H390c-9.2,0-16.7,7.5-16.7,16.7c0,9.2,7.5,16.7,16.7,16.7h220c9.2,0,16.7-7.5,16.7-16.7c0-9.2-7.5-16.7-16.7-16.7
		h-93.3V448.6h150v84.2c0,9.2,7.5,16.7,16.7,16.7c9.2,0,16.7-7.5,16.7-16.7V431.9C700,422.7,692.5,415.3,683.3,415.3z"/>
	<path fill="#0B0C0A" d="M832,298.3c-0.8-2-2.1-3.9-3.6-5.4l-188-188c-1.5-1.5-3.4-2.8-5.4-3.6c-2-0.8-8.2-1.3-10.4-1.3H183.3
		c-9.2,0-16.7,7.5-16.7,16.7v766.7c0,9.2,7.5,16.7,16.7,16.7h633.3c9.2,0,16.7-7.5,16.7-16.7V304.7
		C833.3,302.4,832.9,300.3,832,298.3z M635.3,164.9L768.4,294H635.3V164.9z M212,854.7V145.3h380v175.3c0,9.2,15.5,16.7,24.7,16.7
		H788v517.3H212z"/>
</g>
</svg>
