<?xml version="1.0" encoding="utf-8"?>
<!-- Generator: Adobe Illustrator 22.1.0, SVG Export Plug-In . SVG Version: 6.00 Build 0)  -->
<svg version="1.1" id="Layer_1" xmlns="http://www.w3.org/2000/svg" xmlns:xlink="http://www.w3.org/1999/xlink" x="0px" y="0px"
	 viewBox="0 0 1000 1000" enable-background="new 0 0 1000 1000" xml:space="preserve">
<g>
	<path d="M404.3,287.9l45.7-55.2v487c0,20.2,20,30.2,50,30.2s50-10.1,50-30.2v-487l45.7,55.2c6,5.8,17.9,11.6,23.9,11.6
		c6,0,12,0,17.9-5.8c12-11.6,17.9-28.9,6-40.5L523.9,108.7c-12-11.6-35.9-11.6-47.8,0L356.5,253.2c-12,11.6-6,28.9,6,40.5
		C374.5,305.3,392.4,299.5,404.3,287.9z"/>
	<path d="M875,450H650v42h209v371H142V492h208v-42H125c-15,0-25,10-25,25v400c0,15,10,25,25,25h750c15,0,25-5,25-25V475
		C900,460,890,450,875,450z"/>
</g>
</svg>
