<?xml version="1.0" encoding="utf-8"?>
<!-- Generator: Adobe Illustrator 22.1.0, SVG Export Plug-In . SVG Version: 6.00 Build 0)  -->
<svg version="1.1" id="Layer_1" xmlns="http://www.w3.org/2000/svg" xmlns:xlink="http://www.w3.org/1999/xlink" x="0px" y="0px"
	 viewBox="0 0 1000 1000" enable-background="new 0 0 1000 1000" xml:space="preserve">
<g>
	<path d="M883.3,189.3H116.7c-9.2,0-16.7,7.5-16.7,16.7v166.7c0,9.2,7.5,16.7,16.7,16.7h16.7V806c0,9.2,7.5,16.7,16.7,16.7h700
		c9.2,0,16.7-7.5,16.7-16.7V389.3h16.7c9.2,0,16.7-7.5,16.7-16.7V206C900,196.8,892.5,189.3,883.3,189.3z M825.3,781.3H174.7v-392
		h650.7V781.3z M858.7,348H850H150h-8.7V230.7h717.3V348z"/>
	<path d="M383.3,556h233.3c9.2,0,16.7-7.5,16.7-16.7v-66.7c0-9.2-7.5-16.7-16.7-16.7H383.3c-9.2,0-16.7,7.5-16.7,16.7v66.7
		C366.7,548.5,374.1,556,383.3,556z M400,489.3h200v33.3H400V489.3z"/>
</g>
</svg>
