<?xml version="1.0" encoding="utf-8"?>
<!-- Generator: Adobe Illustrator 22.1.0, SVG Export Plug-In . SVG Version: 6.00 Build 0)  -->
<svg version="1.1" id="Layer_1" xmlns="http://www.w3.org/2000/svg" xmlns:xlink="http://www.w3.org/1999/xlink" x="0px" y="0px"
	 viewBox="0 0 1000 1000" enable-background="new 0 0 1000 1000" xml:space="preserve">
<g>
	<path d="M500,100c-220.6,0-400,179.4-400,400s179.4,400,400,400s400-179.4,400-400S720.6,100,500,100z M500,865.2
		c-201.4,0-365.2-163.8-365.2-365.2S298.6,134.8,500,134.8S865.2,298.6,865.2,500S701.4,865.2,500,865.2z"/>
	<path d="M708.7,465.2H534.8V291.3c0-19.2-15.6-34.8-34.8-34.8s-34.8,15.6-34.8,34.8v173.9H291.3c-19.2,0-34.8,15.6-34.8,34.8
		s15.6,34.8,34.8,34.8h173.9v173.9c0,19.2,15.6,34.8,34.8,34.8s34.8-15.6,34.8-34.8V534.8h173.9c19.2,0,34.8-15.6,34.8-34.8
		S727.9,465.2,708.7,465.2z"/>
</g>
</svg>
