<?xml version="1.0" encoding="utf-8"?>
<!-- Generator: Adobe Illustrator 22.1.0, SVG Export Plug-In . SVG Version: 6.00 Build 0)  -->
<svg version="1.1" id="Layer_1" xmlns="http://www.w3.org/2000/svg" xmlns:xlink="http://www.w3.org/1999/xlink" x="0px" y="0px"
	 viewBox="0 0 1000 1000" enable-background="new 0 0 1000 1000" xml:space="preserve">
<g>
	<path d="M795,310L595.4,110.4c-4.3-6.3-11.2-10.4-20.4-10.4H225c-15,0-25,10-25,25v750c0,15,10,25,25,25h550c15,0,25-10,25-25V325
		C800,320,795,310,795,310z M600,185l115,115H600V185z M250,850V150h300v175c0,15,10,25,25,25h175v500H250z"/>
	<rect x="350" y="500" width="300" height="50"/>
	<rect x="350" y="650" width="300" height="50"/>
</g>
</svg>
