<?xml version="1.0" encoding="utf-8"?>
<!-- Generator: Adobe Illustrator 22.1.0, SVG Export Plug-In . SVG Version: 6.00 Build 0)  -->
<svg version="1.1" id="Layer_1" xmlns="http://www.w3.org/2000/svg" xmlns:xlink="http://www.w3.org/1999/xlink" x="0px" y="0px"
	 viewBox="0 0 1000 1000" enable-background="new 0 0 1000 1000" xml:space="preserve">
<g>
	<path fill="#151515" d="M736.2,545c-111.8,0-202.5,90.7-202.5,202.5S624.4,950,736.2,950s202.5-90.7,202.5-202.5
		S848.1,545,736.2,545z M736.2,905c-87,0-157.5-70.5-157.5-157.5S649.3,590,736.2,590s157.5,70.5,157.5,157.5S823.2,905,736.2,905z"
		/>
	<path fill="#151515" d="M826.2,725h-67.5v-67.5c0-12.4-10.1-22.5-22.5-22.5s-22.5,10.1-22.5,22.5V725h-67.5
		c-12.4,0-22.5,10.1-22.5,22.5s10.1,22.5,22.5,22.5h67.5v67.5c0,12.4,10.1,22.5,22.5,22.5s22.5-10.1,22.5-22.5V770h67.5
		c12.4,0,22.5-10.1,22.5-22.5S838.7,725,826.2,725z"/>
	<path fill="#151515" d="M488.8,770H197.1C208.6,619.2,335,500,488.8,500c44.3,0,86.9,9.6,126.5,28.7c11.2,5.4,24.6,0.7,30.1-10.5
		c5.4-11.2,0.7-24.6-10.5-30c-15.3-7.4-31.1-13-47.1-18c48.8-32.2,81.2-87.4,81.2-150.2c0-72.8-43.6-135.2-105.9-163.6
		C533.9,91.7,469.9,50,398.8,50c-99.3,0-180,80.7-180,180c0,61.3,30.6,116.9,80.9,150.1C159.3,422.8,61.2,551.9,61.2,702.5
		c0,12.4,10.1,22.5,22.5,22.5h74.3c-4.4,21.8-6.8,44.4-6.8,67.5c0,12.4,10.1,22.5,22.5,22.5h315c12.4,0,22.5-10.1,22.5-22.5
		S501.2,770,488.8,770z M623.8,320c0,74.4-60.6,135-135,135c-57.9,0-107.1-36.9-126.2-88.3c-2.6-7-4.8-14.2-6.3-21.7
		c-1.5-8.1-2.5-16.5-2.5-25.1c0-74.4,60.6-135,135-135c1,0,2,0.3,3,0.3c9.4,0.2,18.5,1.4,27.2,3.4c0.3,0.1,0.5,0.2,0.8,0.2
		c8.5,2,16.7,4.8,24.5,8.3C591,218.5,623.8,265.4,623.8,320z M263.8,230c0-74.4,60.6-135,135-135c39.4,0,75.4,17.6,100.5,46.1
		c-3.6-0.2-6.9-1.1-10.5-1.1c-99.3,0-180,80.7-180,180c0,3.5,0.8,6.8,1,10.3C281.3,305.1,263.8,269.4,263.8,230z M107.1,680
		c9.7-129.2,103.2-235.8,230.6-262.8c13.5,20.9,31.1,39,51.8,52.8c-101.9,31.4-183,110-218.6,210.1H107.1z"/>
</g>
</svg>
