<?xml version="1.0" encoding="utf-8"?>
<!-- Generator: Adobe Illustrator 22.1.0, SVG Export Plug-In . SVG Version: 6.00 Build 0)  -->
<svg version="1.1" id="Layer_1" xmlns="http://www.w3.org/2000/svg" xmlns:xlink="http://www.w3.org/1999/xlink" x="0px" y="0px"
	 viewBox="0 0 1000 1000" enable-background="new 0 0 1000 1000" xml:space="preserve">
<g id="Autofill-_x28_2_x29_-and-Add-Assignment-_x28_3_x29_">
	<g id="Project-Autofill-B" transform="translate(-361.000000, -171.000000)">
		<g id="content" transform="translate(25.000000, 106.000000)">
			<g id="left-panel" transform="translate(0.000000, 1.000000)">
				<g id="Card-1" transform="translate(25.000000, 51.000000)">
					<g id="actions" transform="translate(12.000000, 9.000000)">
						<g id="Stroke-148-_x2B_-Stroke-149" transform="translate(298.000000, 0.000000)">
							<path d="M501,740.7c-216.8,0-387.5-212.5-394.7-221.5c-7.1-8.9-7.1-21.5,0-30.4c7.2-9,177.9-221.5,394.7-221.5
								s387.5,212.5,394.7,221.5c7.1,8.9,7.1,21.5,0,30.4C888.5,528.2,717.8,740.7,501,740.7z M149.8,504
								c42.3,47.2,189.9,195.8,351.2,195.8c161.7,0,309-148.6,351.2-195.7C810,456.8,662.4,308.2,501,308.2
								C339.7,308.2,192.1,456.8,149.8,504z"/>
							<path d="M501,659.1c-85.5,0-155.1-69.6-155.1-155.1S415.5,348.9,501,348.9S656.1,418.5,656.1,504S586.5,659.1,501,659.1z
								 M501,394c-60.7,0-110,49.3-110,110s49.3,110,110,110s110-49.4,110-110S561.7,394,501,394z"/>
						</g>
					</g>
				</g>
			</g>
		</g>
	</g>
</g>
</svg>
