<?xml version="1.0" encoding="utf-8"?>
<!-- Generator: Adobe Illustrator 22.1.0, SVG Export Plug-In . SVG Version: 6.00 Build 0)  -->
<svg version="1.1" id="Layer_1" xmlns="http://www.w3.org/2000/svg" xmlns:xlink="http://www.w3.org/1999/xlink" x="0px" y="0px"
	 viewBox="0 0 1000 1000" enable-background="new 0 0 1000 1000" xml:space="preserve">
<g>
	<path d="M683.3,466.1c-119.5,0-216.7,97.2-216.7,216.7s97.2,216.7,216.7,216.7S900,802.3,900,682.8S802.8,466.1,683.3,466.1z
		 M683.3,862.3c-99,0-179.5-80.5-179.5-179.5s80.5-179.5,179.5-179.5s179.5,80.5,179.5,179.5S793,862.3,683.3,862.3z"/>
	<path d="M778.2,662.1H704v-74.3c0-9.2-10.5-16.7-19.7-16.7c-9.2,0-21.7,7.5-21.7,16.7v74.3h-74.3c-9.2,0-16.7,11.5-16.7,20.7
		c0,9.2,7.5,20.7,16.7,20.7h74.3v74.3c0,9.2,12.5,16.7,21.7,16.7c9.2,0,19.7-7.5,19.7-16.7v-74.3h74.2c9.2,0,16.7-11.5,16.7-20.7
		C794.9,673.6,787.4,662.1,778.2,662.1z"/>
	<path d="M142.3,143.9h314.3v150c0,9.2,7.5,16.7,16.7,16.7h150v123.3h43.3v-154c0-2.2-0.5-4.4-1.3-6.4c-0.8-2-2.1-3.9-3.6-5.4
		L507.1,105.4c-1.5-1.5-3.4-2.8-5.4-3.6c-2-0.8-4.2-1.3-6.4-1.3H116.7c-9.2,0-16.7,7.5-16.7,16.7v700c0,9.2,7.5,16.7,16.7,16.7h350
		v-43.3H142.3V143.9z M500,165.4l101.8,101.8H500V165.4z"/>
</g>
</svg>
