<?xml version="1.0" encoding="utf-8"?>
<!-- Generator: Adobe Illustrator 22.1.0, SVG Export Plug-In . SVG Version: 6.00 Build 0)  -->
<svg version="1.1" id="Layer_1" xmlns="http://www.w3.org/2000/svg" xmlns:xlink="http://www.w3.org/1999/xlink" x="0px" y="0px"
	 viewBox="0 0 1000 1000" enable-background="new 0 0 1000 1000" xml:space="preserve">
<g>
	<path d="M683.3,466.1c-119.5,0-216.7,97.2-216.7,216.7s97.2,216.7,216.7,216.7c119.5,0,216.7-97.2,216.7-216.7
		S802.8,466.1,683.3,466.1z M683.3,862.3c-99,0-179.5-80.5-179.5-179.5s80.5-179.5,179.5-179.5c99,0,179.5,80.5,179.5,179.5
		S782.3,862.3,683.3,862.3z"/>
	<path d="M778.2,662.1H704v-74.3c0-9.2-11.5-16.7-20.7-16.7c-9.2,0-20.7,7.5-20.7,16.7v74.3h-74.3c-9.2,0-16.7,11.5-16.7,20.7
		s7.5,20.7,16.7,20.7h74.3v74.3c0,9.2,11.5,16.7,20.7,16.7c9.2,0,20.7-7.5,20.7-16.7v-74.3h74.2c9.2,0,16.7-11.5,16.7-20.7
		S787.4,662.1,778.2,662.1z"/>
	<path d="M292.4,271.5c8.8,0,24-7.1,24-16V151.7h271.5v71.9c0,8.8,7.1,16,16,16h87.9v16c0,8.8,11.1,16,20,16s20-7.1,20-16v-31.9
		c0-2.1-0.4-4.2-1.2-6.1c-0.8-1.9-2-3.7-3.5-5.2l-95.8-95.8c-1.5-1.5-3.2-2.6-5.2-3.5c-1.9-0.8-4-1.2-6.1-1.2H292.4
		c-8.8,0-16,7.1-16,16v127.8C276.4,264.4,283.5,271.5,292.4,271.5z M627.8,166.3l41.3,41.3h-41.3V166.3z"/>
	<path d="M188.6,423.3c0,26.4,21.5,47.9,47.9,47.9s47.9-21.5,47.9-47.9c0-26.4-21.5-47.9-47.9-47.9S188.6,396.8,188.6,423.3z
		 M252.4,423.3c0,8.8-7.2,16-16,16c-8.8,0-16-7.2-16-16s7.2-16,16-16C245.3,407.3,252.4,414.4,252.4,423.3z"/>
	<path d="M196.5,612.9c-26.4,0-37.9-15.5-37.9-41.9V387.3c0-26.4,11.5-43.9,37.9-43.9h606.9c26.4,0,39.9,17.5,39.9,43.9v104.5
		c11.7,10.5,30.4,26.1,39.9,38.6V383.3c0-44-35.8-79.9-79.9-79.9H196.5c-44,0-79.9,35.8-79.9,79.9V575c0,44,35.8,79.9,79.9,79.9
		h236.8c1.2-10.9,3.1-31.5,5.7-41.9h-50.8H196.5z"/>
</g>
</svg>
