<svg xmlns="http://www.w3.org/2000/svg" xmlns:xlink="http://www.w3.org/1999/xlink" version="1.1" id="Layer_1" x="0px" y="0px" viewBox="0 0 431 512" style="enable-background:new 0 0 431 512;" xml:space="preserve">
<path d="M358.1,128H282V51.9L358.1,128z M74,48h160v104c0,13.3,10.7,24,24,24h104v32.1h48v-76.2c0-12.7-5.1-25-14.1-34L312,14  c-9-9-21.2-14.1-33.9-14.1H74C47.5,0,26,21.5,26,48v160h48V48z M362,304v160H74V304H26v160c0,26.5,21.5,48,48,48h288  c26.5,0,48-21.5,48-48V304H362z M248.9,232h-63.3c-8.1,0-14.6,6.5-14.6,14.6v19.3c0,7.8,6.3,14.1,14.1,14.1H249  c7.8,0,14.1-6.3,14.1-14.1V246C263,238.3,256.7,232,248.9,232z M416.4,232.1h-88.9c-8,0-14.6,6.5-14.6,14.6v18.8  c0,8,6.5,14.6,14.6,14.6h88.9c8,0,14.6-6.5,14.6-14.6v-18.8C431,238.6,424.5,232.1,416.4,232.1z M103.5,232h-89  c-8,0-14.5,6.5-14.5,14.5v19c0,8,6.5,14.5,14.5,14.5h89c8,0,14.5-6.5,14.5-14.5v-19C118,238.5,111.5,232,103.5,232z" fill="#6e6e6e"/>
</svg>