<?xml version="1.0" encoding="UTF-8"?>
<svg width="15px" height="15px" viewBox="0 0 15 15" version="1.1" xmlns="http://www.w3.org/2000/svg" xmlns:xlink="http://www.w3.org/1999/xlink">
    <!-- Generator: Sketch 52.4 (67378) - http://www.bohemiancoding.com/sketch -->
    <title>icnDeskew1</title>
    <desc>Created with Sketch.</desc>
    <g id="Capture-Flow" stroke="none" stroke-width="1" fill="none" fill-rule="evenodd">
        <g id="Capture-Icons" transform="translate(-200.000000, -319.000000)" fill="#6e6e6e" fill-rule="nonzero">
            <g id="icnDeskew1" transform="translate(200.000000, 319.000000)">
                <path d="M5.5,2 C5.77614237,2 6,2.22385763 6,2.5 L6,12.5 C6,12.7761424 5.77614237,13 5.5,13 L0.5,13 C0.184476788,13 -0.0521695307,12.7113379 0.00970966215,12.4019419 L2.00970966,2.40194193 C2.05645208,2.16822983 2.26165949,2 2.5,2 L5.5,2 Z M5,3 L2.90990195,3 L1.10990195,12 L5,12 L5,3 Z" id="Stroke-217"></path>
                <path d="M12.5,2 C12.7383405,2 12.9435479,2.16822983 12.9902903,2.40194193 L14.9902903,12.4019419 C15.0521695,12.7113379 14.8155232,13 14.5,13 L9.5,13 C9.22385763,13 9,12.7761424 9,12.5 L9,2.5 C9,2.22385763 9.22385763,2 9.5,2 L12.5,2 Z M12.090098,3 L10,3 L10,12 L13.890098,12 L12.090098,3 Z" id="Stroke-217"></path>
                <path d="M8,2.5 C8,2.77614237 7.77614237,3 7.5,3 C7.22385763,3 7,2.77614237 7,2.5 L7,0.5 C7,0.223857625 7.22385763,0 7.5,0 C7.77614237,0 8,0.223857625 8,0.5 L8,2.5 Z" id="Stroke-218"></path>
                <path d="M8,6.5 C8,6.77614237 7.77614237,7 7.5,7 C7.22385763,7 7,6.77614237 7,6.5 L7,4.5 C7,4.22385763 7.22385763,4 7.5,4 C7.77614237,4 8,4.22385763 8,4.5 L8,6.5 Z" id="Stroke-218-Copy"></path>
                <path d="M8,10.5 C8,10.7761424 7.77614237,11 7.5,11 C7.22385763,11 7,10.7761424 7,10.5 L7,8.5 C7,8.22385763 7.22385763,8 7.5,8 C7.77614237,8 8,8.22385763 8,8.5 L8,10.5 Z" id="Stroke-218-Copy-2"></path>
                <path d="M8,14.5 C8,14.7761424 7.77614237,15 7.5,15 C7.22385763,15 7,14.7761424 7,14.5 L7,12.5 C7,12.2238576 7.22385763,12 7.5,12 C7.77614237,12 8,12.2238576 8,12.5 L8,14.5 Z" id="Stroke-218-Copy-3"></path>
            </g>
        </g>
    </g>
</svg>