<?xml version="1.0" encoding="UTF-8"?>
<svg width="16px" height="16px" viewBox="0 0 16 16" version="1.1" xmlns="http://www.w3.org/2000/svg" xmlns:xlink="http://www.w3.org/1999/xlink">
    <!-- Generator: Sketch 52.4 (67378) - http://www.bohemiancoding.com/sketch -->
    <title>icnDespeckle</title>
    <desc>Created with Sketch.</desc>
    <g id="Capture-Flow" stroke="none" stroke-width="1" fill="none" fill-rule="evenodd" stroke-linejoin="round">
        <g id="Capture-Icons" transform="translate(-200.000000, -347.000000)" stroke="#6e6e6e">
            <g id="icnDespeckle" transform="translate(200.000000, 347.000000)">
                <polygon id="Stroke-7325" points="15.5 15.5 0.5 15.5 0.5 0.5 15.5 0.5"></polygon>
                <g id="dots" transform="translate(0.000000, 8.000000)">
                    <polygon id="Stroke-7354-Copy-9" points="1.5 1 0.5 1 0.5 0 1.5 0"></polygon>
                    <polygon id="Stroke-7354-Copy-10" points="4.5 1 3.5 1 3.5 0 4.5 0"></polygon>
                    <polygon id="Stroke-7354-Copy-11" points="7.5 1 6.5 1 6.5 0 7.5 0"></polygon>
                    <polygon id="Stroke-7354-Copy-12" points="10.5 1 9.5 1 9.5 0 10.5 0"></polygon>
                    <polygon id="Stroke-7354-Copy-13" points="13.5 1 12.5 1 12.5 0 13.5 0"></polygon>
                    <polygon id="Stroke-7354-Copy-19" points="3 2.5 2 2.5 2 1.5 3 1.5"></polygon>
                    <polygon id="Stroke-7354-Copy-8" points="6 2.5 5 2.5 5 1.5 6 1.5"></polygon>
                    <polygon id="Stroke-7354-Copy-7" points="9 2.5 8 2.5 8 1.5 9 1.5"></polygon>
                    <polygon id="Stroke-7354-Copy-6" points="12 2.5 11 2.5 11 1.5 12 1.5"></polygon>
                    <polygon id="Stroke-7354-Copy-5" points="15 2.5 14 2.5 14 1.5 15 1.5"></polygon>
                    <polygon id="Stroke-7354-Copy-18" points="1.5 4 0.5 4 0.5 3 1.5 3"></polygon>
                    <polygon id="Stroke-7354-Copy-17" points="4.5 4 3.5 4 3.5 3 4.5 3"></polygon>
                    <polygon id="Stroke-7354-Copy-16" points="7.5 4 6.5 4 6.5 3 7.5 3"></polygon>
                    <polygon id="Stroke-7354-Copy-15" points="10.5 4 9.5 4 9.5 3 10.5 3"></polygon>
                    <polygon id="Stroke-7354-Copy-14" points="13.5 4 12.5 4 12.5 3 13.5 3"></polygon>
                    <polygon id="Stroke-7354-Copy-29" points="3 5.5 2 5.5 2 4.5 3 4.5"></polygon>
                    <polygon id="Stroke-7354-Copy-28" points="6 5.5 5 5.5 5 4.5 6 4.5"></polygon>
                    <polygon id="Stroke-7354-Copy-27" points="9 5.5 8 5.5 8 4.5 9 4.5"></polygon>
                    <polygon id="Stroke-7354-Copy-26" points="12 5.5 11 5.5 11 4.5 12 4.5"></polygon>
                    <polygon id="Stroke-7354-Copy-25" points="15 5.5 14 5.5 14 4.5 15 4.5"></polygon>
                    <polygon id="Stroke-7354-Copy-24" points="1.5 7 0.5 7 0.5 6 1.5 6"></polygon>
                    <polygon id="Stroke-7354-Copy-23" points="4.5 7 3.5 7 3.5 6 4.5 6"></polygon>
                    <polygon id="Stroke-7354-Copy-22" points="7.5 7 6.5 7 6.5 6 7.5 6"></polygon>
                    <polygon id="Stroke-7354-Copy-21" points="10.5 7 9.5 7 9.5 6 10.5 6"></polygon>
                    <polygon id="Stroke-7354-Copy-20" points="13.5 7 12.5 7 12.5 6 13.5 6"></polygon>
                </g>
            </g>
        </g>
    </g>
</svg>