<?xml version="1.0" encoding="UTF-8"?>
<svg width="20px" height="16px" viewBox="0 0 20 16" version="1.1" xmlns="http://www.w3.org/2000/svg" xmlns:xlink="http://www.w3.org/1999/xlink">
    <!-- Generator: Sketch 52.4 (67378) - http://www.bohemiancoding.com/sketch -->
    <title>lhnExceptionsQueue</title>
    <desc>Created with Sketch.</desc>
    <g id="Capture-Flow" stroke="none" stroke-width="1" fill="none" fill-rule="evenodd">
        <g id="Capture-Icons" transform="translate(-199.000000, -375.000000)" fill="#6e6e6e" fill-rule="nonzero">
            <g id="lhnExceptionsQueue" transform="translate(199.000000, 375.000000)">
                <path d="M18.7763932,10.5527864 C19.0233825,10.4292918 19.323719,10.529404 19.4472136,10.7763932 C19.5707082,11.0233825 19.470596,11.323719 19.2236068,11.4472136 L10.2236068,15.9472136 C10.0828431,16.0175955 9.91715695,16.0175955 9.7763932,15.9472136 L0.776393202,11.4472136 C0.529403954,11.323719 0.42929178,11.0233825 0.552786405,10.7763932 C0.676281029,10.529404 0.976617549,10.4292918 1.2236068,10.5527864 L10,14.940983 L18.7763932,10.5527864 Z" id="Path-2"></path>
                <path d="M10,11.940983 L18.7763932,7.5527864 C19.0233825,7.42929178 19.323719,7.52940395 19.4472136,7.7763932 C19.5707082,8.02338245 19.470596,8.32371897 19.2236068,8.4472136 L10.2236068,12.9472136 C10.0828431,13.0175955 9.91715695,13.0175955 9.7763932,12.9472136 L0.776393202,8.4472136 C0.529403954,8.32371897 0.42929178,8.02338245 0.552786405,7.7763932 C0.676281029,7.52940395 0.976617549,7.42929178 1.2236068,7.5527864 L10,11.940983 Z" id="Path-2"></path>
                <path d="M10.2236068,9.9472136 C10.0828431,10.0175955 9.91715695,10.0175955 9.7763932,9.9472136 L0.776393202,5.4472136 C0.398444675,5.25823933 0.410791199,4.71471181 0.796930767,4.54309423 L9.79693077,0.543094226 C9.92621344,0.485635258 10.0737866,0.485635258 10.2030692,0.543094226 L19.2030692,4.54309423 C19.5892088,4.71471181 19.6015553,5.25823933 19.2236068,5.4472136 L10.2236068,9.9472136 Z M10,8.94098301 L17.8287551,5.02660547 L10,1.54715877 L2.17124492,5.02660547 L10,8.94098301 Z" id="Path-2"></path>
            </g>
        </g>
    </g>
</svg>