<?xml version="1.0" encoding="UTF-8"?>
<svg width="11px" height="16px" viewBox="0 0 11 16" version="1.1" xmlns="http://www.w3.org/2000/svg" xmlns:xlink="http://www.w3.org/1999/xlink">
    <!-- Generator: Sketch 52.4 (67378) - http://www.bohemiancoding.com/sketch -->
    <title>icnFitToHeight</title>
    <desc>Created with Sketch.</desc>
    <g id="Capture-Flow" stroke="none" stroke-width="1" fill="none" fill-rule="evenodd">
        <g id="Capture-Icons" transform="translate(-202.000000, -243.000000)" fill="#6e6e6e" fill-rule="nonzero">
            <g id="icnFitToHeight" transform="translate(202.000000, 243.000000)">
                <path d="M3.85355339,4.85355339 C3.65829124,5.04881554 3.34170876,5.04881554 3.14644661,4.85355339 C2.95118446,4.65829124 2.95118446,4.34170876 3.14644661,4.14644661 L5.14644661,2.14644661 C5.34170876,1.95118446 5.65829124,1.95118446 5.85355339,2.14644661 L7.85355339,4.14644661 C8.04881554,4.34170876 8.04881554,4.65829124 7.85355339,4.85355339 C7.65829124,5.04881554 7.34170876,5.04881554 7.14644661,4.85355339 L5.5,3.20710678 L3.85355339,4.85355339 Z" id="Stroke-289"></path>
                <path d="M6,13.5 C6,13.7761424 5.77614237,14 5.5,14 C5.22385763,14 5,13.7761424 5,13.5 L5,2.5 C5,2.22385763 5.22385763,2 5.5,2 C5.77614237,2 6,2.22385763 6,2.5 L6,13.5 Z" id="Stroke-290"></path>
                <path d="M7.14644661,11.1464466 C7.34170876,10.9511845 7.65829124,10.9511845 7.85355339,11.1464466 C8.04881554,11.3417088 8.04881554,11.6582912 7.85355339,11.8535534 L5.85355339,13.8535534 C5.65829124,14.0488155 5.34170876,14.0488155 5.14644661,13.8535534 L3.14644661,11.8535534 C2.95118446,11.6582912 2.95118446,11.3417088 3.14644661,11.1464466 C3.34170876,10.9511845 3.65829124,10.9511845 3.85355339,11.1464466 L5.5,12.7928932 L7.14644661,11.1464466 Z" id="Stroke-291"></path>
                <path d="M0.5,16 C0.223857625,16 0,15.7761424 0,15.5 C0,15.2238576 0.223857625,15 0.5,15 L10.5,15 C10.7761424,15 11,15.2238576 11,15.5 C11,15.7761424 10.7761424,16 10.5,16 L0.5,16 Z" id="Stroke-292"></path>
                <path d="M0.5,1 C0.223857625,1 0,0.776142375 0,0.5 C0,0.223857625 0.223857625,0 0.5,0 L10.5,0 C10.7761424,0 11,0.223857625 11,0.5 C11,0.776142375 10.7761424,1 10.5,1 L0.5,1 Z" id="Stroke-293"></path>
            </g>
        </g>
    </g>
</svg>