<?xml version="1.0" encoding="UTF-8"?>
<svg width="16px" height="11px" viewBox="0 0 16 11" version="1.1" xmlns="http://www.w3.org/2000/svg" xmlns:xlink="http://www.w3.org/1999/xlink">
    <!-- Generator: Sketch 52.4 (67378) - http://www.bohemiancoding.com/sketch -->
    <title>icnFitToWidth</title>
    <desc>Created with Sketch.</desc>
    <g id="Capture-Flow" stroke="none" stroke-width="1" fill="none" fill-rule="evenodd">
        <g id="Capture-Icons" transform="translate(-200.000000, -217.000000)" fill="#6e6e6e" fill-rule="nonzero">
            <g id="icnFitToWidth" transform="translate(200.000000, 217.000000)">
                <path d="M11.1464466,3.85355339 C10.9511845,3.65829124 10.9511845,3.34170876 11.1464466,3.14644661 C11.3417088,2.95118446 11.6582912,2.95118446 11.8535534,3.14644661 L13.8535534,5.14644661 C14.0488155,5.34170876 14.0488155,5.65829124 13.8535534,5.85355339 L11.8535534,7.85355339 C11.6582912,8.04881554 11.3417088,8.04881554 11.1464466,7.85355339 C10.9511845,7.65829124 10.9511845,7.34170876 11.1464466,7.14644661 L12.7928932,5.5 L11.1464466,3.85355339 Z" id="Stroke-284"></path>
                <path d="M2.5,6 C2.22385763,6 2,5.77614237 2,5.5 C2,5.22385763 2.22385763,5 2.5,5 L13.5,5 C13.7761424,5 14,5.22385763 14,5.5 C14,5.77614237 13.7761424,6 13.5,6 L2.5,6 Z" id="Stroke-285"></path>
                <path d="M3.20710678,5.5 L4.85355339,7.14644661 C5.04881554,7.34170876 5.04881554,7.65829124 4.85355339,7.85355339 C4.65829124,8.04881554 4.34170876,8.04881554 4.14644661,7.85355339 L2.14644661,5.85355339 C1.95118446,5.65829124 1.95118446,5.34170876 2.14644661,5.14644661 L4.14644661,3.14644661 C4.34170876,2.95118446 4.65829124,2.95118446 4.85355339,3.14644661 C5.04881554,3.34170876 5.04881554,3.65829124 4.85355339,3.85355339 L3.20710678,5.5 Z" id="Stroke-286"></path>
                <path d="M0,0.5 C0,0.223857625 0.223857625,0 0.5,0 C0.776142375,0 1,0.223857625 1,0.5 L1,10.5 C1,10.7761424 0.776142375,11 0.5,11 C0.223857625,11 0,10.7761424 0,10.5 L0,0.5 Z" id="Stroke-287"></path>
                <path d="M15,0.5 C15,0.223857625 15.2238576,0 15.5,0 C15.7761424,0 16,0.223857625 16,0.5 L16,10.5 C16,10.7761424 15.7761424,11 15.5,11 C15.2238576,11 15,10.7761424 15,10.5 L15,0.5 Z" id="Stroke-288"></path>
            </g>
        </g>
    </g>
</svg>