<svg xmlns="http://www.w3.org/2000/svg" width="24" height="24" viewBox="0 0 24 24">
    <g fill="none" fill-rule="evenodd">
        <path d="M0 0L24 0 24 24 0 24z"/>
        <path fill="#6B7786" fill-rule="nonzero" d="M17 19c.99 0 1.93.21 2.78.58.74.32 1.22 1.04 1.22 1.85V22h-8v-.57c0-.81.48-1.53 1.22-1.85.85-.37 1.79-.58 2.78-.58zM12 1l2.839 2.839L18 7v4.9h-2V8h-5V3H4v15.2c0 .41.288.74.65.793l.1.007h6.125v2H4c-1 0-2-1-2-2.5v-15C2 2.017 3 1 4 1h8zm5 13c1.1 0 2 .9 2 2s-.9 2-2 2-2-.9-2-2 .9-2 2-2zm-3 1v2H6v-2h8zm0-4v2H6v-2h8z"/>
    </g>
</svg>
