<?xml version="1.0" encoding="UTF-8"?>
<svg width="14px" height="16px" viewBox="0 0 14 16" version="1.1" xmlns="http://www.w3.org/2000/svg" xmlns:xlink="http://www.w3.org/1999/xlink">
    <!-- Generator: Sketch 52.4 (67378) - http://www.bohemiancoding.com/sketch -->
    <title>icnOCR</title>
    <desc>Created with Sketch.</desc>
    <g id="Capture-Flow" stroke="none" stroke-width="1" fill="none" fill-rule="evenodd">
        <g id="Capture-Icons" transform="translate(-200.000000, -111.000000)" fill="#6e6e6e" fill-rule="nonzero">
            <g id="icnOCR" transform="translate(200.000000, 111.000000)">
                <path d="M4,8.4 C4,8.6209139 3.8209139,8.8 3.6,8.8 C3.3790861,8.8 3.2,8.6209139 3.2,8.4 L3.2,6.8 C3.2,6.5790861 3.3790861,6.4 3.6,6.4 L10,6.4 C10.2209139,6.4 10.4,6.5790861 10.4,6.8 L10.4,8.4 C10.4,8.6209139 10.2209139,8.8 10,8.8 C9.7790861,8.8 9.6,8.6209139 9.6,8.4 L9.6,7.2 L4,7.2 L4,8.4 Z" id="Stroke-27"></path>
                <path d="M6.4,6.8 C6.4,6.5790861 6.62385763,6.4 6.9,6.4 C7.17614237,6.4 7.4,6.5790861 7.4,6.8 L7.4,13.2 C7.4,13.4209139 7.17614237,13.6 6.9,13.6 C6.62385763,13.6 6.4,13.4209139 6.4,13.2 L6.4,6.8 Z" id="Stroke-28"></path>
                <path d="M4.4,13.8 C4.1790861,13.8 4,13.5761424 4,13.3 C4,13.0238576 4.1790861,12.8 4.4,12.8 L9.2,12.8 C9.4209139,12.8 9.6,13.0238576 9.6,13.3 C9.6,13.5761424 9.4209139,13.8 9.2,13.8 L4.4,13.8 Z" id="Stroke-29"></path>
                <path d="M0.8,15.2 L12.8,15.2 L12.8,4.56568542 L9.03431458,0.8 L0.8,0.8 L0.8,15.2 Z M-8.70414851e-14,15.6 L-8.70414851e-14,0.4 C-8.70414851e-14,0.1790861 0.1790861,-5.32907052e-15 0.4,-5.32907052e-15 L9.2,-5.32907052e-15 C9.3060866,-5.32907052e-15 9.40782816,0.0421427361 9.48284271,0.117157288 L13.4828427,4.11715729 C13.5578573,4.19217184 13.6,4.2939134 13.6,4.4 L13.6,15.6 C13.6,15.8209139 13.4209139,16 13.2,16 L0.4,16 C0.1790861,16 -8.70414851e-14,15.8209139 -8.70414851e-14,15.6 Z" id="Stroke-30"></path>
                <path d="M13.2,4 C13.4209139,4 13.6,4.1790861 13.6,4.4 C13.6,4.6209139 13.4209139,4.8 13.2,4.8 L9.2,4.8 C8.9790861,4.8 8.8,4.6209139 8.8,4.4 L8.8,0.4 C8.8,0.1790861 8.9790861,-2.62012634e-14 9.2,-2.62012634e-14 C9.4209139,-2.62012634e-14 9.6,0.1790861 9.6,0.4 L9.6,4 L13.2,4 Z" id="Stroke-31"></path>
            </g>
        </g>
    </g>
</svg>