<?xml version="1.0" encoding="UTF-8"?>
<svg width="15px" height="16px" viewBox="0 0 15 16" version="1.1" xmlns="http://www.w3.org/2000/svg" xmlns:xlink="http://www.w3.org/1999/xlink">
    <!-- Generator: Sketch 52.4 (67378) - http://www.bohemiancoding.com/sketch -->
    <title>icnRotateCounterClockwise</title>
    <desc>Created with Sketch.</desc>
    <g id="Capture-Flow" stroke="none" stroke-width="1" fill="none" fill-rule="evenodd">
        <g id="Capture-Icons" transform="translate(-200.000000, -268.000000)" fill="#6e6e6e" fill-rule="nonzero">
            <g id="icnRotateCounterClockwise" transform="translate(200.000000, 268.000000)">
                <path d="M6.35973863,14.7741393 C6.6341372,14.8051237 6.83146336,15.0526855 6.80047893,15.3270841 C6.7694945,15.6014827 6.52193267,15.7988088 6.2475341,15.7678244 C5.52517461,15.6862573 4.82602692,15.4943611 4.16998951,15.200756 C3.91793813,15.0879522 3.80505571,14.7921786 3.91785957,14.5401272 C4.03066344,14.2880758 4.32643705,14.1751934 4.57848844,14.2879972 C5.14089948,14.5397004 5.74014433,14.7041762 6.35973863,14.7741393 Z M2.99352128,13.253821 C3.19841447,13.4389518 3.21443509,13.7551286 3.02930434,13.9600218 C2.84417359,14.164915 2.52799672,14.1809356 2.32310353,13.9958049 C1.78787917,13.5122042 1.32904703,12.9491597 0.964090092,12.3269815 C0.82437347,12.0887928 0.904200896,11.7824399 1.14238964,11.6427233 C1.38057838,11.5030067 1.68693121,11.5828341 1.82664783,11.8210229 C2.13988833,12.3550349 2.53388371,12.8385166 2.99352128,13.253821 Z M1.13817703,10.059281 C1.19688296,10.329111 1.02573308,10.595442 0.755903085,10.6541479 C0.486073091,10.7128538 0.219742108,10.541704 0.161036185,10.271874 C0.0601524217,9.80818199 0.00610056743,9.33296008 0.000454114508,8.84631549 C-6.29983591e-06,8.53740969 0.0111903926,8.2949261 0.036443226,8.04639719 C0.064358111,7.77166938 0.309698491,7.57158797 0.584426303,7.59950286 C0.859154114,7.62741774 1.05923552,7.87275812 1.03132064,8.14748594 C1.0096658,8.36060468 1.00004193,8.56902611 1.0004196,8.8397427 C1.00524375,9.2536228 1.05163856,9.66152429 1.13817703,10.059281 Z M1.50155015,6.35208677 C1.3910019,6.60513557 1.09624825,6.72065508 0.843199454,6.61010683 C0.590150654,6.49955858 0.474631135,6.20480493 0.585179387,5.95175613 C0.635519165,5.83652663 0.688944129,5.72272994 0.745388653,5.61047986 C0.869444696,5.36377212 1.17000813,5.26434327 1.41671587,5.38839931 C1.66342361,5.51245536 1.76285246,5.81301879 1.63879641,6.05972653 C1.59044054,6.15589088 1.54467323,6.25337655 1.50155015,6.35208677 Z" id="Stroke-6137"></path>
                <path d="M6.55571152,3.03688653 C6.28128867,3.06765516 6.03388209,2.87013437 6.00311347,2.59571152 C5.97234484,2.32128867 6.16986563,2.07388209 6.44428848,2.04311347 C6.7011988,2.01430837 6.96404161,2 7.23090909,2 C11.168113,2 14.5,5.15117778 14.5,9 C14.5,12.5671589 11.6430544,15.6024553 8.05464624,15.9970048 C7.78015806,16.0271851 7.53317547,15.8291344 7.50299518,15.5546462 C7.4728149,15.2801581 7.67086558,15.0331755 7.94535376,15.0029952 C11.0370055,14.6630646 13.5,12.0463126 13.5,9 C13.5,5.71631626 10.6279123,3 7.23090909,3 C7.00080023,3 6.77513449,3.01228456 6.55571152,3.03688653 Z" id="Stroke-6138"></path>
                <path d="M7.85355339,4.14644661 C8.04881554,4.34170876 8.04881554,4.65829124 7.85355339,4.85355339 C7.65829124,5.04881554 7.34170876,5.04881554 7.14644661,4.85355339 L5.14644661,2.85355339 C4.95118446,2.65829124 4.95118446,2.34170876 5.14644661,2.14644661 L7.14644661,0.146446609 C7.34170876,-0.0488155365 7.65829124,-0.0488155365 7.85355339,0.146446609 C8.04881554,0.341708755 8.04881554,0.658291245 7.85355339,0.853553391 L6.20710678,2.5 L7.85355339,4.14644661 Z" id="Stroke-6139"></path>
            </g>
        </g>
    </g>
</svg>