<svg xmlns="http://www.w3.org/2000/svg" width="376" height="172" viewBox="0 0 376 172">
    <g fill="none" fill-rule="evenodd" transform="translate(81 38)">
        <rect width="162" height="109" x="26" y="8" fill="#FAFAFA" rx="3"/>
        <ellipse cx="107.5" cy="121.5" fill="#F1F1F1" rx="107.5" ry="3.5"/>
        <g stroke="#CFCFCF" stroke-width="3" transform="translate(19)">
            <rect width="163" height="111" x="6.5" y="6.5" rx="8"/>
            <path fill="#E4E4E4" d="M83.5 1.5h10v10h-10zM83.5 112.5h10v10h-10zM1.5 57.5h10v10h-10zM164.5 57.5h10v10h-10z"/>
        </g>
        <g fill="#CFCFCF">
            <path d="M82.067 22.733v32.934H115c0-18.19-14.744-32.934-32.933-32.934z"/>
            <path d="M104.6 64.333H73.4v-31.2c0-.957-.776-1.733-1.733-1.733C52.52 31.4 37 46.92 37 66.067c0 19.146 15.52 34.666 34.667 34.666 19.146 0 34.666-15.52 34.666-34.666 0-.958-.776-1.734-1.733-1.734zM71.667 97.267c-16.904.013-30.744-13.436-31.214-30.334-.47-16.896 12.602-31.094 29.48-32.02v31.154c0 .957.776 1.733 1.734 1.733h31.153c-.94 16.523-14.603 29.447-31.153 29.467z"/>
            <path d="M82.067 21c-.958 0-1.734.776-1.734 1.733v32.934c0 .957.776 1.733 1.734 1.733H115c.957 0 1.733-.776 1.733-1.733-.022-19.137-15.53-34.645-34.666-34.667zM83.8 53.933v-29.42c15.859.904 28.516 13.561 29.42 29.42H83.8z"/>
        </g>
        <path fill="#E4E4E4" d="M130 62h6v6h-6zM130 72h6v6h-6zM138 62h22v6h-22zM138 72h32v6h-32zM130 82h6v6h-6zM138 82h26v6h-26z"/>
        <path fill="#CFCFCF" d="M228.753 87.874L203.44 62.25a.837.837 0 0 0-.92-.184.854.854 0 0 0-.521.79v37.582c0 .36.224.684.56.805.334.123.71.015.937-.263l6.74-8.338 4.496 9.864a.843.843 0 0 0 1.099.425l5.906-2.563a.847.847 0 0 0 .456-.478.865.865 0 0 0-.022-.664l-4.51-9.892h10.494c.34 0 .65-.208.78-.528a.86.86 0 0 0-.183-.93z"/>
    </g>
</svg>
