<?xml version="1.0" encoding="UTF-8"?>
<svg width="16px" height="16px" viewBox="0 0 16 16" version="1.1" xmlns="http://www.w3.org/2000/svg" xmlns:xlink="http://www.w3.org/1999/xlink">
    <!-- Generator: Sketch 52.4 (67378) - http://www.bohemiancoding.com/sketch -->
    <title>icnZoomOut</title>
    <desc>Created with Sketch.</desc>
    <g id="Capture-Flow" stroke="none" stroke-width="1" fill="none" fill-rule="evenodd">
        <g id="Capture-Icons" transform="translate(-200.000000, -190.000000)" fill="#6e6e6e" fill-rule="nonzero">
            <g id="icnZoomOut" transform="translate(200.000000, 190.000000)">
                <path d="M10,5.5 C10,3.01449289 7.98533316,1 5.5,1 C3.01466684,1 1,3.01449289 1,5.5 C1,7.98510763 3.01489237,10 5.5,10 C7.98510763,10 10,7.98510763 10,5.5 Z M11,5.5 C11,8.53739237 8.53739237,11 5.5,11 C2.46260763,11 0,8.53739237 0,5.5 C0,2.46218881 2.46240142,0 5.5,0 C8.53759858,0 11,2.46218881 11,5.5 Z" id="Stroke-334"></path>
                <path d="M8.6818485,9.39347184 C8.48651813,9.19827794 8.4864075,8.88169547 8.6816014,8.6863651 C8.8767953,8.49103473 9.19337777,8.4909241 9.38870814,8.686118 L15.8534298,15.1463231 C16.0487602,15.341517 16.0488708,15.6580995 15.8536769,15.8534298 C15.658483,16.0487602 15.3419005,16.0488708 15.1465702,15.8536769 L8.6818485,9.39347184 Z" id="Stroke-335"></path>
                <path d="M3.5,6 C3.22385763,6 3,5.77614237 3,5.5 C3,5.22385763 3.22385763,5 3.5,5 L7.5,5 C7.77614237,5 8,5.22385763 8,5.5 C8,5.77614237 7.77614237,6 7.5,6 L3.5,6 Z" id="Stroke-336"></path>
            </g>
        </g>
    </g>
</svg>