<svg xmlns="http://www.w3.org/2000/svg" viewBox="0 0 48 48">
	<path fill="white"
		d="M47.987 21.938a.99.99 0 00-.053-.264c-.011-.032-.019-.063-.033-.094a.957.957 0 00-.193-.285l-.001-.001L42 15.586V10c0-.022-.011-.041-.013-.063a1.028 1.028 0 00-.051-.257c-.011-.032-.019-.063-.034-.094a.997.997 0 00-.196-.293l-9-9a.97.97 0 00-.294-.196c-.03-.014-.06-.022-.091-.032a.937.937 0 00-.263-.052C32.039.01 32.021 0 32 0H7a1 1 0 00-1 1v14.586L.293 21.293l-.002.002a.98.98 0 00-.192.285c-.014.031-.022.062-.033.094a.953.953 0 00-.053.264C.011 21.96 0 21.978 0 22v19a1 1 0 001 1h5v5a1 1 0 001 1h34a1 1 0 001-1v-5h5a1 1 0 001-1V22c0-.022-.011-.04-.013-.062zM44.586 21H42v-2.586L44.586 21zm-6-12H33V3.414L38.586 9zM8 2h23v8a1 1 0 001 1h8v10H8V2zM6 18.414V21H3.414L6 18.414zM40 46H8v-4h32v4zm6-6H2V23h44v17z" />
	<path fill="white"
		d="M33.588 32.934h1.462v3.111a1.613 1.613 0 01-.535.246 2.692 2.692 0 01-.739.094c-.431 0-.802-.113-1.113-.34-.312-.227-.569-.541-.774-.944a5.278 5.278 0 01-.459-1.411 9.257 9.257 0 01-.153-1.725c0-.589.051-1.15.153-1.683s.255-1 .459-1.403c.204-.402.462-.722.774-.96a1.756 1.756 0 011.097-.357c.771 0 1.383.329 1.836.986l1.173-1.428a3.335 3.335 0 00-1.275-1.08c-.521-.255-1.139-.382-1.853-.382-.68 0-1.292.156-1.836.467a4.25 4.25 0 00-1.394 1.309c-.385.562-.68 1.227-.884 1.998a9.885 9.885 0 00-.306 2.533c0 .941.105 1.796.315 2.567s.51 1.434.901 1.989.87.983 1.437 1.283c.567.301 1.207.451 1.921.451.703 0 1.306-.091 1.811-.272a4.384 4.384 0 001.3-.714v-6.103h-3.315c-.003 0-.003 1.768-.003 1.768zM16.987 26.72a2.82 2.82 0 00-1.097-.586 4.453 4.453 0 00-1.19-.17h-3.332V38h2.006v-4.828h1.428c.419 0 .827-.074 1.224-.221a2.9 2.9 0 001.054-.68c.306-.306.552-.688.74-1.148.187-.459.281-.994.281-1.606 0-.68-.105-1.247-.315-1.7s-.476-.819-.799-1.097zm-1.283 4.284c-.306.335-.697.502-1.173.502h-1.156v-3.825h1.156c.476 0 .867.147 1.173.442.306.295.459.765.459 1.411s-.153 1.136-.459 1.47zM25.547 34.515h-.051l-3.383-8.551h-2.329V38h1.836l-.034-8.5h.051l3.417 8.5h2.244V25.964H25.53z" />
</svg>