<?xml version="1.0" encoding="utf-8"?>
<!-- Generator: Adobe Illustrator 23.0.3, SVG Export Plug-In . SVG Version: 6.00 Build 0)  -->
<svg version="1.1" id="Layer_1" xmlns="http://www.w3.org/2000/svg" xmlns:xlink="http://www.w3.org/1999/xlink" x="0px" y="0px"
	 width="20px" height="20px" viewBox="0 0 20 20" style="enable-background:new 0 0 20 20;" xml:space="preserve">
<style type="text/css">
	.st0{fill:#DEE2E6;}
	.st1{fill:#E6B12D;}
</style>
<path class="st0" d="M11.9,5h-7C4.7,5,4.4,4.8,4.4,4.5S4.7,4,4.9,4h7c0.3,0,0.5,0.2,0.5,0.5S12.2,5,11.9,5z"/>
<path class="st0" d="M13.9,7h-9C4.7,7,4.4,6.8,4.4,6.5S4.7,6,4.9,6h9c0.3,0,0.5,0.2,0.5,0.5S14.2,7,13.9,7z"/>
<path class="st0" d="M10.4,8H4.9C4.7,8,4.4,8.2,4.4,8.5S4.7,9,4.9,9h4.3C9.6,8.6,10,8.3,10.4,8z"/>
<path class="st0" d="M17.2,9.4c-0.9-0.9-2.2-1.5-3.5-1.5s-2.6,0.5-3.5,1.5c-0.9,0.9-1.5,2.2-1.5,3.5s0.5,2.6,1.5,3.5
	c0.9,0.9,2.2,1.5,3.5,1.5s2.6-0.5,3.5-1.5c0.9-0.9,1.5-2.2,1.5-3.5S18.2,10.3,17.2,9.4z M17.7,12.9c0,2.2-1.8,4-4,4s-4-1.8-4-4
	s1.8-4,4-4S17.7,10.7,17.7,12.9z"/>
<path class="st0" d="M7.9,14h-3c-0.3,0-0.5,0.2-0.5,0.5S4.7,15,4.9,15h3.3C8.1,14.7,8,14.3,7.9,14z"/>
<path class="st0" d="M8.7,16H4.9c-0.3,0-0.5,0.2-0.5,0.5S4.7,17,4.9,17h4.5C9.2,16.7,8.9,16.4,8.7,16z"/>
<path class="st0" d="M8.6,10H4.9c-0.3,0-0.5,0.2-0.5,0.5S4.7,11,4.9,11h3.2C8.2,10.7,8.4,10.3,8.6,10z"/>
<path class="st0" d="M16.7,11.1c-0.1-0.2-0.3-0.4-0.5-0.3l-2.5,1.5l-2.1-1.4c-0.1-0.1-0.3,0.1-0.5,0.3s-0.2,0.5-0.1,0.5l2.4,1.7
	c0.1,0.1,0.2,0.1,0.3,0.1l3-1.8C16.8,11.6,16.8,11.4,16.7,11.1z"/>
<path class="st0" d="M16.4,18.1V19h-14V2h14v5.7c0.4,0.2,0.7,0.4,1,0.6V1h-16v19h16v-2.5C17.1,17.7,16.8,18,16.4,18.1z"/>
<path class="st1" d="M13.7,8.9c-2.2,0-4,1.8-4,4c0,2.2,1.8,4,4,4s4-1.8,4-4C17.7,10.7,15.9,8.9,13.7,8.9z M13.7,13.5
	c-0.1,0-0.2,0-0.3-0.1L11,11.7c-0.1,0-0.1-0.3,0.1-0.5c0.2-0.2,0.4-0.4,0.5-0.3l2.1,1.4l2.5-1.5c0.2-0.1,0.4,0.1,0.5,0.3
	c0.1,0.3,0.1,0.5,0,0.6L13.7,13.5z"/>
</svg>
