<?xml version="1.0" encoding="utf-8"?>
<!-- Generator: Adobe Illustrator 23.0.3, SVG Export Plug-In . SVG Version: 6.00 Build 0)  -->
<svg version="1.1" id="Layer_1" xmlns="http://www.w3.org/2000/svg" xmlns:xlink="http://www.w3.org/1999/xlink" x="0px" y="0px"
	 width="20px" height="20px" viewBox="0 0 20 20" style="enable-background:new 0 0 20 20;" xml:space="preserve">
<style type="text/css">
	.st0{fill:#FFFFFF;}
</style>
<path class="st0" d="M16.2,3.8C14.4,2,12,1,9.5,1S4.6,2,2.8,3.8S0,8,0,10.5s1,4.9,2.8,6.7S7,20,9.5,20s4.9-1,6.7-2.8S19,13,19,10.5
	S18,5.6,16.2,3.8z M9.5,19C4.8,19,1,15.2,1,10.5S4.8,2,9.5,2S18,5.8,18,10.5S14.2,19,9.5,19z"/>
<path class="st0" d="M9.5,17.6L9.5,17.6c-0.5,0-0.8-0.4-0.8-0.8l0,0c0-0.5,0.4-0.8,0.8-0.8l0,0c0.5,0,0.8,0.4,0.8,0.8l0,0
	C10.3,17.2,10,17.6,9.5,17.6z"/>
<path class="st0" d="M13.4,7.8c0-2.2-1.8-3.9-3.9-3.9c-2.2,0-3.9,1.8-3.9,3.9c0,0.3,0.2,0.5,0.5,0.5s0.5-0.2,0.5-0.5
	c0-1.6,1.3-2.9,2.9-2.9s2.9,1.3,2.9,2.9s-1.3,2.9-2.9,2.9c-0.3,0-0.4,0.2-0.5,0.4v0.1V14c0,0.3,0.2,0.5,0.5,0.5S10,14.3,10,14v-2.3
	C11.9,11.4,13.4,9.7,13.4,7.8z"/>
</svg>
