<svg xmlns="http://www.w3.org/2000/svg" width="24" height="24" viewBox="0 0 24 24">
    <g fill="none" fill-rule="evenodd">
        <path d="M0 0L24 0 24 24 0 24z"/>
        <path fill="#E6B12D" fill-rule="nonzero" d="M16.5 12.5c2.761 0 5 2.239 5 5s-2.239 5-5 5-5-2.239-5-5 2.239-5 5-5zM12 1l2.839 2.839L18 7v4.9h-2V8h-5V3H4v15.2c0 .41.288.74.65.793l.1.007h6.125v2H4c-1 0-2-1-2-2.5v-15C2 2.017 3 1 4 1h8zm4.5 13c-1.933 0-3.5 1.567-3.5 3.5s1.567 3.5 3.5 3.5 3.5-1.567 3.5-3.5-1.567-3.5-3.5-3.5zm.5 1v2.7l1.5.8-.8 1.2-2.2-1.2V15H17zm-7 0v2H6v-2h4zm2-4v2H6v-2h6z"/>
    </g>
</svg>
