<svg xmlns="http://www.w3.org/2000/svg" viewBox="0 0 318.188 318.188">
    <path fill="white"
        d="M283.149 52.723L232.625 2.197A7.5 7.5 0 00227.321 0H40.342a7.5 7.5 0 00-7.5 7.5v303.188a7.5 7.5 0 007.5 7.5h237.504a7.5 7.5 0 007.5-7.5V58.025c0-1.989-.79-3.896-2.197-5.302zm-48.328-27.117l24.918 24.919h-24.918V25.606zM47.842 15h171.98v10.263H47.842V15zm222.504 288.188H47.842V40.263h171.98v17.763c0 4.143 3.357 7.5 7.5 7.5h43.024v237.662z" />
    <path fill="white"
        d="M92.237 243.992h11.715v37.379h12.963v-37.379h11.684v-10.6H92.237zM158.858 281.371h12.765v-18.017h14.374v-10.403h-14.374v-9.156h15.589v-10.403h-28.354zM135.458 233.392h13.028v47.979h-13.028zM195.087 281.371h12.766v-18.017h14.374v-10.403h-14.374v-9.156h15.589v-10.403h-28.355zM196.362 119.527l7.24-27.019a7.501 7.501 0 00-9.186-9.185L150.879 94.99a7.488 7.488 0 00-6.344-3.512h-43.947a7.499 7.499 0 00-7.5 7.5v43.947c0 4.143 3.357 7.5 7.5 7.5h43.947c4.143 0 7.5-3.357 7.5-7.5v-5.707l6.465 6.466a33.89 33.89 0 00-1.335 9.47c0 18.759 15.262 34.021 34.021 34.021s34.02-15.262 34.02-34.021c0-16.999-12.532-31.127-28.844-33.627zm-59.327 15.899h-28.947v-28.947h17.472a7.496 7.496 0 002.112 6.376l9.363 9.363v13.208zm10.429-23.992l38.288-10.26-10.26 38.289-28.028-28.029zm43.723 60.741c-8.812 0-16.222-6.031-18.373-14.177l1.257 1.257a7.5 7.5 0 0012.548-3.362l5.814-21.696c9.907.646 17.774 8.889 17.774 18.957-.001 10.489-8.533 19.021-19.02 19.021z" />
</svg>